<svg width="387" height="485" viewBox="0 0 387 485" fill="none" xmlns="http://www.w3.org/2000/svg">
    <path d="M-118.277 193.029C-121.45 190.099 -46.6064 219.27 46.9673 214.424L28.4529 236.279C28.4529 236.279 76.2881 254.816 139.398 253.711C139.398 253.711 16.189 260.836 -3.55073 259.524C-3.55073 259.524 2.36598 247.632 12.5025 235.186C12.5025 235.186 -109.369 201.255 -118.285 193.042L-118.277 193.029Z" fill="#CCFA6C"/>
    <path d="M-85.9558 167.559C-85.9558 167.559 22.0791 169.46 45.5985 162.72L27.5924 183.847C27.5924 183.847 93.7655 187.566 118.673 181.63C118.673 181.63 32.0891 199.69 5.57124 201.644C5.57124 201.644 9.4031 191.647 16.611 182.582C16.611 182.582 -67.5049 177.829 -85.9558 167.559Z" fill="#CCFA6C"/>
    <path d="M-81.0649 219.675C-81.0649 219.675 -49.4868 251.202 -21.1051 259.495L-40.03 271.945C-40.03 271.945 -15.0698 299.64 30.8722 313.008C30.8722 313.008 -29.8755 308.359 -74.6056 279.404L-43.6434 259.664C-43.6434 259.664 -69.9566 235.621 -81.052 219.682L-81.0649 219.675Z" fill="#CCFA6C"/>
    <path d="M-11.6153 270.068C-11.6153 270.068 73.1067 296.364 155.643 291.607L135.101 247.306C135.101 247.306 296.17 294.165 358.748 296.252C358.748 296.252 245.925 309.739 178.688 290.952L199.244 341.032C199.244 341.032 53.1547 307.596 -11.6228 270.081L-11.6153 270.068Z" fill="#CCFA6C"/>
    <path d="M263.45 56.917C232.647 44.1028 227.435 45.4477 206.533 71.4498C219.347 40.647 218.002 35.4354 192 14.5328C222.803 27.3471 228.015 26.0021 248.917 0C236.103 30.8028 237.448 36.0144 263.45 56.917Z" fill="#FCFFF4"/>
</svg>
