<svg width="289" height="467" viewBox="0 0 289 467" fill="none" xmlns="http://www.w3.org/2000/svg">
    <path d="M85.5683 377.896C78.6128 356.267 75.6145 354.159 52.9034 354.801C74.5326 347.845 76.6411 344.847 75.999 322.136C82.9545 343.765 85.9529 345.873 108.664 345.231C87.0348 352.187 84.9263 355.185 85.5683 377.896Z" fill="#193000" stroke="#193000" stroke-width="1.47223" stroke-miterlimit="10"/>
    <path d="M85.4484 377.814C78.4982 356.231 75.5095 354.114 52.8425 354.769C74.4262 347.818 76.543 344.83 75.8883 322.163C82.8385 343.747 85.8271 345.863 108.494 345.209C86.9105 352.159 84.7937 355.147 85.4484 377.814Z" fill="#193000" stroke="#193000" stroke-width="1.47223" stroke-miterlimit="10"/>
    <path d="M85.3288 377.733C78.3937 356.186 75.4132 354.079 52.7835 354.719C74.3299 347.784 76.4369 344.803 75.7974 322.173C82.7324 343.72 85.7129 345.827 108.343 345.187C86.7962 352.122 84.6892 355.103 85.3288 377.733Z" fill="#193000" stroke="#193000" stroke-width="1.47223" stroke-miterlimit="10"/>
    <path d="M85.2087 377.651C78.2887 356.142 75.3083 354.035 52.7227 354.687C74.2318 347.767 76.3388 344.786 75.6867 322.201C82.6067 343.71 85.5871 345.817 108.173 345.165C86.6636 352.085 84.5566 355.065 85.2087 377.651Z" fill="#193000" stroke="#193000" stroke-width="1.47223" stroke-miterlimit="10"/>
    <path d="M85.0891 377.569C78.1841 356.097 75.2119 354 52.6636 354.637C74.1354 347.732 76.2328 344.76 75.5957 322.211C82.5007 343.683 85.4728 345.78 108.021 345.143C86.5494 352.048 84.452 355.02 85.0891 377.569Z" fill="#193000" stroke="#193000" stroke-width="1.47223" stroke-miterlimit="10"/>
    <path d="M84.9594 377.495C78.0598 356.069 75.0973 353.963 52.5931 354.613C74.0193 347.713 76.1249 344.751 75.4753 322.247C82.3749 343.673 85.3374 345.778 107.842 345.129C86.4153 352.028 84.3097 354.991 84.9594 377.495Z" fill="#193000" stroke="#193000" stroke-width="1.47223" stroke-miterlimit="10"/>
    <path d="M84.8399 377.414C77.9554 356.025 74.9928 353.919 52.5245 354.572C73.9135 347.687 76.019 344.725 75.3665 322.256C82.2511 343.645 85.2136 345.751 107.682 345.098C86.293 351.983 84.1874 354.945 84.8399 377.414Z" fill="#193000" stroke="#193000" stroke-width="1.47223" stroke-miterlimit="10"/>
    <path d="M84.7199 377.332C77.8504 355.98 74.8962 353.884 52.4734 354.531C73.8251 347.662 75.921 344.708 75.2739 322.285C82.1433 343.637 85.0975 345.732 107.52 345.085C86.1687 351.955 84.0728 354.909 84.7199 377.332Z" fill="#193000" stroke="#193000" stroke-width="1.47223" stroke-miterlimit="10"/>
    <path d="M84.6003 377.25C77.7458 355.936 74.7819 353.848 52.4047 354.49C73.719 347.635 75.8067 344.671 75.1649 322.294C82.0193 343.608 84.9833 345.696 107.36 345.054C86.0462 351.909 83.9585 354.873 84.6003 377.25Z" fill="#193000" stroke="#193000" stroke-width="1.47223" stroke-miterlimit="10"/>
    <path d="M84.4725 377.159C77.6331 355.882 74.6775 353.804 52.3458 354.44C73.6228 347.601 75.7008 344.645 75.0644 322.313C81.9037 343.59 84.8594 345.668 107.191 345.032C85.9141 351.871 83.8361 354.827 84.4725 377.159Z" fill="#193000" stroke="#193000" stroke-width="1.47223" stroke-miterlimit="10"/>
    <path d="M84.3526 377.077C77.5186 355.845 74.5726 353.759 52.2768 354.398C73.5082 347.564 75.5944 344.618 74.9552 322.322C81.7892 343.554 84.7352 345.64 107.031 345.001C85.7995 351.835 83.7133 354.781 84.3526 377.077Z" fill="#193000" stroke="#193000" stroke-width="1.47223" stroke-miterlimit="10"/>
    <path d="M84.2231 377.003C77.4042 355.809 74.4664 353.732 52.2064 354.375C73.4006 347.556 75.4771 344.618 74.835 322.358C81.6539 343.552 84.5917 345.629 106.852 344.986C85.6575 351.805 83.5809 354.743 84.2231 377.003Z" fill="#193000" stroke="#193000" stroke-width="1.47223" stroke-miterlimit="10"/>
    <path d="M84.1031 376.921C77.2992 355.764 74.3615 353.688 52.1471 354.325C73.304 347.521 75.3805 344.583 74.7437 322.368C81.5476 343.525 84.4854 345.602 106.7 344.965C85.5429 351.769 83.4663 354.707 84.1031 376.921Z" fill="#193000" stroke="#193000" stroke-width="1.47223" stroke-miterlimit="10"/>
    <path d="M83.9836 376.84C77.1948 355.72 74.2653 353.653 52.0868 354.293C73.2063 347.504 75.2732 344.575 74.6336 322.396C81.4224 343.516 84.3519 345.583 106.53 344.943C85.4109 351.732 83.344 354.661 83.9836 376.84Z" fill="#193000" stroke="#193000" stroke-width="1.47223" stroke-miterlimit="10"/>
    <path d="M83.8638 376.758C77.0803 355.684 74.1605 353.609 52.0275 354.243C73.1015 347.46 75.1766 344.54 74.5423 322.407C81.3258 343.481 84.2456 345.556 106.379 344.922C85.3046 351.705 83.2295 354.625 83.8638 376.758Z" fill="#193000" stroke="#193000" stroke-width="1.47223" stroke-miterlimit="10"/>
    <path d="M83.744 376.676C76.9756 355.639 74.0641 353.574 51.967 354.211C73.0037 347.443 75.0691 344.531 74.4319 322.434C81.2003 343.471 84.1119 345.536 106.209 344.899C85.1723 351.667 83.1069 354.579 83.744 376.676Z" fill="#193000" stroke="#193000" stroke-width="1.47223" stroke-miterlimit="10"/>
    <path d="M83.6143 376.602C76.8609 355.603 73.9494 353.538 51.8881 354.178C72.8876 347.424 74.953 344.513 74.3129 322.451C81.0663 343.451 83.9778 345.516 106.039 344.876C85.0397 351.629 82.9742 354.541 83.6143 376.602Z" fill="#193000" stroke="#193000" stroke-width="1.47223" stroke-miterlimit="10"/>
    <path d="M83.4946 376.52C76.7481 355.549 73.8433 353.511 51.8373 354.137C72.8091 347.391 74.8469 344.486 74.2205 322.48C80.967 343.452 83.8718 345.49 105.878 344.863C84.906 351.61 82.8682 354.514 83.4946 376.52Z" fill="#193000" stroke="#193000" stroke-width="1.47223" stroke-miterlimit="10"/>
    <path d="M83.3666 376.429C76.6255 355.503 73.7304 353.457 51.7602 354.086C72.6865 347.345 74.7325 344.45 74.1032 322.48C80.8444 343.406 83.7395 345.452 105.71 344.823C84.7834 351.564 82.7373 354.459 83.3666 376.429Z" fill="#193000" stroke="#193000" stroke-width="1.47223" stroke-miterlimit="10"/>
    <path d="M83.2469 376.347C76.5208 355.458 73.634 353.422 51.7094 354.046C72.5983 347.32 74.6347 344.433 74.0108 322.508C80.7369 343.397 83.6237 345.434 105.548 344.81C84.6594 351.536 82.623 354.423 83.2469 376.347Z" fill="#193000" stroke="#193000" stroke-width="1.47223" stroke-miterlimit="10"/>
    <path d="M83.1273 376.265C76.4162 355.414 73.5293 353.377 51.6406 354.004C72.4922 347.293 74.5286 344.406 73.9018 322.518C80.6129 343.369 83.4997 345.406 105.388 344.779C84.5368 351.49 82.5005 354.377 83.1273 376.265Z" fill="#193000" stroke="#193000" stroke-width="1.47223" stroke-miterlimit="10"/>
    <path d="M82.9975 376.192C76.3015 355.378 73.4229 353.351 51.57 353.981C72.3843 347.285 74.411 344.406 73.7814 322.553C80.4773 343.367 83.3559 345.394 105.209 344.764C84.3945 351.46 82.3678 354.339 82.9975 376.192Z" fill="#193000" stroke="#193000" stroke-width="1.47223" stroke-miterlimit="10"/>
    <path d="M82.8778 376.11C76.1872 355.341 73.3183 353.307 51.511 353.931C72.2797 347.24 74.3147 344.371 73.6904 322.564C80.381 343.333 83.2499 345.368 105.057 344.743C84.2885 351.434 82.2535 354.303 82.8778 376.11Z" fill="#193000" stroke="#193000" stroke-width="1.47223" stroke-miterlimit="10"/>
    <path d="M82.7581 376.028C76.0825 355.297 73.2136 353.262 51.4422 353.889C72.1736 347.214 74.2086 344.345 73.5814 322.573C80.257 343.305 83.1258 345.34 104.897 344.712C84.1658 351.388 82.1309 354.257 82.7581 376.028Z" fill="#193000" stroke="#193000" stroke-width="1.47223" stroke-miterlimit="10"/>
    <path d="M82.6382 375.947C75.9777 355.252 73.117 353.227 51.3911 353.849C72.0853 347.188 74.1105 344.328 73.4887 322.602C80.1492 343.296 83.0099 345.321 104.736 344.7C84.0416 351.36 82.0164 354.221 82.6382 375.947Z" fill="#193000" stroke="#193000" stroke-width="1.47223" stroke-miterlimit="10"/>
    <path d="M82.5185 375.865C75.873 355.208 73.0124 353.182 51.3223 353.807C71.9792 347.162 74.0045 344.301 73.3798 322.611C80.0252 343.268 82.8858 345.293 104.576 344.668C83.919 351.314 81.8938 354.175 82.5185 375.865Z" fill="#193000" stroke="#193000" stroke-width="1.47223" stroke-miterlimit="10"/>
    <path d="M82.3988 375.783C75.7684 355.164 72.916 353.148 51.2618 353.776C71.8814 347.145 73.8969 344.293 73.2693 322.639C79.8997 343.258 82.7522 345.274 104.406 344.646C83.7868 351.277 81.7712 354.129 82.3988 375.783Z" fill="#193000" stroke="#193000" stroke-width="1.47223" stroke-miterlimit="10"/>
    <path d="M82.2613 375.7C75.6363 355.126 72.7839 353.11 51.1849 353.724C71.7589 347.099 73.7745 344.247 73.1605 322.648C79.7855 343.222 82.6379 345.237 104.237 344.623C83.6629 351.248 81.6473 354.101 82.2613 375.7Z" fill="#193000" stroke="#193000" stroke-width="1.47223" stroke-miterlimit="10"/>
    <path d="M82.1411 375.618C75.5311 355.081 72.6869 353.075 51.1239 353.692C71.6606 347.082 73.6664 344.238 73.0496 322.675C79.6596 343.212 82.5037 345.218 104.067 344.601C83.5301 351.211 81.5242 354.055 82.1411 375.618Z" fill="#193000" stroke="#193000" stroke-width="1.47223" stroke-miterlimit="10"/>
    <path d="M82.0214 375.536C75.4265 355.037 72.5823 353.031 51.0648 353.642C71.5642 347.047 73.5701 344.203 72.9586 322.686C79.5535 343.185 82.3977 345.191 103.915 344.579C83.4158 351.174 81.4099 354.019 82.0214 375.536Z" fill="#193000" stroke="#193000" stroke-width="1.47223" stroke-miterlimit="10"/>
    <path d="M81.9014 375.454C75.3216 354.992 72.4856 352.996 51.004 353.61C71.4661 347.03 73.4623 344.194 72.8479 322.713C79.4278 343.175 82.2637 345.171 103.745 344.557C83.2833 351.137 81.2871 353.973 81.9014 375.454Z" fill="#193000" stroke="#193000" stroke-width="1.47223" stroke-miterlimit="10"/>
    <path d="M81.7819 375.373C75.2075 354.956 72.3812 352.952 50.9354 353.569C71.352 346.994 73.3564 344.168 72.7392 322.722C79.3137 343.139 82.14 345.143 103.586 344.526C83.1692 351.101 81.1647 353.927 81.7819 375.373Z" fill="#193000" stroke="#193000" stroke-width="1.47223" stroke-miterlimit="10"/>
    <path d="M81.6523 375.299C75.0929 354.92 72.2749 352.925 50.8746 353.537C71.2539 346.978 73.2486 344.159 72.6368 322.759C79.1962 343.139 82.0142 345.133 103.414 344.521C83.0352 351.081 81.0404 353.899 81.6523 375.299Z" fill="#193000" stroke="#193000" stroke-width="1.47223" stroke-miterlimit="10"/>
    <path d="M81.5326 375.217C74.9882 354.875 72.1702 352.88 50.8059 353.495C71.1478 346.951 73.1425 344.133 72.5278 322.768C79.0722 343.11 81.8902 345.105 103.255 344.49C82.9126 351.035 80.9179 353.853 81.5326 375.217Z" fill="#193000" stroke="#193000" stroke-width="1.47223" stroke-miterlimit="10"/>
    <path d="M81.4131 375.136C74.8838 354.831 72.074 352.846 50.7552 353.455C71.0599 346.926 73.0449 344.116 72.4356 322.798C78.9649 343.102 81.7746 345.087 103.093 344.478C82.7888 351.007 80.8037 353.817 81.4131 375.136Z" fill="#193000" stroke="#193000" stroke-width="1.47223" stroke-miterlimit="10"/>
    <path d="M81.2931 375.054C74.7692 354.795 71.9692 352.801 50.6862 353.414C70.9453 346.89 72.9386 344.09 72.3264 322.807C78.8503 343.066 81.6504 345.059 102.933 344.447C82.6742 350.971 80.6809 353.771 81.2931 375.054Z" fill="#193000" stroke="#193000" stroke-width="1.47223" stroke-miterlimit="10"/>
    <path d="M81.1651 374.962C74.6562 354.74 71.8548 352.765 50.6174 353.372C70.8392 346.863 72.8145 344.062 72.2077 322.824C78.7165 343.046 81.5181 345.021 102.755 344.414C82.5337 350.923 80.5583 353.725 81.1651 374.962Z" fill="#193000" stroke="#193000" stroke-width="1.47223" stroke-miterlimit="10"/>
    <path d="M81.0452 374.88C74.5514 354.696 71.7499 352.72 50.5581 353.322C70.7425 346.828 72.7179 344.027 72.1164 322.835C78.6103 343.019 81.4118 344.995 102.604 344.393C82.4191 350.887 80.4438 353.688 81.0452 374.88Z" fill="#193000" stroke="#193000" stroke-width="1.47223" stroke-miterlimit="10"/>
    <path d="M80.916 374.807C74.4372 354.66 71.644 352.694 50.488 353.299C70.6352 346.82 72.6008 344.027 71.9965 322.871C78.4753 343.018 81.2685 344.983 102.424 344.379C82.2773 350.858 80.3116 353.651 80.916 374.807Z" fill="#193000" stroke="#193000" stroke-width="1.47223" stroke-miterlimit="10"/>
    <path d="M80.7961 374.725C74.3324 354.615 71.5391 352.65 50.4287 353.249C70.5386 346.785 72.5042 343.992 71.9053 322.881C78.369 342.991 81.1622 344.957 102.273 344.358C82.1628 350.821 80.1971 353.615 80.7961 374.725Z" fill="#193000" stroke="#193000" stroke-width="1.47223" stroke-miterlimit="10"/>
    <path d="M80.6763 374.643C74.218 354.579 71.4344 352.605 50.3681 353.216C70.4324 346.758 72.4064 343.975 71.7948 322.908C78.2532 342.973 81.0367 344.947 102.103 344.335C82.0387 350.793 80.0648 353.577 80.6763 374.643Z" fill="#193000" stroke="#193000" stroke-width="1.47223" stroke-miterlimit="10"/>
    <path d="M80.5564 374.561C74.1131 354.534 71.3378 352.57 50.2991 353.175C70.3261 346.731 72.2904 343.956 71.6856 322.918C78.1289 342.945 80.9042 344.909 101.943 344.304C81.9159 350.747 79.9516 353.523 80.5564 374.561Z" fill="#193000" stroke="#193000" stroke-width="1.47223" stroke-miterlimit="10"/>
    <path d="M80.4367 374.479C74.0085 354.49 71.2332 352.525 50.2483 353.134C70.238 346.706 72.2022 343.931 71.5932 322.946C78.0214 342.936 80.7967 344.9 101.782 344.291C81.7919 350.719 79.8277 353.495 80.4367 374.479Z" fill="#193000" stroke="#193000" stroke-width="1.47223" stroke-miterlimit="10"/>
    <path d="M80.3075 374.406C73.8943 354.454 71.1272 352.499 50.17 353.101C70.1223 346.688 72.0769 343.921 71.4747 322.964C77.8879 342.916 80.6549 344.871 101.612 344.269C81.6598 350.682 79.7052 353.449 80.3075 374.406Z" fill="#193000" stroke="#193000" stroke-width="1.47223" stroke-miterlimit="10"/>
    <path d="M80.1876 374.324C73.7798 354.418 71.0224 352.455 50.1189 353.061C70.0258 346.653 71.9886 343.896 71.382 322.993C77.7898 342.899 80.5472 344.862 101.451 344.256C81.5438 350.664 79.581 353.421 80.1876 374.324Z" fill="#193000" stroke="#193000" stroke-width="1.47223" stroke-miterlimit="10"/>
    <path d="M80.0593 374.233C73.6666 354.363 70.9174 352.41 50.0416 353.01C69.9111 346.617 71.8642 343.868 71.2645 322.992C77.6572 342.861 80.4064 344.815 101.282 344.215C81.4127 350.608 79.4596 353.357 80.0593 374.233Z" fill="#193000" stroke="#193000" stroke-width="1.47223" stroke-miterlimit="10"/>
    <path d="M79.9396 374.151C73.5619 354.319 70.8031 352.374 49.981 352.978C69.8132 346.6 71.7581 343.841 71.154 323.019C77.5317 342.851 80.2906 344.796 101.113 344.192C81.2804 350.57 79.3355 353.329 79.9396 374.151Z" fill="#193000" stroke="#193000" stroke-width="1.47223" stroke-miterlimit="10"/>
    <path d="M79.8199 374.069C73.449 354.265 70.7067 352.339 49.922 352.928C69.7266 346.557 71.6521 343.815 71.0631 323.03C77.434 342.835 80.1762 344.76 100.961 344.171C81.1564 350.542 79.2309 353.285 79.8199 374.069Z" fill="#193000" stroke="#193000" stroke-width="1.47223" stroke-miterlimit="10"/>
    <path d="M79.6906 373.995C73.3251 354.236 70.5925 352.303 49.8436 352.895C69.6027 346.529 71.5365 343.796 70.9446 323.048C77.3101 342.807 80.0427 344.74 100.792 344.148C81.0325 350.514 79.0988 353.247 79.6906 373.995Z" fill="#193000" stroke="#193000" stroke-width="1.47223" stroke-miterlimit="10"/>
    <path d="M79.5708 373.914C73.2203 354.192 70.4959 352.268 49.7926 352.854C69.5144 346.504 71.4384 343.78 70.8519 323.076C77.2024 342.798 79.9268 344.722 100.63 344.136C80.9083 350.486 78.9842 353.21 79.5708 373.914Z" fill="#193000" stroke="#193000" stroke-width="1.47223" stroke-miterlimit="10"/>
    <path d="M79.4508 373.832C73.1154 354.147 70.391 352.223 49.7236 352.813C69.408 346.477 71.3321 343.753 70.7427 323.085C77.0781 342.77 79.8025 344.694 100.47 344.105C80.7855 350.44 78.8614 353.164 79.4508 373.832Z" fill="#193000" stroke="#193000" stroke-width="1.47223" stroke-miterlimit="10"/>
    <path d="M79.3313 373.75C73.011 354.103 70.2948 352.189 49.6632 352.781C69.3104 346.461 71.2248 343.745 70.6325 323.113C76.9528 342.76 79.669 344.675 100.301 344.082C80.6535 350.403 78.7391 353.119 79.3313 373.75Z" fill="#193000" stroke="#193000" stroke-width="1.47223" stroke-miterlimit="10"/>
    <path d="M79.2116 373.668C72.8967 354.067 70.1902 352.144 49.6042 352.731C69.2058 346.416 71.1284 343.71 70.5415 323.124C76.8565 342.725 79.5629 344.648 100.149 344.061C80.5474 350.376 78.6247 353.082 79.2116 373.668Z" fill="#193000" stroke="#193000" stroke-width="1.47223" stroke-miterlimit="10"/>
    <path d="M79.0914 373.586C72.7915 354.022 70.0933 352.109 49.5431 352.699C69.1074 346.399 71.0204 343.701 70.4306 323.151C76.7305 342.715 79.4287 344.628 99.9789 344.038C80.4146 350.338 78.5016 353.036 79.0914 373.586Z" fill="#193000" stroke="#193000" stroke-width="1.47223" stroke-miterlimit="10"/>
    <path d="M78.9539 373.503C72.6691 353.976 69.9708 352.063 49.4662 352.648C68.9932 346.363 70.9062 343.665 70.3218 323.16C76.6067 342.687 79.3048 344.6 99.8094 344.015C80.2825 350.3 78.3695 352.999 78.9539 373.503Z" fill="#193000" stroke="#193000" stroke-width="1.47223" stroke-miterlimit="10"/>
    <path d="M78.834 373.421C72.5642 353.932 69.8563 352.027 49.4055 352.616C68.8951 346.346 70.7998 343.638 70.2111 323.187C76.4809 342.677 79.1888 344.581 99.6396 343.993C80.15 350.262 78.2453 352.97 78.834 373.421Z" fill="#193000" stroke="#193000" stroke-width="1.47223" stroke-miterlimit="10"/>
    <path d="M78.7145 373.34C72.4598 353.887 69.7601 351.992 49.3369 352.574C68.7893 346.32 70.6843 343.62 70.1024 323.197C76.3571 342.649 79.0568 344.544 99.48 343.962C80.0276 350.217 78.1326 352.917 78.7145 373.34Z" fill="#193000" stroke="#193000" stroke-width="1.47223" stroke-miterlimit="10"/>
    <path d="M78.5946 373.258C72.3452 353.851 69.6553 351.948 49.2859 352.534C68.6927 346.285 70.5959 343.595 70.0097 323.225C76.2591 342.632 78.9491 344.535 99.3185 343.949C79.9116 350.199 78.0084 352.888 78.5946 373.258Z" fill="#193000" stroke="#193000" stroke-width="1.47223" stroke-miterlimit="10"/>
    <path d="M78.4747 373.176C72.2403 353.806 69.5586 351.913 49.2168 352.492C68.5864 346.258 70.4799 343.576 69.9005 323.234C76.1348 342.604 78.8166 344.498 99.1583 343.918C79.7888 350.153 77.8952 352.834 78.4747 373.176Z" fill="#193000" stroke="#193000" stroke-width="1.47223" stroke-miterlimit="10"/>
    <path d="M78.3454 373.103C72.1261 353.771 69.4445 351.877 49.1565 352.461C68.4887 346.241 70.3822 343.56 69.7985 323.272C76.0178 342.604 78.6995 344.497 98.9875 343.914C79.6553 350.133 77.7617 352.815 78.3454 373.103Z" fill="#193000" stroke="#193000" stroke-width="1.47223" stroke-miterlimit="10"/>
    <path d="M78.2255 373.021C72.0213 353.726 69.3477 351.842 49.0874 352.419C68.3823 346.215 70.2662 343.541 69.6893 323.281C75.8935 342.576 78.567 344.46 98.8274 343.883C79.5324 350.087 77.6485 352.761 78.2255 373.021Z" fill="#193000" stroke="#193000" stroke-width="1.47223" stroke-miterlimit="10"/>
    <path d="M78.1057 372.939C71.9069 353.69 69.2431 351.797 49.0269 352.387C68.2762 346.188 70.1684 343.524 69.5789 323.308C75.7777 342.557 78.4415 344.45 98.6578 343.86C79.4084 350.059 77.5162 352.723 78.1057 372.939Z" fill="#193000" stroke="#193000" stroke-width="1.47223" stroke-miterlimit="10"/>
    <path d="M77.9775 372.847C71.7937 353.635 69.1382 351.753 48.9592 352.327C68.1713 346.143 70.0538 343.488 69.4794 323.309C75.6631 342.521 78.3187 344.404 98.4976 343.829C79.2856 350.013 77.4031 352.668 77.9775 372.847Z" fill="#193000" stroke="#193000" stroke-width="1.47223" stroke-miterlimit="10"/>
    <path d="M77.8578 372.765C71.6891 353.591 69.0335 351.708 48.8987 352.295C68.0734 346.126 69.9559 343.471 69.3689 323.336C75.5377 342.511 78.1931 344.393 98.328 343.806C79.1532 349.975 77.2708 352.631 77.8578 372.765Z" fill="#193000" stroke="#193000" stroke-width="1.47223" stroke-miterlimit="10"/>
    <path d="M77.7382 372.684C71.5845 353.547 68.9372 351.674 48.8397 352.246C67.9771 346.092 69.8499 343.445 69.2779 323.347C75.4316 342.485 78.0789 344.357 98.1765 343.786C79.039 349.939 77.1662 352.587 77.7382 372.684Z" fill="#193000" stroke="#193000" stroke-width="1.47223" stroke-miterlimit="10"/>
    <path d="M77.6087 372.61C71.4604 353.518 68.8131 351.646 48.7693 352.222C67.8612 346.074 69.734 343.426 69.1577 323.383C75.3061 342.474 77.9533 344.347 97.997 343.771C78.9051 349.919 77.0324 352.567 77.6087 372.61Z" fill="#193000" stroke="#193000" stroke-width="1.47223" stroke-miterlimit="10"/>
    <path d="M77.4887 372.529C71.3554 353.474 68.7164 351.611 48.7003 352.18C67.7549 346.047 69.618 343.408 69.0485 323.392C75.1818 342.447 77.8208 344.31 97.8369 343.74C78.7823 349.873 76.9192 352.512 77.4887 372.529Z" fill="#193000" stroke="#193000" stroke-width="1.47223" stroke-miterlimit="10"/>
    <path d="M77.369 372.447C71.2508 353.429 68.6118 351.566 48.6495 352.14C67.6668 346.022 69.5299 343.383 68.9561 323.42C75.0743 342.438 77.7133 344.301 97.6757 343.727C78.6584 349.845 76.7953 352.484 77.369 372.447Z" fill="#193000" stroke="#193000" stroke-width="1.47223" stroke-miterlimit="10"/>
    <path d="M77.2496 372.365C71.1464 353.385 68.5156 351.532 48.5809 352.099C67.5609 345.996 69.4143 343.365 68.8474 323.43C74.9505 342.41 77.5813 344.263 97.516 343.696C78.536 349.8 76.6826 352.43 77.2496 372.365Z" fill="#193000" stroke="#193000" stroke-width="1.47223" stroke-miterlimit="10"/>
    <path d="M77.1297 372.283C71.0416 353.341 68.4108 351.487 48.5299 352.058C67.4725 345.97 69.3259 343.339 68.7547 323.459C74.8428 342.401 77.4736 344.255 97.3545 343.683C78.4118 349.772 76.5584 352.402 77.1297 372.283Z" fill="#193000" stroke="#193000" stroke-width="1.47223" stroke-miterlimit="10"/>
    <path d="M76.9999 372.21C70.9172 353.312 68.3044 351.46 48.4511 352.025C67.3482 345.942 69.2002 343.329 68.6357 323.476C74.7184 342.373 77.3313 344.225 97.1846 343.661C78.2874 349.743 76.4355 352.356 76.9999 372.21Z" fill="#193000" stroke="#193000" stroke-width="1.47223" stroke-miterlimit="10"/>
    <path d="M76.8719 372.118C70.8042 353.258 68.1914 351.406 48.3822 351.983C67.242 345.916 69.094 343.303 68.517 323.494C74.5846 342.353 77.1975 344.205 97.0067 343.628C78.1468 349.696 76.2949 352.309 76.8719 372.118Z" fill="#193000" stroke="#193000" stroke-width="1.47223" stroke-miterlimit="10"/>
    <path d="M76.7525 372.036C70.6999 353.214 68.087 351.362 48.3234 351.934C67.1459 345.881 68.9979 343.268 68.4262 323.505C74.4788 342.327 77.0916 344.179 96.8553 343.607C78.0328 349.66 76.1808 352.273 76.7525 372.036Z" fill="#193000" stroke="#193000" stroke-width="1.47223" stroke-miterlimit="10"/>
    <path d="M76.6325 371.955C70.595 353.169 67.9904 351.327 48.2626 351.902C67.0478 345.864 68.8901 343.259 68.3156 323.532C74.3531 342.317 76.9577 344.159 96.6855 343.585C77.9003 349.622 76.058 352.227 76.6325 371.955Z" fill="#193000" stroke="#193000" stroke-width="1.47223" stroke-miterlimit="10"/>
    <path d="M76.5129 371.873C70.4807 353.133 67.8857 351.283 48.2035 351.852C66.9432 345.82 68.7937 343.225 68.2246 323.542C74.2568 342.282 76.8516 344.133 96.5338 343.563C77.7942 349.596 75.9437 352.191 76.5129 371.873Z" fill="#193000" stroke="#193000" stroke-width="1.47223" stroke-miterlimit="10"/>
    <path d="M76.3831 371.799C70.366 353.097 67.7696 351.264 48.1247 351.818C66.8271 345.801 68.6597 343.205 68.1056 323.56C74.1227 342.262 76.7191 344.095 96.364 343.541C77.6616 349.558 75.829 352.154 76.3831 371.799Z" fill="#193000" stroke="#193000" stroke-width="1.47223" stroke-miterlimit="10"/>
    <path d="M76.2636 371.718C70.2533 353.043 67.6652 351.22 48.0645 351.787C66.7392 345.776 68.5621 343.188 67.9954 323.587C74.0057 342.262 76.5939 344.085 96.1947 343.518C77.5199 349.529 75.697 352.117 76.2636 371.718Z" fill="#193000" stroke="#193000" stroke-width="1.47223" stroke-miterlimit="10"/>
    <path d="M76.1437 371.636C70.1485 352.998 67.5686 351.185 48.0051 351.737C66.6426 345.741 68.4558 343.161 67.9042 323.598C73.8994 342.235 76.4793 344.049 96.0428 343.497C77.4053 349.492 75.5921 352.072 76.1437 371.636Z" fill="#193000" stroke="#193000" stroke-width="1.47223" stroke-miterlimit="10"/>
    <path d="M76.024 371.554C70.0341 352.962 67.4639 351.14 47.9446 351.705C66.5365 345.715 68.3579 343.144 67.7938 323.625C73.7836 342.217 76.3538 344.038 95.8732 343.474C77.2813 349.464 75.4598 352.034 76.024 371.554Z" fill="#193000" stroke="#193000" stroke-width="1.47223" stroke-miterlimit="10"/>
    <path d="M75.9041 371.472C69.9293 352.917 67.3674 351.106 47.8853 351.655C66.4399 345.68 68.2516 343.118 67.7025 323.636C73.6774 342.19 76.2393 344.002 95.7214 343.453C77.1668 349.428 75.355 351.99 75.9041 371.472Z" fill="#193000" stroke="#193000" stroke-width="1.47223" stroke-miterlimit="10"/>
    <path d="M75.7761 371.38C69.8163 352.863 67.2544 351.051 47.8164 351.613C66.3337 345.653 68.1455 343.091 67.5838 323.653C73.5436 342.171 76.1055 343.982 95.5435 343.421C77.0262 349.38 75.2144 351.942 75.7761 371.38Z" fill="#193000" stroke="#193000" stroke-width="1.47223" stroke-miterlimit="10"/>
    <path d="M75.6468 371.307C69.7021 352.827 67.1485 351.025 47.7381 351.58C66.2181 345.635 68.0202 343.081 67.4653 323.671C73.41 342.151 75.9637 343.953 95.374 343.398C76.894 349.343 75.092 351.897 75.6468 371.307Z" fill="#193000" stroke="#193000" stroke-width="1.47223" stroke-miterlimit="10"/>
    <path d="M75.5269 371.225C69.5876 352.791 67.0436 350.98 47.687 351.54C66.1215 345.6 67.9318 343.056 67.3726 323.7C73.312 342.134 75.856 343.944 95.2125 343.385C76.7781 349.325 74.9678 351.869 75.5269 371.225Z" fill="#193000" stroke="#193000" stroke-width="1.47223" stroke-miterlimit="10"/>
    <path d="M75.407 371.143C69.4827 352.746 66.9469 350.945 47.618 351.498C66.0151 345.574 67.8158 343.038 67.2634 323.709C73.1877 342.106 75.7234 343.907 95.0523 343.354C76.6552 349.279 74.8546 351.814 75.407 371.143Z" fill="#193000" stroke="#193000" stroke-width="1.47223" stroke-miterlimit="10"/>
    <path d="M75.2875 371.062C69.3783 352.702 66.8328 350.91 47.5674 351.458C65.9272 345.549 67.7196 343.003 67.1712 323.738C73.0804 342.098 75.6259 343.89 94.8913 343.342C76.5315 349.251 74.7391 351.796 75.2875 371.062Z" fill="#193000" stroke="#193000" stroke-width="1.47223" stroke-miterlimit="10"/>
    <path d="M75.1676 370.98C69.2734 352.657 66.7362 350.875 47.4984 351.416C65.8209 345.522 67.6036 342.985 67.062 323.747C72.9562 342.07 75.4934 343.852 94.7312 343.311C76.4087 349.205 74.626 351.742 75.1676 370.98Z" fill="#193000" stroke="#193000" stroke-width="1.47223" stroke-miterlimit="10"/>
    <path d="M75.0383 370.906C69.1592 352.621 66.622 350.838 47.4283 351.392C65.7135 345.513 67.4962 342.976 66.9421 323.782C72.8212 342.068 75.3583 343.85 94.552 343.296C76.2668 349.175 74.4841 351.713 75.0383 370.906Z" fill="#193000" stroke="#193000" stroke-width="1.47223" stroke-miterlimit="10"/>
    <path d="M74.9184 370.824C69.0447 352.585 66.5172 350.794 47.369 351.342C65.6087 345.469 67.3996 342.941 66.8508 323.793C72.7245 342.033 75.2521 343.824 94.4002 343.275C76.1606 349.149 74.3696 351.676 74.9184 370.824Z" fill="#193000" stroke="#193000" stroke-width="1.47223" stroke-miterlimit="10"/>
    <path d="M74.7984 370.742C68.9398 352.54 66.4205 350.759 47.3082 351.31C65.5106 345.452 67.2919 342.932 66.7402 323.82C72.5988 342.023 75.1181 343.804 94.2304 343.252C76.028 349.111 74.2467 351.63 74.7984 370.742Z" fill="#193000" stroke="#193000" stroke-width="1.47223" stroke-miterlimit="10"/>
    <path d="M74.6707 370.651C68.8271 352.486 66.3079 350.705 47.2411 351.251C65.4062 345.408 67.1874 342.888 66.6411 323.822C72.4847 341.987 75.004 343.768 94.0707 343.222C75.9057 349.065 74.1244 351.584 74.6707 370.651Z" fill="#193000" stroke="#193000" stroke-width="1.47223" stroke-miterlimit="10"/>
    <path d="M74.5507 370.569C68.7222 352.442 66.2112 350.67 47.1803 351.219C65.308 345.391 67.0796 342.88 66.5304 323.849C72.359 341.976 74.87 343.748 93.9009 343.199C75.7731 349.027 74.0015 351.538 74.5507 370.569Z" fill="#193000" stroke="#193000" stroke-width="1.47223" stroke-miterlimit="10"/>
    <path d="M74.4213 370.496C68.5981 352.413 66.0967 350.634 47.1017 351.186C65.1839 345.362 66.9638 342.861 66.4117 323.866C72.2349 341.948 74.7362 343.728 93.7312 343.176C75.649 348.999 73.8692 351.501 74.4213 370.496Z" fill="#193000" stroke="#193000" stroke-width="1.47223" stroke-miterlimit="10"/>
    <path d="M74.3016 370.414C68.4935 352.369 66.0004 350.599 47.0509 351.145C65.0958 345.337 66.866 342.844 66.3193 323.895C72.1274 341.94 74.6205 343.71 93.5699 343.163C75.525 348.971 73.7549 351.464 74.3016 370.414Z" fill="#193000" stroke="#193000" stroke-width="1.47223" stroke-miterlimit="10"/>
    <path d="M74.1819 370.332C68.3888 352.325 65.8957 350.554 46.9821 351.104C64.9897 345.311 66.7599 342.818 66.2103 323.904C72.0034 341.912 74.4964 343.682 93.41 343.132C75.4024 348.926 73.6323 351.419 74.1819 370.332Z" fill="#193000" stroke="#193000" stroke-width="1.47223" stroke-miterlimit="10"/>
    <path d="M74.0622 370.25C68.2842 352.28 65.7897 350.528 46.9313 351.064C64.9016 345.286 66.6538 342.791 66.1178 323.933C71.8959 341.903 74.3904 343.656 93.2487 343.12C75.2785 348.898 73.5262 351.392 74.0622 370.25Z" fill="#193000" stroke="#193000" stroke-width="1.47223" stroke-miterlimit="10"/>
    <path d="M73.9423 370.168C68.1696 352.244 65.6848 350.483 46.8623 351.022C64.787 345.249 66.5475 342.765 66.0086 323.942C71.7813 341.867 74.2661 343.627 93.0886 343.088C75.1639 348.861 73.4034 351.346 73.9423 370.168Z" fill="#193000" stroke="#193000" stroke-width="1.47223" stroke-miterlimit="10"/>
    <path d="M73.8223 370.087C68.0647 352.199 65.5881 350.448 46.8015 350.99C64.6889 345.232 66.4397 342.756 65.898 323.969C71.6556 341.857 74.1322 343.607 92.9188 343.066C75.0313 348.823 73.2806 351.3 73.8223 370.087Z" fill="#193000" stroke="#193000" stroke-width="1.47223" stroke-miterlimit="10"/>
    <path d="M73.6929 370.013C67.9503 352.163 65.4738 350.412 46.7327 350.948C64.5828 345.206 66.3336 342.729 65.7972 323.988C71.5398 341.838 74.0164 343.589 92.7574 343.053C74.9073 348.795 73.1565 351.272 73.6929 370.013Z" fill="#193000" stroke="#193000" stroke-width="1.47223" stroke-miterlimit="10"/>
    <path d="M73.5651 369.922C67.8376 352.109 65.3693 350.368 46.6641 350.907C64.4769 345.18 66.2179 342.711 65.6787 324.006C71.4062 341.819 73.8746 343.56 92.5798 343.021C74.767 348.748 73.0258 351.217 73.5651 369.922Z" fill="#193000" stroke="#193000" stroke-width="1.47223" stroke-miterlimit="10"/>
    <path d="M73.4452 369.84C67.7327 352.064 65.2644 350.323 46.6048 350.857C64.3803 345.145 66.1214 342.676 65.5875 324.017C71.2999 341.792 73.7683 343.533 92.4279 342.999C74.6524 348.712 72.9113 351.18 73.4452 369.84Z" fill="#193000" stroke="#193000" stroke-width="1.47223" stroke-miterlimit="10"/>
    <path d="M73.3252 369.758C67.6181 352.028 65.1677 350.288 46.5357 350.815C64.2657 345.108 66.0053 342.658 65.4783 324.026C71.1854 341.756 73.6357 343.496 92.2678 342.969C74.5378 348.676 72.7982 351.126 73.3252 369.758Z" fill="#193000" stroke="#193000" stroke-width="1.47223" stroke-miterlimit="10"/>
    <path d="M73.2055 369.676C67.5135 351.983 65.063 350.244 46.4751 350.783C64.1678 345.091 65.9075 342.641 65.3679 324.053C71.0599 341.746 73.5103 343.485 92.0982 342.946C74.4055 348.638 72.6659 351.088 73.2055 369.676Z" fill="#193000" stroke="#193000" stroke-width="1.47223" stroke-miterlimit="10"/>
    <path d="M73.0763 369.603C67.3993 351.947 64.9572 350.217 46.4065 350.742C64.0619 345.065 65.7919 342.623 65.2673 324.072C70.9443 341.728 73.3865 343.458 91.9371 342.933C74.2817 348.61 72.5517 351.052 73.0763 369.603Z" fill="#193000" stroke="#193000" stroke-width="1.47223" stroke-miterlimit="10"/>
    <path d="M72.9563 369.521C67.2944 351.903 64.8425 350.181 46.3457 350.71C63.9638 345.048 65.6855 342.596 65.1567 324.099C70.8186 341.717 73.2704 343.439 91.7672 342.91C74.1492 348.572 72.4274 351.024 72.9563 369.521Z" fill="#193000" stroke="#193000" stroke-width="1.47223" stroke-miterlimit="10"/>
    <path d="M72.8364 369.439C67.1799 351.867 64.7377 350.137 46.2865 350.66C63.859 345.004 65.5889 342.561 65.0654 324.11C70.722 341.683 73.1642 343.413 91.6154 342.889C74.0429 348.546 72.3129 350.988 72.8364 369.439Z" fill="#193000" stroke="#193000" stroke-width="1.47223" stroke-miterlimit="10"/>
    <path d="M72.7167 369.357C67.0752 351.822 64.6413 350.102 46.2259 350.628C63.7611 344.986 65.4814 342.553 64.955 324.137C70.5965 341.672 73.0304 343.393 91.4458 342.866C73.9106 348.508 72.1903 350.942 72.7167 369.357Z" fill="#193000" stroke="#193000" stroke-width="1.47223" stroke-miterlimit="10"/>
    <path d="M72.5972 369.276C66.9625 351.768 64.5369 350.057 46.1574 350.587C63.6649 344.952 65.3755 342.526 64.8463 324.147C70.481 341.654 72.9066 343.365 91.2861 342.836C73.7786 348.47 72.0679 350.896 72.5972 369.276Z" fill="#193000" stroke="#193000" stroke-width="1.47223" stroke-miterlimit="10"/>
    <path d="M72.469 369.184C66.8494 351.714 64.432 350.013 46.098 350.537C63.5683 344.917 65.2692 342.5 64.7453 324.166C70.3649 341.636 72.7824 343.337 91.1163 342.813C73.6461 348.433 71.9451 350.85 72.469 369.184Z" fill="#193000" stroke="#193000" stroke-width="1.47223" stroke-miterlimit="10"/>
    <path d="M72.3395 369.11C66.7253 351.686 64.3176 349.976 46.0195 350.503C63.4442 344.889 65.1533 342.481 64.6266 324.183C70.2408 341.608 72.6485 343.317 90.9466 342.79C73.5219 348.405 71.8128 350.812 72.3395 369.11Z" fill="#193000" stroke="#193000" stroke-width="1.47223" stroke-miterlimit="10"/>
    <path d="M72.2201 369.029C66.6209 351.642 64.2214 349.942 45.9689 350.463C63.3563 344.864 65.0558 342.465 64.5344 324.212C70.1336 341.6 72.533 343.299 90.7856 342.778C73.3982 348.377 71.6987 350.776 72.2201 369.029Z" fill="#193000" stroke="#193000" stroke-width="1.47223" stroke-miterlimit="10"/>
    <path d="M72.1002 368.947C66.516 351.597 64.1166 349.897 45.8999 350.422C63.25 344.838 64.9494 342.438 64.4252 324.221C70.0093 341.572 72.4088 343.271 90.6255 342.747C73.2754 348.331 71.5759 350.73 72.1002 368.947Z" fill="#193000" stroke="#193000" stroke-width="1.47223" stroke-miterlimit="10"/>
    <path d="M71.9801 368.865C66.4111 351.552 64.0198 349.863 45.839 350.39C63.1518 344.821 64.8416 342.429 64.3145 324.249C69.8835 341.561 72.2748 343.251 90.4556 342.724C73.1428 348.293 71.453 350.684 71.9801 368.865Z" fill="#193000" stroke="#193000" stroke-width="1.47223" stroke-miterlimit="10"/>
    <path d="M71.8605 368.783C66.2968 351.516 63.9152 349.818 45.7799 350.34C63.0472 344.776 64.7453 342.395 64.2235 324.259C69.7872 341.527 72.1687 343.225 90.304 342.703C73.0367 348.266 71.3387 350.648 71.8605 368.783Z" fill="#193000" stroke="#193000" stroke-width="1.47223" stroke-miterlimit="10"/>
    <path d="M71.731 368.71C66.1824 351.48 63.7994 349.8 45.7097 350.316C62.9396 344.767 64.6197 342.384 64.1033 324.295C69.652 341.525 72.035 343.205 90.1247 342.688C72.8947 348.237 71.2146 350.62 71.731 368.71Z" fill="#193000" stroke="#193000" stroke-width="1.47223" stroke-miterlimit="10"/>
    <path d="M71.6111 368.628C66.0775 351.436 63.6945 349.755 45.6504 350.266C62.843 344.733 64.5231 342.35 64.0121 324.306C69.5457 341.498 71.9286 343.178 89.9728 342.667C72.7802 348.201 71.1001 350.584 71.6111 368.628Z" fill="#193000" stroke="#193000" stroke-width="1.47223" stroke-miterlimit="10"/>
    <path d="M71.4913 368.546C65.9728 351.391 63.5981 349.721 45.5898 350.234C62.7451 344.716 64.4156 342.341 63.9017 324.333C69.4202 341.488 71.7949 343.159 89.8032 342.645C72.6479 348.163 70.9774 350.538 71.4913 368.546Z" fill="#193000" stroke="#193000" stroke-width="1.47223" stroke-miterlimit="10"/>
    <path d="M71.3633 368.455C65.8598 351.337 63.4851 349.666 45.5127 350.183C62.6307 344.679 64.3012 342.305 63.7844 324.332C69.2879 341.45 71.6626 343.121 89.635 342.604C72.517 348.107 70.8465 350.482 71.3633 368.455Z" fill="#193000" stroke="#193000" stroke-width="1.47223" stroke-miterlimit="10"/>
    <path d="M71.2434 368.373C65.7453 351.3 63.3885 349.631 45.4616 350.143C62.5341 344.645 64.2031 342.288 63.6917 324.361C69.1898 341.433 71.5466 343.102 89.4735 342.591C72.401 348.089 70.732 350.446 71.2434 368.373Z" fill="#193000" stroke="#193000" stroke-width="1.47223" stroke-miterlimit="10"/>
    <path d="M71.1142 368.299C65.6312 351.264 63.2743 349.595 45.3833 350.11C62.4185 344.627 64.0875 342.27 63.5732 324.379C69.0562 341.414 71.4131 343.083 89.3041 342.569C72.2689 348.052 70.5999 350.408 71.1142 368.299Z" fill="#193000" stroke="#193000" stroke-width="1.47223" stroke-miterlimit="10"/>
    <path d="M70.9943 368.218C65.5263 351.22 63.1695 349.551 45.3323 350.069C62.3302 344.601 63.9991 342.245 63.4805 324.407C68.9485 341.405 71.3053 343.074 89.1425 342.556C72.1447 348.024 70.4757 350.38 70.9943 368.218Z" fill="#193000" stroke="#193000" stroke-width="1.47223" stroke-miterlimit="10"/>
    <path d="M70.8746 368.136C65.4216 351.175 63.0731 349.516 45.2635 350.028C62.2241 344.575 63.8833 342.226 63.3715 324.417C68.8245 341.377 71.1731 343.036 88.9827 342.525C72.0221 347.978 70.3628 350.326 70.8746 368.136Z" fill="#193000" stroke="#193000" stroke-width="1.47223" stroke-miterlimit="10"/>
    <path d="M70.7548 368.054C65.3073 351.139 62.9684 349.471 45.2029 349.996C62.1179 344.548 63.7855 342.209 63.2611 324.444C68.7087 341.359 71.0476 343.026 88.8131 342.502C71.898 347.949 70.2305 350.288 70.7548 368.054Z" fill="#193000" stroke="#193000" stroke-width="1.47223" stroke-miterlimit="10"/>
    <path d="M70.635 367.972C65.2025 351.094 62.8621 349.445 45.1436 349.946C62.0213 344.513 63.671 342.173 63.1699 324.454C68.6024 341.332 70.9427 342.982 88.6612 342.481C71.7835 347.913 70.1339 350.253 70.635 367.972Z" fill="#193000" stroke="#193000" stroke-width="1.47223" stroke-miterlimit="10"/>
    <path d="M70.5155 367.89C65.098 351.05 62.7577 349.4 45.0833 349.914C61.9237 344.497 63.5733 342.156 63.0597 324.482C68.4772 341.322 70.8175 342.972 88.4919 342.458C71.6515 347.876 70.0018 350.216 70.5155 367.89Z" fill="#193000" stroke="#193000" stroke-width="1.47223" stroke-miterlimit="10"/>
    <path d="M70.3857 367.817C64.9833 351.014 62.6513 349.374 45.0045 349.88C61.8076 344.478 63.4475 342.146 62.9407 324.499C68.3431 341.302 70.6752 342.942 88.3219 342.435C71.5188 347.838 69.8789 350.17 70.3857 367.817Z" fill="#193000" stroke="#193000" stroke-width="1.47223" stroke-miterlimit="10"/>
    <path d="M70.2577 367.725C64.8607 350.968 62.5383 349.319 44.9371 349.821C61.6947 344.424 63.3429 342.101 62.8415 324.5C68.2385 341.258 70.5608 342.906 88.1621 342.405C71.4045 347.802 69.7563 350.124 70.2577 367.725Z" fill="#193000" stroke="#193000" stroke-width="1.47223" stroke-miterlimit="10"/>
    <path d="M70.1378 367.643C64.7558 350.923 62.4417 349.285 44.8764 349.789C61.5966 344.407 63.2351 342.093 62.7308 324.527C68.1127 341.248 70.4269 342.886 87.9922 342.382C71.272 347.764 69.6335 350.078 70.1378 367.643Z" fill="#193000" stroke="#193000" stroke-width="1.47223" stroke-miterlimit="10"/>
    <path d="M70.0184 367.562C64.6515 350.879 62.3373 349.24 44.8175 349.739C61.5005 344.372 63.139 342.058 62.64 324.538C68.0069 341.221 70.3211 342.86 87.8409 342.361C71.1579 347.728 69.5195 350.042 70.0184 367.562Z" fill="#193000" stroke="#193000" stroke-width="1.47223" stroke-miterlimit="10"/>
    <path d="M69.8984 367.48C64.5466 350.834 62.2407 349.205 44.7567 349.707C61.4024 344.355 63.0312 342.049 62.5294 324.566C67.8812 341.211 70.1871 342.84 87.671 342.338C71.0253 347.69 69.3966 349.996 69.8984 367.48Z" fill="#193000" stroke="#193000" stroke-width="1.47223" stroke-miterlimit="10"/>
    <path d="M69.7689 367.406C64.4321 350.798 62.1263 349.169 44.6782 349.674C61.2865 344.337 62.9153 342.031 62.4106 324.583C67.7474 341.191 70.0533 342.82 87.5014 342.316C70.8931 347.652 69.2642 349.958 69.7689 367.406Z" fill="#193000" stroke="#193000" stroke-width="1.47223" stroke-miterlimit="10"/>
    <path d="M69.649 367.324C64.3176 350.762 62.0296 349.134 44.6271 349.634C61.1899 344.302 62.8173 342.014 62.318 324.612C67.6494 341.174 69.9373 342.802 87.3398 342.302C70.777 347.634 69.1497 349.922 69.649 367.324Z" fill="#193000" stroke="#193000" stroke-width="1.47223" stroke-miterlimit="10"/>
    <path d="M69.5295 367.243C64.2132 350.717 61.9252 349.09 44.5585 349.592C61.084 344.276 62.7114 341.988 62.2092 324.621C67.5256 341.147 69.8135 342.774 87.1802 342.272C70.6547 347.588 69.0273 349.876 69.5295 367.243Z" fill="#193000" stroke="#193000" stroke-width="1.47223" stroke-miterlimit="10"/>
    <path d="M69.4099 367.161C64.1086 350.673 61.8191 349.063 44.5077 349.552C60.9959 344.251 62.6054 341.961 62.1168 324.65C67.4181 341.138 69.7075 342.747 87.0189 342.259C70.5307 347.56 68.9213 349.85 69.4099 367.161Z" fill="#193000" stroke="#193000" stroke-width="1.47223" stroke-miterlimit="10"/>
    <path d="M69.2899 367.079C64.0036 350.628 61.7143 349.019 44.4387 349.51C60.8896 344.224 62.499 341.935 62.0076 324.659C67.2938 341.11 69.5832 342.719 86.8587 342.228C70.4079 347.514 68.7984 349.803 69.2899 367.079Z" fill="#193000" stroke="#193000" stroke-width="1.47223" stroke-miterlimit="10"/>
    <path d="M69.1621 366.988C63.8812 350.582 61.6097 348.974 44.3701 349.469C60.7754 344.188 62.3834 341.916 61.8891 324.677C67.17 341.082 69.4414 342.69 86.6811 342.196C70.2758 347.477 68.6678 349.748 69.1621 366.988Z" fill="#193000" stroke="#193000" stroke-width="1.47223" stroke-miterlimit="10"/>
    <path d="M69.0325 366.914C63.7666 350.546 61.4952 348.938 44.301 349.427C60.6691 344.161 62.277 341.89 61.7881 324.696C67.0539 341.064 69.3254 342.672 86.5195 342.183C70.1515 347.449 68.5435 349.72 69.0325 366.914Z" fill="#193000" stroke="#193000" stroke-width="1.47223" stroke-miterlimit="10"/>
    <path d="M68.9127 366.832C63.6537 350.492 61.3905 348.894 44.2405 349.395C60.5809 344.136 62.1792 341.873 61.6777 324.723C66.9367 341.063 69.1999 342.662 86.3499 342.16C70.0095 347.419 68.4112 349.682 68.9127 366.832Z" fill="#193000" stroke="#193000" stroke-width="1.47223" stroke-miterlimit="10"/>
    <path d="M68.7928 366.75C63.5488 350.447 61.2939 348.859 44.1812 349.345C60.4843 344.101 62.0729 341.846 61.5864 324.734C66.8304 341.037 69.0853 342.625 86.198 342.139C69.8949 347.383 68.3063 349.638 68.7928 366.75Z" fill="#193000" stroke="#193000" stroke-width="1.47223" stroke-miterlimit="10"/>
    <path d="M68.6731 366.668C63.4345 350.411 61.1892 348.814 44.1206 349.313C60.3782 344.075 61.975 341.829 61.476 324.761C66.7146 341.018 68.9599 342.615 86.0285 342.116C69.7709 347.355 68.1741 349.6 68.6731 366.668Z" fill="#193000" stroke="#193000" stroke-width="1.47223" stroke-miterlimit="10"/>
    <path d="M68.5536 366.587C63.3301 350.367 61.0931 348.78 44.0521 349.272C60.2723 344.048 61.8595 341.811 61.3673 324.77C66.5908 340.99 68.8279 342.578 85.8688 342.085C69.6486 347.309 68.0614 349.546 68.5536 366.587Z" fill="#193000" stroke="#193000" stroke-width="1.47223" stroke-miterlimit="10"/>
    <path d="M68.4239 366.513C63.2154 350.33 60.9784 348.743 43.9912 349.24C60.1741 344.031 61.7613 341.794 61.2648 324.807C66.4733 340.99 68.7103 342.577 85.6975 342.081C69.5146 347.289 67.9274 349.526 68.4239 366.513Z" fill="#193000" stroke="#193000" stroke-width="1.47223" stroke-miterlimit="10"/>
    <path d="M68.304 366.431C63.1106 350.286 60.8721 348.717 43.9222 349.198C60.0678 344.005 61.6371 341.766 61.1556 324.816C66.349 340.962 68.5875 342.531 85.5374 342.05C69.3918 347.243 67.8225 349.482 68.304 366.431Z" fill="#193000" stroke="#193000" stroke-width="1.47223" stroke-miterlimit="10"/>
    <path d="M68.1843 366.35C62.9962 350.25 60.7674 348.672 43.8714 349.158C59.9714 343.97 61.5489 341.741 61.0632 324.845C66.2512 340.945 68.48 342.522 85.3761 342.037C69.276 347.225 67.6985 349.454 68.1843 366.35Z" fill="#193000" stroke="#193000" stroke-width="1.47223" stroke-miterlimit="10"/>
    <path d="M68.0562 366.258C62.8833 350.196 60.6627 348.628 43.7943 349.107C59.857 343.934 61.4249 341.713 60.9459 324.845C66.1189 340.908 68.3394 342.475 85.2079 341.996C69.1451 347.169 67.5773 349.39 68.0562 366.258Z" fill="#193000" stroke="#193000" stroke-width="1.47223" stroke-miterlimit="10"/>
    <path d="M67.9366 366.176C62.7786 350.151 60.5581 348.583 43.7337 349.075C59.7592 343.917 61.327 341.696 60.8355 324.872C65.9934 340.897 68.2139 342.465 85.0383 341.974C69.0128 347.132 67.445 349.352 67.9366 366.176Z" fill="#193000" stroke="#193000" stroke-width="1.47223" stroke-miterlimit="10"/>
    <path d="M67.8071 366.103C62.6643 350.115 60.452 348.556 43.6649 349.033C59.6531 343.89 61.2112 341.678 60.7347 324.891C65.8776 340.879 68.0899 342.437 84.8769 341.961C68.8888 347.103 67.3307 349.316 67.8071 366.103Z" fill="#193000" stroke="#193000" stroke-width="1.47223" stroke-miterlimit="10"/>
    <path d="M67.6872 366.021C62.5593 350.07 60.347 348.512 43.6041 349.001C59.555 343.873 61.1131 341.661 60.6241 324.918C65.7519 340.869 67.9641 342.427 84.7071 341.938C68.7562 347.066 67.1981 349.278 67.6872 366.021Z" fill="#193000" stroke="#193000" stroke-width="1.47223" stroke-miterlimit="10"/>
    <path d="M67.5673 365.939C62.4448 350.034 60.2505 348.477 43.5448 348.951C59.4502 343.829 61.0068 341.634 60.5328 324.929C65.6553 340.834 67.8497 342.391 84.5553 341.917C68.65 347.039 67.0933 349.233 67.5673 365.939Z" fill="#193000" stroke="#193000" stroke-width="1.47223" stroke-miterlimit="10"/>
    <path d="M67.4478 365.858C62.3404 349.99 60.146 348.433 43.4845 348.919C59.3525 343.812 60.9092 341.618 60.4226 324.956C65.53 340.824 67.7244 342.381 84.3859 341.894C68.5179 347.002 66.9612 349.196 67.4478 365.858Z" fill="#193000" stroke="#193000" stroke-width="1.47223" stroke-miterlimit="10"/>
    <path d="M67.3278 365.776C62.2355 349.945 60.0494 348.398 43.4155 348.878C59.2462 343.786 60.7932 341.599 60.3134 324.965C65.4058 340.796 67.5919 342.343 84.2258 341.863C68.395 346.956 66.8481 349.142 67.3278 365.776Z" fill="#193000" stroke="#193000" stroke-width="1.47223" stroke-miterlimit="10"/>
    <path d="M67.2082 365.694C62.1309 349.9 59.9447 348.353 43.3646 348.837C59.158 343.76 60.705 341.574 60.221 324.994C65.2983 340.787 67.4844 342.334 84.0645 341.85C68.2711 346.928 66.7241 349.114 67.2082 365.694Z" fill="#193000" stroke="#193000" stroke-width="1.47223" stroke-miterlimit="10"/>
    <path d="M67.0784 365.62C62.0065 349.872 59.8204 348.325 43.2858 348.804C59.0337 343.732 60.5807 341.546 60.102 325.012C65.1739 340.759 67.36 342.306 83.8946 341.828C68.1467 346.9 66.5997 349.086 67.0784 365.62Z" fill="#193000" stroke="#193000" stroke-width="1.47223" stroke-miterlimit="10"/>
    <path d="M66.9509 365.529C61.8941 349.818 59.7162 348.281 43.219 348.745C58.9295 343.688 60.4668 341.51 60.0032 325.013C65.0601 340.723 67.2379 342.261 83.7352 341.797C68.0246 346.854 66.4873 349.032 66.9509 365.529Z" fill="#193000" stroke="#193000" stroke-width="1.47223" stroke-miterlimit="10"/>
    <path d="M66.8307 365.447C61.7889 349.774 59.611 348.237 43.1579 348.713C58.8311 343.671 60.3685 341.493 59.8923 325.04C64.9341 340.713 67.1119 342.251 83.565 341.774C67.8918 346.816 66.3545 348.994 66.8307 365.447Z" fill="#193000" stroke="#193000" stroke-width="1.47223" stroke-miterlimit="10"/>
    <path d="M66.711 365.365C61.6843 349.729 59.5146 348.202 43.0891 348.671C58.7251 343.644 60.2527 341.475 59.7833 325.049C64.8101 340.685 66.9797 342.213 83.4052 341.743C67.7693 346.77 66.2416 348.94 66.711 365.365Z" fill="#193000" stroke="#193000" stroke-width="1.47223" stroke-miterlimit="10"/>
    <path d="M66.5911 365.283C61.5697 349.693 59.4098 348.157 43.0381 348.631C58.6284 343.609 60.1643 341.449 59.6906 325.078C64.712 340.668 66.8719 342.204 83.2436 341.73C67.6532 346.752 66.1174 348.912 66.5911 365.283Z" fill="#193000" stroke="#193000" stroke-width="1.47223" stroke-miterlimit="10"/>
    <path d="M66.4618 365.21C61.4555 349.657 59.3038 348.131 42.9598 348.598C58.5128 343.591 60.039 341.44 59.5722 325.096C64.5785 340.649 66.7301 342.175 83.0742 341.708C67.5211 346.714 65.9949 348.866 66.4618 365.21Z" fill="#193000" stroke="#193000" stroke-width="1.47223" stroke-miterlimit="10"/>
    <path d="M66.3422 365.128C61.3509 349.612 59.1992 348.086 42.9089 348.557C58.4247 343.566 59.9509 341.415 59.4797 325.124C64.471 340.64 66.6226 342.166 82.9129 341.695C67.3971 346.686 65.871 348.838 66.3422 365.128Z" fill="#193000" stroke="#193000" stroke-width="1.47223" stroke-miterlimit="10"/>
    <path d="M66.2222 365.046C61.246 349.568 59.1026 348.051 42.8399 348.516C58.3184 343.54 59.8349 341.396 59.3705 325.133C64.3467 340.612 66.4901 342.128 82.7528 341.664C67.2743 346.64 65.7578 348.784 66.2222 365.046Z" fill="#193000" stroke="#193000" stroke-width="1.47223" stroke-miterlimit="10"/>
    <path d="M66.1022 364.964C61.1411 349.523 58.9977 348.007 42.7791 348.484C58.2203 343.523 59.7368 341.379 59.2598 325.161C64.221 340.602 66.3644 342.118 82.583 341.641C67.1418 346.602 65.6253 348.746 66.1022 364.964Z" fill="#193000" stroke="#193000" stroke-width="1.47223" stroke-miterlimit="10"/>
    <path d="M65.9828 364.883C61.027 349.487 58.8919 347.98 42.7203 348.434C58.1159 343.478 59.6227 341.343 59.1691 325.172C64.1249 340.567 66.26 342.074 82.4316 341.62C67.036 346.576 65.5292 348.711 65.9828 364.883Z" fill="#193000" stroke="#193000" stroke-width="1.47223" stroke-miterlimit="10"/>
    <path d="M65.8548 364.791C60.9141 349.433 58.7789 347.926 42.6515 348.392C58.0098 343.452 59.5166 341.317 59.0503 325.189C63.9911 340.547 66.1263 342.054 82.2537 341.588C66.8954 346.529 65.3886 348.664 65.8548 364.791Z" fill="#193000" stroke="#193000" stroke-width="1.47223" stroke-miterlimit="10"/>
    <path d="M65.7251 364.718C60.7994 349.397 58.6725 347.9 42.5823 348.351C57.9033 343.425 59.4005 341.298 58.9493 325.208C63.875 340.529 66.0019 342.026 82.0921 341.575C66.7711 346.501 65.2739 348.628 65.7251 364.718Z" fill="#193000" stroke="#193000" stroke-width="1.47223" stroke-miterlimit="10"/>
    <path d="M65.6052 364.636C60.6946 349.352 58.5676 347.855 42.5216 348.319C57.8053 343.408 59.3024 341.281 58.8387 325.235C63.7493 340.519 65.8762 342.016 81.9223 341.552C66.6386 346.463 65.1414 348.59 65.6052 364.636Z" fill="#193000" stroke="#193000" stroke-width="1.47223" stroke-miterlimit="10"/>
    <path d="M65.4857 364.554C60.5805 349.316 58.4714 347.82 42.453 348.277C57.6912 343.372 59.1869 341.263 58.73 325.245C63.6352 340.483 65.7442 341.979 81.7626 341.522C66.5244 346.427 65.0288 348.536 65.4857 364.554Z" fill="#193000" stroke="#193000" stroke-width="1.47223" stroke-miterlimit="10"/>
    <path d="M65.366 364.472C60.4675 349.262 58.3668 347.776 42.4022 348.237C57.6127 343.339 59.0987 341.238 58.6375 325.273C63.5359 340.484 65.6367 341.97 81.6013 341.509C66.3908 346.407 64.9047 348.508 65.366 364.472Z" fill="#193000" stroke="#193000" stroke-width="1.47223" stroke-miterlimit="10"/>
    <path d="M65.2461 364.39C60.3627 349.217 58.2702 347.741 42.3332 348.195C57.5064 343.312 58.9827 341.219 58.5283 325.282C63.4117 340.456 65.5042 341.932 81.4412 341.478C66.268 346.361 64.7916 348.453 65.2461 364.39Z" fill="#193000" stroke="#193000" stroke-width="1.47223" stroke-miterlimit="10"/>
    <path d="M65.1166 364.317C60.2483 349.181 58.1558 347.705 42.2726 348.163C57.4085 343.295 58.8848 341.203 58.4261 325.319C63.2944 340.455 65.3869 341.932 81.2701 341.473C66.1342 346.341 64.6579 348.434 65.1166 364.317Z" fill="#193000" stroke="#193000" stroke-width="1.47223" stroke-miterlimit="10"/>
    <path d="M64.9971 364.235C60.1342 349.145 58.0514 347.66 42.204 348.122C57.2944 343.259 58.779 341.176 58.3174 325.329C63.1803 340.419 65.2631 341.904 81.1104 341.442C66.0201 346.305 64.5355 348.388 64.9971 364.235Z" fill="#193000" stroke="#193000" stroke-width="1.47223" stroke-miterlimit="10"/>
    <path d="M64.8689 364.144C60.021 349.091 57.9464 347.616 42.1349 348.08C57.188 343.232 58.6629 341.158 58.1984 325.346C63.0463 340.399 65.1209 341.874 80.9323 341.41C65.8793 346.258 64.4044 348.332 64.8689 364.144Z" fill="#193000" stroke="#193000" stroke-width="1.47223" stroke-miterlimit="10"/>
    <path d="M64.7492 364.062C59.9164 349.046 57.8321 347.579 42.0759 348.03C57.0917 343.198 58.5583 341.113 58.1074 325.357C62.9402 340.373 65.0245 341.839 80.7808 341.389C65.765 346.221 64.2983 348.306 64.7492 364.062Z" fill="#193000" stroke="#193000" stroke-width="1.47223" stroke-miterlimit="10"/>
    <path d="M64.6292 363.98C59.8114 349.001 57.7354 347.545 42.015 347.998C56.9935 343.18 58.4505 341.105 57.9967 325.384C62.8145 340.363 64.8905 341.82 80.6109 341.366C65.6324 346.184 64.1755 348.26 64.6292 363.98Z" fill="#193000" stroke="#193000" stroke-width="1.47223" stroke-miterlimit="10"/>
    <path d="M64.4998 363.906C59.6874 348.973 57.6211 347.508 41.9462 347.957C56.8792 343.144 58.3444 341.078 57.896 325.403C62.7084 340.336 64.7748 341.801 80.4496 341.353C65.5167 346.165 64.0515 348.232 64.4998 363.906Z" fill="#193000" stroke="#193000" stroke-width="1.47223" stroke-miterlimit="10"/>
    <path d="M64.3801 363.825C59.5827 348.929 57.5246 347.474 41.8857 347.925C56.7813 343.128 58.2368 341.07 57.7856 325.431C62.5829 340.326 64.641 341.782 80.2799 341.33C65.3843 346.128 63.9288 348.186 64.3801 363.825Z" fill="#193000" stroke="#193000" stroke-width="1.47223" stroke-miterlimit="10"/>
    <path d="M64.2603 363.743C59.478 348.885 57.42 347.429 41.8169 347.883C56.6752 343.101 58.1307 341.043 57.6766 325.44C62.4589 340.298 64.517 341.754 80.12 341.299C65.2617 346.082 63.8062 348.14 64.2603 363.743Z" fill="#193000" stroke="#193000" stroke-width="1.47223" stroke-miterlimit="10"/>
    <path d="M64.1407 363.661C59.3735 348.84 57.3236 347.394 41.7661 347.843C56.5871 343.076 58.0329 341.026 57.5841 325.468C62.3514 340.289 64.4012 341.735 79.9587 341.286C65.1377 346.054 63.6919 348.103 64.1407 363.661Z" fill="#193000" stroke="#193000" stroke-width="1.47223" stroke-miterlimit="10"/>
    <path d="M64.0207 363.579C59.2686 348.795 57.2187 347.35 41.6971 347.801C56.4807 343.049 57.9266 340.999 57.4749 325.478C62.2271 340.261 64.277 341.707 79.7986 341.255C65.0149 346.008 63.5691 348.057 64.0207 363.579Z" fill="#193000" stroke="#193000" stroke-width="1.47223" stroke-miterlimit="10"/>
    <path d="M63.9011 363.498C59.1543 348.759 57.1224 347.315 41.638 347.752C56.3761 343.005 57.8205 340.973 57.384 325.489C62.1308 340.227 64.1626 341.671 79.647 341.234C64.9089 345.981 63.4645 348.013 63.9011 363.498Z" fill="#193000" stroke="#193000" stroke-width="1.47223" stroke-miterlimit="10"/>
    <path d="M63.7633 363.414C59.0315 348.713 56.9996 347.269 41.5594 347.718C56.2602 342.986 57.7046 340.955 57.2554 325.514C61.9872 340.215 64.0191 341.66 79.4593 341.21C64.7585 345.942 63.3141 347.974 63.7633 363.414Z" fill="#193000" stroke="#193000" stroke-width="1.47223" stroke-miterlimit="10"/>
    <path d="M63.6433 363.332C58.9266 348.669 56.8933 347.242 41.4904 347.676C56.1539 342.96 57.5803 340.926 57.1462 325.523C61.8629 340.187 63.8963 341.613 79.2993 341.179C64.6357 345.896 63.2092 347.929 63.6433 363.332Z" fill="#193000" stroke="#193000" stroke-width="1.47223" stroke-miterlimit="10"/>
    <path d="M63.5236 363.25C58.822 348.624 56.7887 347.198 41.4395 347.636C56.0657 342.935 57.4922 340.901 57.0538 325.552C61.7554 340.178 63.7888 341.605 79.1379 341.166C64.5117 345.868 63.0852 347.901 63.5236 363.25Z" fill="#193000" stroke="#193000" stroke-width="1.47223" stroke-miterlimit="10"/>
    <path d="M63.4042 363.169C58.7079 348.588 56.6925 347.163 41.371 347.595C55.9516 342.899 57.3767 340.883 56.9451 325.562C61.6413 340.142 63.6567 341.567 78.9783 341.136C64.3976 345.832 62.9726 347.847 63.4042 363.169Z" fill="#193000" stroke="#193000" stroke-width="1.47223" stroke-miterlimit="10"/>
    <path d="M63.2843 363.087C58.6031 348.544 56.5876 347.119 41.3199 347.555C55.8633 342.873 57.2883 340.858 56.8524 325.59C61.5336 340.134 63.549 341.559 78.8167 341.123C64.2734 345.804 62.8484 347.819 63.2843 363.087Z" fill="#193000" stroke="#193000" stroke-width="1.47223" stroke-miterlimit="10"/>
    <path d="M63.1548 363.013C58.4886 348.507 56.4732 347.082 41.2413 347.521C55.7474 342.855 57.1724 340.84 56.7337 325.608C61.3998 340.114 63.4152 341.539 78.6471 341.1C64.141 345.766 62.716 347.782 63.1548 363.013Z" fill="#193000" stroke="#193000" stroke-width="1.47223" stroke-miterlimit="10"/>
    <path d="M63.0348 362.931C58.3837 348.463 56.3765 347.047 41.1805 347.489C55.6493 342.838 57.0646 340.831 56.623 325.635C61.2741 340.104 63.2812 341.519 78.4772 341.077C64.0084 345.728 62.5931 347.735 63.0348 362.931Z" fill="#193000" stroke="#193000" stroke-width="1.47223" stroke-miterlimit="10"/>
    <path d="M62.9154 362.85C58.2697 348.427 56.2722 347.003 41.1217 347.439C55.5449 342.794 56.9685 340.796 56.5322 325.646C61.178 340.069 63.1755 341.493 78.3259 341.056C63.9027 345.702 62.4791 347.7 62.9154 362.85Z" fill="#193000" stroke="#193000" stroke-width="1.47223" stroke-miterlimit="10"/>
    <path d="M62.7954 362.768C58.1647 348.382 56.1755 346.968 41.0609 347.407C55.4468 342.777 56.8607 340.788 56.4216 325.673C61.0522 340.059 63.0414 341.473 78.156 341.034C63.7701 345.664 62.3562 347.654 62.7954 362.768Z" fill="#193000" stroke="#193000" stroke-width="1.47223" stroke-miterlimit="10"/>
    <path d="M62.6672 362.677C58.0516 348.328 56.0623 346.914 40.9933 347.348C55.3419 342.732 56.7558 340.743 56.322 325.674C60.9377 340.023 62.9269 341.437 77.9959 341.003C63.6473 345.618 62.2334 347.608 62.6672 362.677Z" fill="#193000" stroke="#193000" stroke-width="1.47223" stroke-miterlimit="10"/>
    <path d="M62.5377 362.603C57.9371 348.292 55.9562 346.887 40.923 347.324C55.2343 342.723 56.6385 340.742 56.2019 325.709C60.8024 340.021 62.7834 341.425 77.8166 340.988C63.5053 345.589 62.101 347.57 62.5377 362.603Z" fill="#193000" stroke="#193000" stroke-width="1.47223" stroke-miterlimit="10"/>
    <path d="M62.4182 362.521C57.8327 348.247 55.8421 346.851 40.8545 347.283C55.1285 342.697 56.5244 340.707 56.0931 325.719C60.6786 339.993 62.6693 341.389 77.6569 340.958C63.3829 345.543 61.9869 347.534 62.4182 362.521Z" fill="#193000" stroke="#193000" stroke-width="1.47223" stroke-miterlimit="10"/>
    <path d="M62.2985 362.439C57.7184 348.211 55.7457 346.817 40.8036 347.242C55.0321 342.662 56.4266 340.69 56.0007 325.748C60.5808 339.976 62.5535 341.37 77.4956 340.945C63.2671 345.525 61.8726 347.497 62.2985 362.439Z" fill="#193000" stroke="#193000" stroke-width="1.47223" stroke-miterlimit="10"/>
    <path d="M62.1786 362.358C57.6136 348.167 55.6408 346.772 40.7346 347.201C54.9258 342.636 56.3203 340.663 55.8915 325.757C60.4565 339.948 62.4293 341.342 77.3355 340.914C63.1443 345.479 61.7498 347.451 62.1786 362.358Z" fill="#193000" stroke="#193000" stroke-width="1.47223" stroke-miterlimit="10"/>
    <path d="M62.0587 362.276C57.5086 348.122 55.5442 346.737 40.6835 347.161C54.8373 342.611 56.2222 340.646 55.7988 325.785C60.3488 339.939 62.3133 341.324 77.1739 340.901C63.0201 345.451 61.6352 347.415 62.0587 362.276Z" fill="#193000" stroke="#193000" stroke-width="1.47223" stroke-miterlimit="10"/>
    <path d="M61.939 362.194C57.404 348.078 55.4395 346.693 40.6147 347.119C54.7312 342.584 56.1161 340.62 55.6898 325.795C60.2248 339.912 62.1892 341.296 77.014 340.87C62.8975 345.405 61.5126 347.37 61.939 362.194Z" fill="#193000" stroke="#193000" stroke-width="1.47223" stroke-miterlimit="10"/>
    <path d="M61.8095 362.121C57.2799 348.05 55.3333 346.666 40.5444 347.095C54.6154 342.566 55.9988 340.619 55.5696 325.83C60.0992 339.901 62.0458 341.285 76.8347 340.856C62.7637 345.385 61.3803 347.332 61.8095 362.121Z" fill="#193000" stroke="#193000" stroke-width="1.47223" stroke-miterlimit="10"/>
    <path d="M61.6898 362.039C57.1671 347.995 55.2287 346.622 40.4854 347.045C54.5287 342.523 55.9025 340.584 55.4786 325.841C60.0014 339.884 61.9397 341.258 76.6831 340.834C62.6397 345.357 61.266 347.295 61.6898 362.039Z" fill="#193000" stroke="#193000" stroke-width="1.47223" stroke-miterlimit="10"/>
    <path d="M61.5618 361.947C57.0541 347.941 55.124 346.577 40.4165 347.004C54.4225 342.496 55.7866 340.566 55.3599 325.858C59.8676 339.864 61.7977 341.229 76.5052 340.802C62.4991 345.31 61.1351 347.24 61.5618 361.947Z" fill="#193000" stroke="#193000" stroke-width="1.47223" stroke-miterlimit="10"/>
    <path d="M61.4416 361.865C56.949 347.897 55.0189 346.533 40.357 346.954C54.3258 342.461 55.6898 340.531 55.2684 325.869C59.7611 339.838 61.6912 341.202 76.3531 340.781C62.3844 345.273 61.0203 347.203 61.4416 361.865Z" fill="#193000" stroke="#193000" stroke-width="1.47223" stroke-miterlimit="10"/>
    <path d="M61.3221 361.784C56.8348 347.861 54.9131 346.506 40.2967 346.922C54.2199 342.435 55.5742 340.513 55.1583 325.897C59.6456 339.82 61.5673 341.174 76.1837 340.758C62.2605 345.246 60.9062 347.167 61.3221 361.784Z" fill="#193000" stroke="#193000" stroke-width="1.47223" stroke-miterlimit="10"/>
    <path d="M61.1927 361.71C56.7204 347.824 54.7986 346.47 40.2181 346.889C54.104 342.417 55.4583 340.495 55.0395 325.914C59.5118 339.8 61.4336 341.154 76.0141 340.736C62.1282 345.208 60.7738 347.13 61.1927 361.71Z" fill="#193000" stroke="#193000" stroke-width="1.47223" stroke-miterlimit="10"/>
    <path d="M61.0728 361.628C56.6156 347.78 54.6938 346.425 40.1671 346.849C54.0156 342.391 55.37 340.469 54.9468 325.943C59.404 339.791 61.3258 341.146 75.8525 340.723C62.004 345.18 60.6496 347.102 61.0728 361.628Z" fill="#193000" stroke="#193000" stroke-width="1.47223" stroke-miterlimit="10"/>
    <path d="M60.9528 361.546C56.5107 347.735 54.5971 346.39 40.098 346.807C53.9093 342.365 55.2539 340.451 54.8376 325.952C59.2797 339.763 61.1933 341.108 75.6924 340.692C61.8811 345.134 60.5364 347.047 60.9528 361.546Z" fill="#193000" stroke="#193000" stroke-width="1.47223" stroke-miterlimit="10"/>
    <path d="M39.0813 369.663C32.1258 348.034 29.1274 345.925 6.4163 346.568C28.0456 339.612 30.154 336.614 29.5119 313.903C36.4675 335.532 39.4658 337.64 62.177 336.998C40.5477 343.954 38.4392 346.952 39.0813 369.663Z" fill="#FCFFF4"/>
    <path d="M106.541 445.73C112.241 430.334 111.478 427.798 98.2838 418.027C113.68 423.727 116.217 422.964 125.987 409.77C120.287 425.166 121.051 427.703 134.244 437.473C118.848 431.774 116.312 432.537 106.541 445.73Z" fill="#FCFFF4"/>
    <path d="M30.2548 212.277C23.5731 210.779 149.454 191.329 274.004 110.317L265.967 155.02C265.967 155.02 346.337 142.441 432.057 90.7715C432.057 90.7715 268.654 198.462 240.524 212.349C240.524 212.349 239.193 191.329 243.211 166.196C243.211 166.196 49.0157 216.486 30.2548 212.301V212.277Z" fill="#CCFA6C"/>
    <path d="M54.3657 151.643C54.3657 151.643 204.12 68.3962 231.037 40.457L223.119 83.7569C223.119 83.7569 316.876 36.2721 346.337 8.33282C346.337 8.33282 241.88 101.923 207.045 125.678C207.045 125.678 204.358 108.914 207.045 90.7476C207.045 90.7476 87.8452 151.073 54.3657 151.643Z" fill="#CCFA6C"/>
    <path d="M102.492 219.268C102.492 219.268 170.878 237.435 216.413 226.259L200.339 258.383C200.339 258.383 256.598 276.55 330.263 258.383C330.263 258.383 243.211 300.28 158.823 296.095L185.621 244.402C185.621 244.402 130.408 232.322 102.516 219.268H102.492Z" fill="#CCFA6C"/>
    <path d="M237.838 233.226C237.838 233.226 374.99 201.982 484.464 129.863L421.071 85.3976C421.071 85.3976 679.325 21.6962 766.852 -25.1704C766.852 -25.1704 622.757 82.996 515.566 110.65L583.571 163.033C583.571 163.033 356.538 233.25 237.838 233.25V233.226Z" fill="#CCFA6C"/>
</svg>
