<svg width="163" height="162" viewBox="0 0 163 162" fill="none" xmlns="http://www.w3.org/2000/svg">
    <rect x="0.855957" width="162" height="162" rx="50" fill="#E4FF92"/>
    <rect x="35.1398" y="39.876" width="93.4911" height="91.1243" rx="16" fill="url(#paint0_radial_3001_81)"/>
    <path d="M120.234 76.5621C115.087 76.5621 110.462 74.2674 107.352 70.6483C104.242 74.2674 99.6182 76.5621 94.4706 76.5621C89.3179 76.5621 84.6987 74.2674 81.5888 70.6483C78.4789 74.2674 73.8547 76.5621 68.7071 76.5621C63.5595 76.5621 58.9352 74.2674 55.8253 70.6483C52.7154 74.2674 48.0911 76.5621 42.9435 76.5621C42.3642 76.5621 41.7849 76.5318 41.2158 76.4762C36.246 75.9707 31.8961 73.1907 29.269 68.8337C26.53 64.2896 26.093 58.6588 28.1104 53.7757L34.3963 38.5313C36.2815 33.9569 40.7077 31 45.6825 31H117.501C122.47 31 126.902 33.957 128.787 38.5313L135.073 53.7757C137.085 58.6584 136.648 64.2893 133.914 68.8337C131.292 73.1857 126.937 75.9708 121.972 76.4762C121.403 76.5318 120.824 76.5621 120.245 76.5621H120.234Z" fill="black"/>
    <path d="M120.234 76.5621C115.087 76.5621 110.462 74.2674 107.352 70.6483C104.242 74.2674 99.6182 76.5621 94.4706 76.5621C89.3179 76.5621 84.6987 74.2674 81.5888 70.6483C78.4789 74.2674 73.8547 76.5621 68.7071 76.5621C63.5595 76.5621 58.9352 74.2674 55.8253 70.6483C52.7154 74.2674 48.0911 76.5621 42.9435 76.5621C42.3642 76.5621 41.7849 76.5318 41.2158 76.4762C36.246 75.9707 31.8961 73.1907 29.269 68.8337C26.53 64.2896 26.093 58.6588 28.1104 53.7757L34.3963 38.5313C36.2815 33.9569 40.7077 31 45.6825 31H117.501C122.47 31 126.902 33.957 128.787 38.5313L135.073 53.7757C137.085 58.6584 136.648 64.2893 133.914 68.8337C131.292 73.1857 126.937 75.9708 121.972 76.4762C121.403 76.5318 120.824 76.5621 120.245 76.5621H120.234Z" fill="url(#paint1_radial_3001_81)"/>
    <path d="M70.0514 103.497C70.0514 99.0788 73.6331 95.4971 78.0514 95.4971H85.72C90.1383 95.4971 93.72 99.0788 93.72 103.497V131H70.0514V103.497Z" fill="#D9D9D9"/>
    <path d="M70.0514 103.497C70.0514 99.0788 73.6331 95.4971 78.0514 95.4971H85.72C90.1383 95.4971 93.72 99.0788 93.72 103.497V131H70.0514V103.497Z" fill="url(#paint2_radial_3001_81)"/>
    <defs>
        <radialGradient id="paint0_radial_3001_81" cx="0" cy="0" r="1" gradientUnits="userSpaceOnUse" gradientTransform="translate(51.413 55.7335) rotate(44.3614) scale(103.268 103.241)">
            <stop stop-color="#E4FF92"/>
            <stop offset="1" stop-color="#9AE200"/>
        </radialGradient>
        <radialGradient id="paint1_radial_3001_81" cx="0" cy="0" r="1" gradientUnits="userSpaceOnUse" gradientTransform="translate(59.6181 35.704) rotate(4.12124) scale(140.382 81.206)">
            <stop stop-color="#E4FF92"/>
            <stop offset="0.745" stop-color="#FF5900"/>
            <stop offset="1" stop-color="#FAFFE4"/>
        </radialGradient>
        <radialGradient id="paint2_radial_3001_81" cx="0" cy="0" r="1" gradientUnits="userSpaceOnUse" gradientTransform="translate(56.8646 75.0829) rotate(48.3067) scale(80.8272 182.238)">
            <stop stop-color="#E4FF92"/>
            <stop offset="0.745" stop-color="#FF5900"/>
            <stop offset="1" stop-color="#FAFFE4"/>
        </radialGradient>
    </defs>
</svg>
