<svg width="312" height="723" viewBox="0 0 312 723" fill="none" xmlns="http://www.w3.org/2000/svg">
    <path d="M1063.09 1088.26C1134.2 1018.21 1135 903.79 1064.88 832.684C994.768 761.555 995.569 647.134 1066.66 577.108C1137.77 507.057 1138.57 392.637 1068.45 321.531C999.984 252.087 999.183 141.343 1065.36 70.9503C993.936 130.451 887.558 126.183 821.06 58.7296C750.96 -12.3615 636.485 -13.2404 565.414 56.8012C494.305 126.851 379.854 125.987 309.769 54.8728C239.646 -16.2329 125.195 -17.0972 54.1236 52.9444C-16.9855 122.995 -17.7866 237.415 52.3361 308.521C122.444 379.65 236.896 380.515 307.981 310.45C236.872 380.5 236.071 494.921 306.194 566.027C372.693 633.48 477.161 639.277 548.61 579.792C548.61 579.792 548.633 579.807 548.715 579.728C549.86 578.79 550.942 577.747 552 576.689C553.116 575.538 554.242 574.425 555.382 573.289C559.018 569.691 562.783 566.304 566.643 563.075C638.083 503.551 744.49 507.772 811.027 575.217C881.103 646.294 934.74 814.964 863.677 885.043L1063.1 1088.3L1063.09 1088.26Z" fill="url(#paint0_radial_199_601)"/>
    <defs>
        <radialGradient id="paint0_radial_199_601" cx="0" cy="0" r="1" gradientUnits="userSpaceOnUse" gradientTransform="translate(698.41 348.913) rotate(32.2367) scale(585.934 585.575)">
            <stop stop-color="#E4FF92"/>
            <stop offset="0.74" stop-color="#FF5900"/>
        </radialGradient>
    </defs>
</svg>
