<svg width="48" height="48" viewBox="0 0 48 48" fill="none" xmlns="http://www.w3.org/2000/svg">
    <rect x="0.5" y="0.5" width="47" height="47" rx="7.5" stroke="#171B5B"/>
    <path d="M36 22.897V24.001C35.9985 26.5887 35.1606 29.1066 33.6112 31.1792C32.0618 33.2518 29.8839 34.768 27.4024 35.5017C24.9209 36.2354 22.2687 36.1473 19.8414 35.2505C17.414 34.3537 15.3416 32.6963 13.9332 30.5255C12.5247 28.3547 11.8557 25.7867 12.026 23.2046C12.1963 20.6225 13.1966 18.1646 14.8779 16.1975C16.5592 14.2304 18.8313 12.8595 21.3554 12.2892C23.8795 11.7189 26.5203 11.9798 28.884 13.033" stroke="#171B5B" stroke-linecap="round" stroke-linejoin="round"/>
    <path d="M36.0004 14.4004L24.0004 26.4124L20.4004 22.8124" stroke="#171B5B" stroke-linecap="round" stroke-linejoin="round"/>
</svg>