<svg width="585" height="982" viewBox="0 0 585 982" fill="none" xmlns="http://www.w3.org/2000/svg">
    <g clip-path="url(#clip0_12_541)">
        <rect width="585" height="982" fill="#EDFFBD"/>
        <path d="M579.763 -49L562.149 270.191L23.5306 24.3276L622 679.036L-142.048 288.322L610.021 1092.99L-163 824.744L133.251 1112" stroke="#ECE4FF" stroke-width="190" stroke-linejoin="bevel"/>
        <path d="M247.292 384.997L264.376 336.799C264.376 336.799 233.867 317.281 236.921 278.836C239.974 240.404 272.839 204.67 333.395 217.753C397.045 231.493 421.183 342.288 298.544 343.512L247.292 384.997Z" fill="white"/>
        <path d="M286.727 285.052C288.231 283.334 288.788 280.744 287.869 278.605C287.284 273.987 280.684 272.495 277.565 275.733C275.671 277.704 275.532 280.829 276.952 283.109C278.066 285.896 281.269 287.698 284.249 286.741C284.694 286.6 285.112 286.375 285.53 286.121C286.031 285.868 286.421 285.502 286.727 285.052Z" fill="#171B5B"/>
        <path d="M315.043 285.052C316.547 283.334 317.104 280.744 316.185 278.605C315.6 273.987 309 272.495 305.881 275.733C303.987 277.704 303.848 280.829 305.268 283.109C306.382 285.896 309.585 287.698 312.565 286.741C313.01 286.6 313.428 286.375 313.846 286.121C314.347 285.868 314.737 285.502 315.043 285.052Z" fill="#171B5B"/>
        <path d="M343.359 285.052C344.863 283.334 345.42 280.744 344.501 278.605C343.916 273.987 337.316 272.495 334.197 275.733C332.303 277.704 332.164 280.829 333.584 283.109C334.698 285.896 337.901 287.698 340.88 286.741C341.326 286.6 341.744 286.375 342.161 286.121C342.663 285.868 343.053 285.502 343.359 285.052Z" fill="#171B5B"/>
        <path d="M113.057 568.641H90.5769C82.2851 568.641 75.2831 562.508 74.2039 554.295C73.2168 546.806 72.5324 536.619 73.2826 524.287C74.6514 501.385 76.9547 491.146 86.1151 486.263C86.1151 486.263 124.06 394.158 205.201 394.158H365.049C382.738 394.158 455.956 424.666 455.956 488.118C455.956 488.118 468.75 512.165 466.683 557.915C466.354 565.285 460.287 571.089 452.903 571.089L479.134 676.027V724.106C479.134 740.44 465.893 753.68 449.56 753.68H108.292C93.0645 753.68 80.7189 741.335 80.7189 726.107V647.361L113.057 568.654V568.641Z" fill="#EDFFBD"/>
        <path d="M113.057 568.641L153.266 500.938L174.101 502.399L342.464 502.135L344.596 568.483L350.545 570.773L411.404 570.313C411.404 570.313 391.728 571.681 382.12 542.397C372.512 513.112 393.097 487.026 393.097 487.026C393.097 487.026 376.171 454.543 350.084 454.543H172.547C159.741 454.543 147.843 452.253 138.222 486.118C138.222 486.118 131.812 566.654 73.2431 550.175C73.2431 550.175 72.4797 568.931 94.1437 568.931L113.057 568.628V568.641Z" fill="#FFD8A5"/>
        <path d="M79.6528 677.396H481.872V725.896C481.872 725.896 478.673 753.812 446.638 753.812H108.292C108.292 753.812 80.7189 753.285 80.7189 726.093C80.7189 698.902 79.6528 677.396 79.6528 677.396Z" fill="#171B5B"/>
        <path d="M171.731 486.565L86.102 486.263" stroke="#171B5B" stroke-width="1.39" stroke-linecap="round" stroke-linejoin="round"/>
        <path d="M174.101 502.412L171.745 486.565C171.745 486.565 178.154 466.678 195.001 466.678H320.076C330.526 466.678 338.621 473.417 340.305 485.223L342.477 502.149L324.13 501.741L323.116 477.471H287.04V502.412H223.325V478.142H186.578V501.741L174.101 502.412Z" fill="#171B5B"/>
        <path d="M353.757 488.421C353.757 488.421 344.149 473.325 330.421 471.034" stroke="#171B5B" stroke-width="1.39" stroke-linecap="round" stroke-linejoin="round"/>
        <path d="M541.257 711.26C538.085 704.916 531.978 699.836 524.502 697.335C522.041 696.506 519.474 695.993 516.842 695.769C516.25 693.848 515.552 691.952 514.763 690.11C517.263 686.661 520.646 679.225 516.75 666.893C516.552 666.287 516.355 665.682 516.131 665.076C518.961 663.063 521.054 660.167 522.265 656.627C523.476 653.073 523.686 649.045 522.857 645.255C520.962 636.595 514.565 629.777 509.932 625.394C508.603 624.131 507.234 622.946 505.839 621.84C506.918 619.524 507.695 617.063 508.129 614.549C509.814 604.717 506.642 595.925 503.707 590.266C501.285 585.633 498.218 581.79 494.691 578.973C495.02 576.788 495.06 574.59 494.77 572.392C493.651 563.521 488.584 555.809 484.53 550.899C479.292 544.542 473.264 540.765 466.762 540.015C466.907 543.463 466.907 547.043 466.894 550.557C470.25 551.347 473.448 553.676 476.646 557.546C480.858 562.653 483.622 568.141 484.438 573.024C484.491 573.366 484.543 573.708 484.57 574.051C477.542 572.432 469.947 573.827 464.209 577.92C460.194 580.776 457.694 584.593 457.167 588.686C456.562 593.306 458.892 597.873 463.103 600.321C467.065 602.638 471.711 602.861 476.554 600.979C480.7 599.374 484.135 596.57 486.294 594.504C487.952 592.911 489.413 591.161 490.637 589.318C492.269 591.134 493.743 593.372 495.007 595.965C497.876 601.835 498.903 607.929 497.903 613.127C497.705 614.154 497.416 615.154 497.06 616.141C495.086 615.128 493.085 614.272 491.072 613.575C487.334 612.285 483.556 611.587 479.832 611.495C476.107 611.403 471.816 611.653 468.368 614.272C466.315 615.826 465.051 617.984 464.788 620.34C464.459 623.486 465.933 626.105 467.078 627.789C469.092 630.777 471.987 633.159 475.449 634.686C482.319 637.726 490.177 637.055 496.468 632.896C497.652 632.106 498.771 631.225 499.824 630.237C501.061 631.238 502.285 632.33 503.47 633.488C507.102 637.029 511.446 641.807 512.749 647.282C513.42 650.112 513.025 653.534 511.183 655.692C509.419 653.204 507.405 650.941 505.141 648.927C502.864 646.9 499.363 644.176 495.533 642.649C488.176 639.714 483.635 642.754 481.582 644.821C477.884 648.558 477.884 654.244 481.582 658.956C483.925 661.944 487.189 664.287 491.282 665.932C494.704 667.314 498.495 668.13 502.522 668.38C503.852 668.459 505.128 668.459 506.365 668.367C506.813 669.538 507.195 670.736 507.484 671.947C507.905 673.71 508.34 676.25 508.169 678.751C502.706 671.749 495.994 667.959 489.189 668.038C484.03 668.09 479.647 670.433 477.449 674.289C475.212 678.225 475.33 683.318 477.765 687.569C479.582 690.755 482.49 693.413 486.189 695.269C489.361 696.875 492.954 697.809 496.573 698.007C498.363 698.099 500.127 698.007 501.811 697.73C501.68 697.77 501.548 697.822 501.417 697.875C497.692 699.191 494.086 701.047 490.69 703.363C487.413 705.614 484.07 708.22 481.911 711.932C481.832 712.076 481.753 712.208 481.674 712.353C481.582 711.497 481.411 710.642 481.161 709.799C479.792 705.272 475.923 702.008 471.54 701.666C466.762 701.297 462.669 704.824 462.037 709.878C461.682 712.721 462.208 715.643 463.656 718.776C460.366 718.433 456.628 716.801 453.021 714.09C449.06 711.116 445.914 707.088 443.927 702.455C442.808 699.849 439.873 698.678 437.254 699.81C434.595 700.955 433.371 704.035 434.503 706.667C437.464 713.55 442.347 719.407 448.612 723.606C455.891 728.489 463.564 730.239 470 728.542C474.119 733.503 479.147 737.689 484.951 740.966C493.309 745.691 502.641 748.152 511.749 748.152C515.842 748.152 519.882 747.665 523.778 746.652C532.531 744.401 538.967 739.492 541.928 732.845C544.916 726.12 544.679 718.052 541.296 711.274L541.257 711.26ZM479.753 586.436C477.094 589.186 473.317 591.924 470.303 591.924C469.618 591.924 468.973 591.779 468.381 591.463C467.789 591.148 467.157 590.555 467.473 589.568C467.933 588.133 469.368 586.673 471.435 585.554C473.672 584.33 476.225 583.724 478.766 583.724C479.766 583.724 480.766 583.816 481.753 584.014C481.174 584.856 480.503 585.659 479.753 586.436ZM479.687 625.302C477.976 624.552 476.528 623.407 475.633 622.077C477.476 621.59 479.924 621.775 481.661 621.959C484.188 622.235 486.794 622.92 489.426 623.986C489.795 624.13 490.15 624.288 490.519 624.446C487.215 626.5 483.188 626.829 479.7 625.302H479.687ZM495.099 656.376C492.73 655.442 490.848 654.126 489.663 652.586C489.453 652.31 489.308 652.086 489.216 651.915C490.163 651.546 491.953 652.191 494.533 653.823C496.218 654.889 497.797 656.153 499.271 657.587C497.81 657.285 496.402 656.877 495.112 656.376H495.099ZM495.678 687.583C491.809 687.043 487.202 684.74 486.281 681.541C486.07 680.804 485.978 679.422 486.978 678.87C488.176 678.212 490.124 678.198 492.059 678.83C495.402 679.936 498.574 682.765 501.496 687.254C499.732 687.754 497.718 687.872 495.665 687.583H495.678ZM493.191 714.406C497.705 710.431 503.154 707.68 508.616 706.562C508.616 706.614 508.616 706.68 508.616 706.733C508.879 710.997 507.063 714.722 503.496 717.223C500.008 719.671 495.56 720.803 491.585 720.25C490.782 720.144 490.506 719.96 490.453 719.934C490.361 719.802 490.216 719.434 490.229 718.855C490.256 717.591 491.243 716.104 493.177 714.393L493.191 714.406ZM479.081 723.303C478.923 723.132 478.779 722.961 478.621 722.79C479.147 722.092 479.621 721.368 480.016 720.605C480.2 722.053 480.634 723.448 481.332 724.751C481.845 725.725 482.477 726.567 483.24 727.304C481.766 726.067 480.384 724.738 479.095 723.316L479.081 723.303ZM531.754 729.989C529.635 733.451 525.463 735.82 519.369 737.07C514.71 738.018 509.643 738.084 504.72 737.241C497.376 735.991 490.466 732.938 484.675 728.463C486.807 729.884 489.624 730.634 493.085 730.7C500.074 730.832 506.984 728.239 512.012 723.593C514.657 721.145 516.671 718.144 517.816 714.906C518.724 712.353 519.093 709.576 518.948 706.496C520.54 706.838 522.08 707.351 523.541 708.036C528.016 710.128 531.386 713.629 532.768 717.631C534.229 721.842 533.847 726.567 531.754 729.976V729.989Z" fill="white"/>
        <path d="M470.592 717.42C470.592 717.42 467.236 713.353 468.46 709.694C469.684 706.035 476.594 710.208 470.592 717.42Z" fill="#171B5B"/>
        <path d="M352.23 753.404L345.517 678.475L342.464 502.149H151.502L113.676 569.26" stroke="#171B5B" stroke-width="1.39" stroke-linecap="round" stroke-linejoin="round"/>
        <path d="M186.275 501.978V477.128H223.496V501.872" stroke="#171B5B" stroke-width="1.39" stroke-linecap="round" stroke-linejoin="round"/>
        <path d="M286.948 501.978V477.128H324.156V501.872" stroke="#171B5B" stroke-width="1.39" stroke-linecap="round" stroke-linejoin="round"/>
        <path d="M456.562 486.894H354.678C354.678 486.894 343.701 512.52 348.571 571.089H452.903" stroke="#171B5B" stroke-width="1.39" stroke-linecap="round" stroke-linejoin="round"/>
        <path d="M345.517 678.475H82.5483" stroke="#171B5B" stroke-width="1.39" stroke-linecap="round" stroke-linejoin="round"/>
        <path d="M306.138 603.796C303.348 647.005 262.296 679.528 218.955 676.737C175.614 673.947 146.422 636.884 149.199 593.674C151.976 550.465 185.696 517.469 229.037 520.259C272.378 523.049 308.915 560.573 306.138 603.783V603.796Z" fill="#171B5B"/>
        <path d="M307.967 596.912C305.177 640.122 264.126 672.644 220.785 669.854C177.444 667.064 148.251 630.001 151.028 586.791C153.805 543.582 187.525 510.585 230.867 513.376C274.208 516.166 310.744 553.69 307.967 596.899V596.912Z" fill="white"/>
        <path d="M285.228 593.977C282.709 628.074 250.192 653.731 215.842 651.508L215.842 651.508C181.374 649.29 158.124 619.825 160.332 585.389C162.554 550.966 189.391 524.726 223.859 526.944C258.387 529.166 287.469 559.07 285.251 593.445L285.217 593.977H285.228Z" fill="#EDFFBD" stroke="#171B5B"/>
        <path d="M475.475 677.29H345.517C344.78 677.29 344.78 678.435 345.517 678.435H475.475C476.212 678.435 476.212 677.29 475.475 677.29Z" fill="#171B5B"/>
        <path d="M214.52 551.689C219.114 551.689 222.838 547.352 222.838 542.002C222.838 536.652 219.114 532.315 214.52 532.315C209.926 532.315 206.202 536.652 206.202 542.002C206.202 547.352 209.926 551.689 214.52 551.689Z" stroke="#171B5B" stroke-width="1.22" stroke-miterlimit="10"/>
        <path d="M242.554 558.875C247.148 558.875 250.872 554.538 250.872 549.188C250.872 543.838 247.148 539.501 242.554 539.501C237.96 539.501 234.236 543.838 234.236 549.188C234.236 554.538 237.96 558.875 242.554 558.875Z" stroke="#171B5B" stroke-width="1.22" stroke-miterlimit="10"/>
        <path d="M264.086 577.88C268.68 577.88 272.405 573.544 272.405 568.194C272.405 562.844 268.68 558.507 264.086 558.507C259.492 558.507 255.768 562.844 255.768 568.194C255.768 573.544 259.492 577.88 264.086 577.88Z" stroke="#171B5B" stroke-width="1.22" stroke-miterlimit="10"/>
        <path d="M262.665 608.745C267.259 608.745 270.983 604.408 270.983 599.058C270.983 593.708 267.259 589.371 262.665 589.371C258.071 589.371 254.347 593.708 254.347 599.058C254.347 604.408 258.071 608.745 262.665 608.745Z" stroke="#171B5B" stroke-width="1.22" stroke-miterlimit="10"/>
        <path d="M241.87 632.238C246.464 632.238 250.188 627.901 250.188 622.551C250.188 617.201 246.464 612.864 241.87 612.864C237.276 612.864 233.551 617.201 233.551 622.551C233.551 627.901 237.276 632.238 241.87 632.238Z" stroke="#171B5B" stroke-width="1.22" stroke-miterlimit="10"/>
        <path d="M212.585 642.346C217.179 642.346 220.903 638.009 220.903 632.659C220.903 627.309 217.179 622.972 212.585 622.972C207.991 622.972 204.267 627.309 204.267 632.659C204.267 638.009 207.991 642.346 212.585 642.346Z" stroke="#171B5B" stroke-width="1.22" stroke-miterlimit="10"/>
        <path d="M185.525 628.434C190.119 628.434 193.843 624.097 193.843 618.748C193.843 613.398 190.119 609.061 185.525 609.061C180.931 609.061 177.207 613.398 177.207 618.748C177.207 624.097 180.931 628.434 185.525 628.434Z" stroke="#171B5B" stroke-width="1.22" stroke-miterlimit="10"/>
        <path d="M173.692 598.479C178.286 598.479 182.011 594.142 182.011 588.792C182.011 583.442 178.286 579.105 173.692 579.105C169.099 579.105 165.374 583.442 165.374 588.792C165.374 594.142 169.099 598.479 173.692 598.479Z" stroke="#171B5B" stroke-width="1.22" stroke-miterlimit="10"/>
        <path d="M184.064 566.548C188.658 566.548 192.382 562.211 192.382 556.861C192.382 551.512 188.658 547.175 184.064 547.175C179.47 547.175 175.746 551.512 175.746 556.861C175.746 562.211 179.47 566.548 184.064 566.548Z" stroke="#171B5B" stroke-width="1.22" stroke-miterlimit="10"/>
        <path d="M246.542 615.681L266.679 653.705L262.757 661.536L285.685 658.746L292.963 637.49L284.566 640.846L246.542 615.681Z" fill="#171B5B"/>
        <path d="M449.389 570.786L357.968 580.355C352.296 580.947 347.347 576.499 347.347 570.786H449.389Z" fill="#171B5B"/>
        <path d="M215.875 609.311C227.746 609.311 237.368 599.688 237.368 587.818C237.368 575.947 227.746 566.325 215.875 566.325C204.005 566.325 194.383 575.947 194.383 587.818C194.383 599.688 204.005 609.311 215.875 609.311Z" fill="#171B5B"/>
        <path d="M103.833 384.559C103.728 384.559 103.623 384.546 103.517 384.532C103.478 384.532 103.452 384.506 103.412 384.493C103.373 384.493 103.333 384.48 103.294 384.493C103.267 384.493 103.241 384.493 103.215 384.506C100.24 384.269 97.2393 383.98 94.37 383.071C91.6456 382.203 89.2107 380.716 87.197 378.689C85.2622 376.754 83.7486 374.451 82.5904 371.989C81.2742 369.186 80.4582 366.159 79.9186 363.105C79.4184 360.236 79.1552 357.327 78.9578 354.432V350.72C78.9578 350.352 78.4182 350.339 78.3787 350.681C78.2602 350.707 78.1549 350.799 78.1549 350.957V354.669C77.9575 357.577 77.7074 360.473 77.1941 363.342C76.6545 366.396 75.8385 369.41 74.5223 372.226C73.3641 374.688 71.8374 377.004 69.9158 378.926C67.902 380.939 65.4671 382.44 62.7427 383.308C59.8866 384.217 56.8858 384.506 53.8981 384.743C53.8718 384.743 53.8454 384.73 53.8191 384.73C53.7796 384.73 53.7401 384.73 53.7007 384.73C53.6612 384.73 53.6348 384.756 53.5954 384.769C53.4901 384.769 53.3848 384.782 53.2795 384.796C53.0294 384.809 52.9504 385.072 53.0294 385.243C53.0294 385.243 53.0294 385.243 53.0294 385.256C53.0426 385.322 53.1084 385.401 53.161 385.427C53.2005 385.454 53.2268 385.467 53.2663 385.467C53.3058 385.467 53.3453 385.467 53.3848 385.467H53.4111C53.4243 385.625 53.5559 385.704 53.7007 385.73C54.0297 385.77 54.3587 385.835 54.6878 385.888C57.3991 386.401 59.9787 387.494 62.2952 388.994C64.6511 390.508 66.7307 392.429 68.5206 394.575C70.4291 396.865 71.9558 399.431 73.193 402.143C74.5486 405.13 75.5489 408.263 76.3123 411.448C77.0888 414.659 77.6416 417.91 78.1286 421.174C78.1549 421.332 78.3524 421.411 78.484 421.385C78.6024 421.359 78.6682 421.266 78.6814 421.161C78.7998 421.161 78.9446 421.082 78.9578 420.951C79.4316 417.687 79.9844 414.436 80.7741 411.224C81.5506 408.039 82.5378 404.907 83.8934 401.919C85.1306 399.208 86.6573 396.641 88.5658 394.351C90.3557 392.206 92.4353 390.284 94.7912 388.77C97.1077 387.27 99.6873 386.178 102.399 385.664C102.728 385.598 103.057 385.546 103.386 385.506C103.531 385.493 103.662 385.401 103.675 385.243H103.702C103.741 385.243 103.781 385.256 103.82 385.243C103.86 385.243 103.899 385.23 103.925 385.204C103.991 385.164 104.044 385.098 104.057 385.033C104.057 385.033 104.057 385.033 104.057 385.019C104.136 384.848 104.057 384.598 103.807 384.572L103.833 384.559Z" fill="white"/>
        <path d="M535.782 525.247C535.676 525.247 535.571 525.234 535.466 525.221C535.426 525.221 535.4 525.195 535.36 525.182C535.321 525.182 535.281 525.168 535.242 525.182C535.216 525.182 535.189 525.182 535.163 525.195C532.189 524.958 529.188 524.668 526.318 523.76C523.594 522.892 521.159 521.404 519.145 519.377C517.211 517.443 515.697 515.139 514.539 512.678C513.223 509.875 512.407 506.848 511.867 503.794C511.367 500.925 511.104 498.016 510.906 495.121V491.409C510.906 491.04 510.367 491.027 510.327 491.369C510.209 491.396 510.103 491.488 510.103 491.646V495.357C509.906 498.266 509.656 501.162 509.143 504.031C508.603 507.084 507.787 510.098 506.471 512.915C505.312 515.376 503.786 517.693 501.864 519.614C499.85 521.628 497.416 523.128 494.691 523.997C491.835 524.905 488.834 525.195 485.846 525.432C485.82 525.432 485.794 525.419 485.768 525.419C485.728 525.419 485.689 525.419 485.649 525.419C485.61 525.419 485.583 525.445 485.544 525.458C485.438 525.458 485.333 525.471 485.228 525.484C484.978 525.511 484.899 525.761 484.978 525.932C484.978 525.932 484.978 525.932 484.978 525.945C484.991 526.011 485.057 526.09 485.109 526.116C485.149 526.142 485.175 526.156 485.215 526.156C485.254 526.156 485.294 526.156 485.333 526.156H485.359C485.373 526.314 485.504 526.393 485.649 526.419C485.978 526.458 486.307 526.524 486.636 526.577C489.347 527.09 491.927 528.182 494.244 529.683C496.599 531.196 498.679 533.118 500.469 535.263C502.377 537.554 503.904 540.12 505.141 542.831C506.497 545.819 507.497 548.952 508.261 552.137C509.037 555.348 509.59 558.599 510.077 561.863C510.103 562.021 510.301 562.1 510.432 562.074C510.551 562.047 510.617 561.955 510.63 561.85C510.748 561.85 510.893 561.771 510.906 561.639C511.38 558.375 511.933 555.124 512.722 551.913C513.499 548.728 514.486 545.595 515.842 542.608C517.079 539.896 518.606 537.33 520.514 535.04C522.304 532.894 524.384 530.973 526.74 529.459C529.056 527.959 531.636 526.866 534.347 526.353C534.676 526.287 535.005 526.235 535.334 526.195C535.479 526.182 535.611 526.09 535.624 525.932H535.65C535.689 525.932 535.729 525.945 535.768 525.932C535.808 525.932 535.847 525.919 535.874 525.892C535.94 525.853 535.992 525.787 536.005 525.721C536.005 525.721 536.005 525.721 536.005 525.708C536.084 525.537 536.005 525.287 535.755 525.261L535.782 525.247Z" fill="white"/>
        <path d="M119.535 341.704C119.535 341.704 119.43 341.704 119.377 341.691C119.364 341.691 119.338 341.691 119.324 341.678C119.298 341.678 119.285 341.678 119.259 341.678C119.245 341.678 119.232 341.678 119.219 341.678C117.666 341.546 116.113 341.402 114.626 340.928C113.217 340.48 111.954 339.704 110.901 338.651C109.901 337.651 109.111 336.453 108.506 335.176C107.821 333.715 107.4 332.149 107.124 330.57C106.86 329.082 106.729 327.569 106.623 326.068V324.147C106.623 323.963 106.347 323.949 106.321 324.121C106.255 324.121 106.202 324.186 106.202 324.265V326.187C106.097 327.7 105.965 329.201 105.702 330.688C105.426 332.268 105.005 333.834 104.32 335.295C103.715 336.571 102.925 337.769 101.925 338.769C100.872 339.822 99.6083 340.599 98.2001 341.046C96.7128 341.52 95.1597 341.665 93.6067 341.797C93.6067 341.797 93.5803 341.797 93.5672 341.797C93.5408 341.797 93.5277 341.797 93.5014 341.797C93.4882 341.797 93.4619 341.81 93.4487 341.81C93.3961 341.81 93.3434 341.81 93.2908 341.81C93.1592 341.81 93.1197 341.954 93.1592 342.047C93.1592 342.086 93.1986 342.126 93.225 342.139C93.2381 342.139 93.2645 342.152 93.2776 342.152C93.3039 342.152 93.3171 342.152 93.3434 342.152C93.3434 342.152 93.3434 342.152 93.3566 342.152C93.3566 342.231 93.4355 342.284 93.5014 342.284C93.6725 342.31 93.8436 342.336 94.0147 342.363C95.423 342.626 96.7654 343.205 97.9631 343.981C99.1872 344.771 100.266 345.758 101.188 346.877C102.175 348.061 102.978 349.404 103.609 350.799C104.32 352.352 104.834 353.971 105.228 355.629C105.636 357.288 105.926 358.986 106.163 360.683C106.163 360.762 106.281 360.815 106.347 360.789C106.413 360.776 106.439 360.723 106.452 360.67C106.518 360.67 106.584 360.631 106.597 360.565C106.847 358.867 107.137 357.182 107.532 355.511C107.926 353.866 108.453 352.234 109.151 350.681C109.795 349.272 110.585 347.943 111.572 346.745C112.494 345.627 113.586 344.639 114.797 343.85C115.995 343.073 117.337 342.507 118.745 342.231C118.916 342.205 119.088 342.165 119.259 342.152C119.338 342.152 119.403 342.099 119.403 342.02C119.403 342.02 119.403 342.02 119.417 342.02C119.443 342.02 119.456 342.02 119.482 342.02C119.509 342.02 119.522 342.02 119.535 342.007C119.561 341.994 119.601 341.954 119.601 341.915C119.64 341.823 119.601 341.691 119.469 341.678L119.535 341.704Z" fill="white"/>
        <path d="M468.39 403.691C468.39 403.691 468.285 403.691 468.233 403.691C468.219 403.691 468.193 403.678 468.18 403.678C468.154 403.678 468.14 403.678 468.114 403.678C468.101 403.678 468.088 403.678 468.075 403.678C466.522 403.546 464.968 403.402 463.481 402.928C462.073 402.48 460.809 401.704 459.756 400.651C458.756 399.651 457.966 398.453 457.361 397.176C456.677 395.715 456.255 394.149 455.979 392.57C455.716 391.082 455.584 389.569 455.479 388.068V386.147C455.479 385.963 455.203 385.949 455.176 386.121C455.11 386.121 455.058 386.186 455.058 386.265V388.187C454.952 389.7 454.821 391.201 454.558 392.688C454.281 394.268 453.86 395.834 453.176 397.295C452.57 398.571 451.781 399.769 450.78 400.769C449.727 401.822 448.464 402.599 447.055 403.046C445.568 403.52 444.015 403.665 442.462 403.797C442.462 403.797 442.436 403.797 442.423 403.797C442.396 403.797 442.383 403.797 442.357 403.797C442.344 403.797 442.317 403.797 442.304 403.81C442.252 403.81 442.199 403.81 442.146 403.81C442.015 403.81 441.975 403.954 442.015 404.047C442.015 404.086 442.054 404.126 442.08 404.139C442.094 404.139 442.12 404.152 442.133 404.152C442.159 404.152 442.173 404.152 442.199 404.152C442.199 404.152 442.199 404.152 442.212 404.152C442.212 404.231 442.291 404.284 442.357 404.284C442.528 404.31 442.699 404.336 442.87 404.363C444.278 404.626 445.621 405.205 446.819 405.981C448.043 406.771 449.122 407.758 450.043 408.877C451.03 410.061 451.833 411.404 452.465 412.799C453.176 414.352 453.689 415.971 454.084 417.629C454.492 419.301 454.781 420.986 455.018 422.683C455.018 422.762 455.137 422.815 455.203 422.789C455.268 422.776 455.295 422.723 455.308 422.67C455.374 422.67 455.439 422.631 455.453 422.565C455.703 420.867 455.992 419.182 456.387 417.511C456.782 415.866 457.308 414.234 458.006 412.681C458.651 411.272 459.441 409.943 460.428 408.758C461.349 407.64 462.441 406.653 463.652 405.863C464.85 405.086 466.192 404.52 467.601 404.244C467.772 404.218 467.943 404.178 468.114 404.165C468.193 404.165 468.259 404.112 468.259 404.033C468.259 404.033 468.259 404.033 468.272 404.033C468.298 404.033 468.312 404.033 468.338 404.033C468.364 404.033 468.377 404.033 468.39 404.02C468.417 404.007 468.456 403.968 468.456 403.928C468.496 403.836 468.456 403.704 468.325 403.691H468.39Z" fill="white"/>
        <path d="M83.3905 599.691C83.3905 599.691 83.2852 599.691 83.2325 599.691C83.2194 599.691 83.1931 599.691 83.1799 599.678C83.1536 599.678 83.1404 599.678 83.1141 599.678C83.1009 599.678 83.0878 599.678 83.0746 599.678C81.5215 599.546 79.9685 599.402 78.4812 598.928C77.0729 598.48 75.8094 597.704 74.7565 596.651C73.7562 595.651 72.9665 594.453 72.361 593.176C71.6766 591.715 71.2555 590.149 70.9791 588.57C70.7158 587.082 70.5842 585.569 70.4789 584.068V582.147C70.4789 581.963 70.2025 581.949 70.1762 582.121C70.1104 582.121 70.0578 582.186 70.0578 582.265V584.187C69.9525 585.7 69.8209 587.201 69.5576 588.688C69.2812 590.268 68.8601 591.834 68.1757 593.295C67.5702 594.571 66.7805 595.769 65.7802 596.769C64.7273 597.822 63.4638 598.599 62.0555 599.046C60.5682 599.52 59.0152 599.665 57.4621 599.797C57.4621 599.797 57.4358 599.797 57.4226 599.797C57.3963 599.797 57.3831 599.797 57.3568 599.797C57.3436 599.797 57.3173 599.797 57.3042 599.81C57.2515 599.81 57.1989 599.81 57.1462 599.81C57.0146 599.81 56.9751 599.954 57.0146 600.047C57.0146 600.086 57.0541 600.126 57.0804 600.139C57.0936 600.139 57.1199 600.152 57.1331 600.152C57.1594 600.152 57.1725 600.152 57.1989 600.152C57.1989 600.152 57.1989 600.152 57.212 600.152C57.212 600.231 57.291 600.284 57.3568 600.284C57.5279 600.31 57.699 600.336 57.8701 600.363C59.2784 600.626 60.6209 601.205 61.8186 601.981C63.0426 602.771 64.1219 603.758 65.0432 604.877C66.0303 606.061 66.8332 607.404 67.4649 608.799C68.1757 610.352 68.689 611.971 69.0838 613.629C69.4918 615.301 69.7814 616.986 70.0183 618.683C70.0183 618.762 70.1367 618.815 70.2025 618.789C70.2683 618.776 70.2947 618.723 70.3078 618.67C70.3736 618.67 70.4395 618.631 70.4526 618.565C70.7027 616.867 70.9922 615.182 71.3871 613.511C71.7819 611.866 72.3084 610.234 73.006 608.681C73.6509 607.272 74.4406 605.943 75.4277 604.758C76.349 603.64 77.4414 602.653 78.6523 601.863C79.85 601.086 81.1925 600.52 82.6008 600.244C82.7719 600.218 82.943 600.178 83.1141 600.165C83.1931 600.165 83.2589 600.112 83.2589 600.033C83.2589 600.033 83.2589 600.033 83.272 600.033C83.2983 600.033 83.3115 600.033 83.3378 600.033C83.3642 600.033 83.3773 600.033 83.3905 600.02C83.4168 600.007 83.4563 599.968 83.4563 599.928C83.4958 599.836 83.4563 599.704 83.3247 599.691H83.3905Z" fill="white"/>
        <path d="M16.6613 754H542.836" stroke="#171B5B" stroke-width="1.79" stroke-miterlimit="10"/>
    </g>
    <defs>
        <clipPath id="clip0_12_541">
            <rect width="585" height="982" fill="white"/>
        </clipPath>
    </defs>
</svg>
