<svg width="504" height="392" viewBox="0 0 504 392" fill="none" xmlns="http://www.w3.org/2000/svg">
    <path d="M493.642 0L287.365 0C283.741 0 280.804 2.73227 280.804 6.10269V385.171C280.804 388.541 283.741 391.273 287.365 391.273H493.642C497.265 391.273 500.202 388.541 500.202 385.171V6.10269C500.202 2.73227 497.265 0 493.642 0Z" fill="url(#paint0_radial_0_1)"/>
    <path d="M483.127 29.293L298.014 29.293C293.864 29.293 290.5 32.4226 290.5 36.2831V364.174C290.5 368.034 293.864 371.164 298.014 371.164H483.127C487.277 371.164 490.641 368.034 490.641 364.174V36.2831C490.641 32.4226 487.277 29.293 483.127 29.293Z" fill="url(#paint1_linear_0_1)"/>
    <path d="M327.928 46.7608C328.819 46.7608 329.541 46.0888 329.541 45.2598C329.541 44.4308 328.819 43.7588 327.928 43.7588C327.036 43.7588 326.314 44.4308 326.314 45.2598C326.314 46.0888 327.036 46.7608 327.928 46.7608Z" fill="#FAFAFA"/>
    <path d="M334.947 46.7608C335.838 46.7608 336.561 46.0888 336.561 45.2598C336.561 44.4308 335.838 43.7588 334.947 43.7588C334.056 43.7588 333.333 44.4308 333.333 45.2598C333.333 46.0888 334.056 46.7608 334.947 46.7608Z" fill="#FAFAFA"/>
    <path d="M341.978 46.7501C342.87 46.7501 343.592 46.0781 343.592 45.2491C343.592 44.4201 342.87 43.748 341.978 43.748C341.087 43.748 340.365 44.4201 340.365 45.2491C340.365 46.0781 341.087 46.7501 341.978 46.7501Z" fill="#FAFAFA"/>
    <path d="M348.998 46.7501C349.889 46.7501 350.612 46.0781 350.612 45.2491C350.612 44.4201 349.889 43.748 348.998 43.748C348.107 43.748 347.384 44.4201 347.384 45.2491C347.384 46.0781 348.107 46.7501 348.998 46.7501Z" fill="#FAFAFA"/>
    <path d="M356.029 46.7393C356.921 46.7393 357.643 46.0673 357.643 45.2383C357.643 44.4093 356.921 43.7373 356.029 43.7373C355.138 43.7373 354.416 44.4093 354.416 45.2383C354.416 46.0673 355.138 46.7393 356.029 46.7393Z" fill="#FAFAFA"/>
    <path d="M456.742 50.4861C459.897 50.4861 462.454 48.107 462.454 45.1722C462.454 42.2375 459.897 39.8584 456.742 39.8584C453.587 39.8584 451.03 42.2375 451.03 45.1722C451.03 48.107 453.587 50.4861 456.742 50.4861Z" fill="#FAFAFA"/>
    <path d="M456.742 47.1008C457.887 47.1008 458.815 46.2374 458.815 45.1725C458.815 44.1075 457.887 43.2441 456.742 43.2441C455.597 43.2441 454.669 44.1075 454.669 45.1725C454.669 46.2374 455.597 47.1008 456.742 47.1008Z" fill="#606261"/>
    <path opacity="0.49" d="M456.742 46.0926C457.288 46.0926 457.731 45.6806 457.731 45.1723C457.731 44.664 457.288 44.252 456.742 44.252C456.196 44.252 455.753 44.664 455.753 45.1723C455.753 45.6806 456.196 46.0926 456.742 46.0926Z" fill="#FAFAFA"/>
    <path d="M381.693 342.704L386.145 339.22L390.609 335.725L395.073 339.209L399.537 342.693" stroke="#FAFAFA" stroke-width="0.34" stroke-linecap="round" stroke-linejoin="round"/>
    <path d="M396.416 340.282L396.427 346.232H384.862V340.293" stroke="#FAFAFA" stroke-width="0.37" stroke-linecap="round" stroke-linejoin="round"/>
    <path d="M452.266 345.575H462.172C464.268 345.575 465.964 343.986 465.964 342.036C465.964 340.086 464.268 338.508 462.172 338.508H455.293" stroke="#FAFAFA" stroke-width="0.34" stroke-linecap="round" stroke-linejoin="round"/>
    <path d="M455.152 340.984L452.502 338.529L455.14 336.075" stroke="#FAFAFA" stroke-width="0.34" stroke-linecap="round" stroke-linejoin="round"/>
    <path d="M329.67 337.259H317.033C316.064 337.259 315.278 337.99 315.278 338.891V344.304C315.278 345.205 316.064 345.936 317.033 345.936H329.67C330.64 345.936 331.425 345.205 331.425 344.304V338.891C331.425 337.99 330.64 337.259 329.67 337.259Z" stroke="#FAFAFA" stroke-width="0.34" stroke-linecap="round" stroke-linejoin="round"/>
    <path d="M315.372 341.609L331.319 341.598" stroke="#FAFAFA" stroke-width="0.38" stroke-linecap="round" stroke-linejoin="round"/>
    <path d="M467.61 61.3994H313.385C308.966 61.3994 305.385 64.9811 305.385 69.3994V309.197C305.385 313.616 308.966 317.197 313.385 317.197H467.61C472.028 317.197 475.61 313.616 475.61 309.197V69.3994C475.61 64.9811 472.028 61.3994 467.61 61.3994Z" fill="#FAFAFA"/>
    <path d="M502.299 70.6572H501.333C500.708 70.6572 500.202 71.1281 500.202 71.709V89.1954C500.202 89.7763 500.708 90.2472 501.333 90.2472H502.299C502.923 90.2472 503.429 89.7763 503.429 89.1954V71.709C503.429 71.1281 502.923 70.6572 502.299 70.6572Z" fill="#00003F"/>
    <path d="M502.334 100.854H501.368C500.744 100.854 500.237 101.324 500.237 101.905V130.184C500.237 130.765 500.744 131.235 501.368 131.235H502.334C502.958 131.235 503.464 130.765 503.464 130.184V101.905C503.464 101.324 502.958 100.854 502.334 100.854Z" fill="#00003F"/>
    <path d="M502.358 142.071H501.392C500.767 142.071 500.261 142.542 500.261 143.123V165.759C500.261 166.34 500.767 166.811 501.392 166.811H502.358C502.982 166.811 503.488 166.34 503.488 165.759V143.123C503.488 142.542 502.982 142.071 502.358 142.071Z" fill="#00003F"/>
    <path d="M341.931 190.608L346.772 184.528C346.949 184.297 346.772 183.98 346.478 183.98H341.236C341.119 183.98 341.013 184.034 340.942 184.122L335.3 191.266V179.214C335.3 179.027 335.124 178.874 334.923 178.874H329.765C329.565 178.874 329.4 179.027 329.4 179.225V199.834C329.411 200.02 329.576 200.173 329.788 200.173H334.947C335.147 200.173 335.312 200.02 335.312 199.823V192.372H336.831L342.026 199.998C342.096 200.096 342.214 200.162 342.332 200.162H348.02C348.315 200.162 348.492 199.855 348.327 199.625L341.931 190.608Z" fill="#00003F"/>
    <path d="M352.684 183.552C353.744 183.552 354.522 183.289 355.016 182.774C355.511 182.259 355.759 181.591 355.759 180.78C355.759 179.969 355.511 179.301 355.016 178.786C354.522 178.271 353.733 178.008 352.649 178.008C351.589 178.008 350.812 178.271 350.305 178.786C349.799 179.301 349.54 179.969 349.54 180.78C349.54 181.591 349.799 182.259 350.305 182.774C350.812 183.289 351.613 183.552 352.684 183.552Z" fill="#00003F"/>
    <path d="M349.493 188.198H350.258V199.812C350.258 199.998 350.423 200.151 350.623 200.151H355.782C355.982 200.151 356.147 199.998 356.147 199.801V188.187L356.135 184.78C356.135 184.517 355.841 184.352 355.594 184.473L349.304 187.541C348.963 187.705 349.092 188.187 349.481 188.187" fill="#00003F"/>
    <path d="M358.62 188.187H359.386V199.801C359.386 199.987 359.551 200.141 359.751 200.141H364.91C365.11 200.141 365.275 199.987 365.275 199.79V188.176L365.263 184.769C365.263 184.506 364.969 184.342 364.721 184.462L358.432 187.53C358.09 187.694 358.22 188.176 358.609 188.176" fill="#00003F"/>
    <path d="M361.812 183.541C362.872 183.541 363.65 183.278 364.144 182.763C364.639 182.248 364.886 181.58 364.886 180.769C364.886 179.958 364.639 179.29 364.144 178.775C363.65 178.26 362.861 177.997 361.777 177.997C360.717 177.997 359.94 178.26 359.433 178.775C358.927 179.29 358.668 179.958 358.679 180.769C358.679 181.58 358.939 182.248 359.445 182.763C359.951 183.278 360.752 183.541 361.824 183.541" fill="#00003F"/>
    <path d="M378.843 183.53C376.876 183.53 375.369 184.199 374.32 185.524C373.484 186.587 372.99 187.968 372.813 189.666V184.308C372.813 184.122 372.648 183.969 372.436 183.969H368.514C368.314 183.969 368.149 184.122 368.149 184.319V199.811C368.161 199.998 368.325 200.151 368.526 200.151H373.684C373.885 200.151 374.05 199.998 374.05 199.8V192.098C374.05 190.849 374.403 189.896 375.121 189.239C375.84 188.57 376.864 188.242 378.184 188.242H379.173C379.373 188.242 379.538 188.088 379.538 187.902V183.892C379.538 183.706 379.373 183.552 379.161 183.552H378.82L378.843 183.53Z" fill="#00003F"/>
    <path d="M397.829 191.583C397.829 190.071 397.476 188.68 396.781 187.398C396.086 186.116 395.085 185.086 393.777 184.297C392.47 183.519 390.88 183.125 389.007 183.125C387.594 183.125 386.334 183.355 385.215 183.815C384.096 184.275 383.154 184.9 382.388 185.689C381.623 186.478 381.034 187.365 380.622 188.384C380.209 189.392 380.009 190.444 380.009 191.539V192.131C380.009 193.194 380.221 194.213 380.633 195.221C381.046 196.218 381.646 197.116 382.424 197.927C383.201 198.727 384.167 199.362 385.297 199.833C386.44 200.305 387.747 200.535 389.219 200.535C390.692 200.535 392.034 200.283 393.189 199.801C394.331 199.308 395.285 198.628 396.027 197.774C396.663 197.04 397.111 196.229 397.393 195.33C397.464 195.089 397.275 194.837 397.005 194.837H392.494C392.376 194.837 392.235 194.925 392.176 195.024C391.964 195.374 391.634 195.659 391.186 195.867C390.668 196.119 390.008 196.251 389.208 196.251C388.301 196.251 387.559 196.075 386.993 195.725C386.428 195.374 386.004 194.87 385.733 194.213C385.615 193.939 385.533 193.632 385.462 193.314H397.476C397.676 193.314 397.841 193.161 397.841 192.975V191.605L397.829 191.583ZM387.017 187.902C387.57 187.573 388.23 187.42 388.996 187.42C389.773 187.42 390.421 187.584 390.939 187.913C391.457 188.242 391.846 188.735 392.105 189.37C392.235 189.688 392.329 190.027 392.399 190.411H385.427C385.498 190.027 385.604 189.677 385.745 189.37C386.039 188.713 386.463 188.22 387.029 187.902" fill="#00003F"/>
    <path d="M399.878 200.052V178.95H405.591V200.052H399.878ZM405.002 194.487V189.896H408.7C409.395 189.896 410.007 189.764 410.514 189.512C411.032 189.249 411.432 188.888 411.715 188.406C411.998 187.924 412.151 187.365 412.151 186.708C412.151 186.039 412.01 185.469 411.715 184.987C411.432 184.505 411.02 184.144 410.514 183.903C409.996 183.651 409.395 183.53 408.688 183.53H404.99V178.939H408.535C410.467 178.939 412.139 179.235 413.541 179.838C414.942 180.44 416.038 181.306 416.791 182.435C417.557 183.563 417.934 184.911 417.934 186.477V186.938C417.934 188.482 417.557 189.819 416.803 190.948C416.038 192.076 414.954 192.942 413.553 193.555C412.139 194.169 410.478 194.476 408.547 194.476H405.002V194.487Z" fill="#A2EE00"/>
    <path d="M420.655 200.031V184.199H425.083V191.079H425.024C425.024 188.866 425.519 187.124 426.52 185.864C427.521 184.604 428.946 183.969 430.819 183.969H431.502V188.439H430.206C428.958 188.439 427.98 188.757 427.297 189.392C426.614 190.028 426.261 190.937 426.261 192.12V200.031H420.655Z" fill="#A2EE00"/>
    <path d="M442.149 200.589C440.653 200.589 439.311 200.381 438.145 199.965C436.979 199.548 435.977 198.957 435.165 198.223C434.352 197.478 433.74 196.612 433.316 195.648C432.892 194.673 432.68 193.632 432.68 192.525V191.835C432.68 190.685 432.903 189.622 433.339 188.625C433.775 187.628 434.411 186.762 435.235 186.017C436.06 185.272 437.049 184.692 438.227 184.264C439.405 183.848 440.7 183.629 442.137 183.629C443.598 183.629 444.905 183.837 446.071 184.253C447.237 184.67 448.226 185.261 449.051 186.006C449.875 186.751 450.511 187.617 450.947 188.614C451.383 189.611 451.607 190.674 451.607 191.824V192.515C451.607 193.621 451.395 194.662 450.971 195.637C450.547 196.612 449.934 197.478 449.122 198.223C448.309 198.968 447.32 199.548 446.154 199.976C444.988 200.403 443.645 200.611 442.149 200.611V200.589ZM442.137 196.229C442.997 196.229 443.716 196.053 444.281 195.714C444.846 195.374 445.27 194.892 445.553 194.268C445.836 193.643 445.989 192.942 445.989 192.164C445.989 191.342 445.836 190.619 445.541 189.995C445.247 189.37 444.811 188.877 444.234 188.515C443.657 188.154 442.962 187.968 442.137 187.968C441.313 187.968 440.618 188.154 440.041 188.515C439.464 188.877 439.028 189.37 438.734 189.995C438.439 190.619 438.286 191.342 438.286 192.164C438.286 192.942 438.427 193.654 438.722 194.268C439.004 194.892 439.44 195.374 440.017 195.714C440.594 196.053 441.301 196.229 442.149 196.229H442.137Z" fill="#A2EE00"/>
    <path d="M279.426 129H278.296C277.58 129 277 129.54 277 130.205V159.513C277 160.179 277.58 160.719 278.296 160.719H279.426C280.142 160.719 280.722 160.179 280.722 159.513V130.205C280.722 129.54 280.142 129 279.426 129Z" fill="#00003F"/>
    <path d="M177.618 391.09H45.6646C20.4369 391.09 0 372.089 0 348.66V91.4305C0 68.0016 20.45 49 45.6646 49H177.605C202.82 49 223.27 68.0016 223.27 91.4305V348.66C223.27 372.089 202.82 391.09 177.605 391.09" fill="url(#paint2_radial_0_1)"/>
    <path d="M59.3313 227.812C59.3313 236.545 51.6789 243.631 42.2546 243.631C32.8303 243.631 25.178 236.557 25.178 227.812C25.178 219.067 32.8303 212.006 42.2546 212.006C51.6789 212.006 59.3313 219.08 59.3313 227.812Z" fill="#2C2F31"/>
    <path d="M106.282 227.604C106.282 236.337 98.643 243.423 89.2055 243.423C79.7681 243.423 72.1289 236.337 72.1289 227.604C72.1289 218.872 79.7812 211.798 89.2055 211.798C98.6299 211.798 106.282 218.872 106.282 227.604Z" fill="#2C2F31"/>
    <path d="M151.894 227.812C151.894 236.545 144.242 243.631 134.818 243.631C125.393 243.631 117.741 236.557 117.741 227.812C117.741 219.067 125.38 212.006 134.818 212.006C144.255 212.006 151.894 219.08 151.894 227.812Z" fill="#2C2F31"/>
    <path d="M199.082 228.018C199.082 236.751 191.429 243.837 182.005 243.837C172.581 243.837 164.928 236.763 164.928 228.018C164.928 219.273 172.567 212.212 182.005 212.212C191.442 212.212 199.082 219.298 199.082 228.018Z" fill="#2C2F31"/>
    <path d="M59.3313 313.746C59.3313 322.478 51.6789 329.564 42.2546 329.564C32.8303 329.564 25.178 322.478 25.178 313.746C25.178 305.013 32.8303 297.939 42.2546 297.939C51.6789 297.939 59.3313 305.013 59.3313 313.746Z" fill="#2C2F31"/>
    <path d="M106.282 313.539C106.282 322.271 98.643 329.357 89.2055 329.357C79.7681 329.357 72.1289 322.283 72.1289 313.539C72.1289 304.794 79.7812 297.732 89.2055 297.732C98.6299 297.732 106.282 304.818 106.282 313.539Z" fill="#2C2F31"/>
    <path d="M151.894 313.746C151.894 322.478 144.242 329.564 134.818 329.564C125.393 329.564 117.741 322.478 117.741 313.746C117.741 305.013 125.38 297.939 134.818 297.939C144.255 297.939 151.894 305.013 151.894 313.746Z" fill="#2C2F31"/>
    <path d="M199.082 313.953C199.082 322.685 191.429 329.771 182.005 329.771C172.581 329.771 164.928 322.697 164.928 313.953C164.928 305.208 172.567 298.146 182.005 298.146C191.442 298.146 199.082 305.22 199.082 313.953Z" fill="#2C2F31"/>
    <path d="M59.3313 356.81C59.3313 365.542 51.6789 372.628 42.2546 372.628C32.8303 372.628 25.178 365.542 25.178 356.81C25.178 348.077 32.8303 340.991 42.2546 340.991C51.6789 340.991 59.3313 348.065 59.3313 356.81Z" fill="#FF4D54"/>
    <path d="M106.282 356.603C106.282 365.336 98.643 372.422 89.2055 372.422C79.7681 372.422 72.1289 365.348 72.1289 356.603C72.1289 347.858 79.7812 340.797 89.2055 340.797C98.6299 340.797 106.282 347.883 106.282 356.603Z" fill="#2C2F31"/>
    <path d="M151.894 356.81C151.894 365.542 144.242 372.628 134.818 372.628C125.393 372.628 117.741 365.542 117.741 356.81C117.741 348.077 125.38 340.991 134.818 340.991C144.255 340.991 151.894 348.065 151.894 356.81Z" fill="#DDCE08"/>
    <path d="M199.082 357.017C199.082 365.75 191.429 372.836 182.005 372.836C172.581 372.836 164.928 365.762 164.928 357.017C164.928 348.273 172.567 341.211 182.005 341.211C191.442 341.211 199.082 348.297 199.082 357.017Z" fill="#0DCE6A"/>
    <path d="M199.082 271.095C199.082 279.828 191.429 286.914 182.005 286.914C172.581 286.914 164.928 279.84 164.928 271.095C164.928 262.351 172.567 255.289 182.005 255.289C191.442 255.289 199.082 262.375 199.082 271.095Z" fill="#2C2F31"/>
    <path d="M153.023 270.669C153.023 279.401 145.384 286.487 135.947 286.487C126.509 286.487 118.87 279.401 118.87 270.669C118.87 261.936 126.522 254.862 135.947 254.862C145.371 254.862 153.023 261.936 153.023 270.669Z" fill="#2C2F31"/>
    <path d="M106.059 270.877C106.059 279.609 98.4067 286.695 88.9824 286.695C79.5581 286.695 71.9058 279.621 71.9058 270.877C71.9058 262.132 79.5581 255.07 88.9824 255.07C98.4067 255.07 106.059 262.144 106.059 270.877Z" fill="#2C2F31"/>
    <path d="M59.7776 270.877C59.7776 279.609 52.1252 286.695 42.7009 286.695C33.2766 286.695 25.6243 279.621 25.6243 270.877C25.6243 262.132 33.2766 255.07 42.7009 255.07C52.1252 255.07 59.7776 262.144 59.7776 270.877Z" fill="#2C2F31"/>
    <path d="M43.2522 233.836H41.8346V225.982H38.7632V224.933C40.3777 224.933 41.8477 224.531 42.1759 222.872H43.2653V233.836H43.2522Z" fill="#FAFAFA"/>
    <path d="M85.6748 226.75C85.5566 224.531 86.9742 222.872 89.4812 222.872C91.5551 222.872 93.1958 223.982 93.1958 226.031C93.1958 227.958 91.7914 228.934 90.3213 229.787C88.8381 230.629 87.2761 231.324 87.0005 232.678H93.0777V233.836H85.3466C85.5829 231.239 87.0005 230.312 88.6674 229.348C90.6757 228.202 91.6864 227.519 91.6864 226.006C91.6864 224.811 90.6494 224.031 89.4025 224.031C87.7486 224.031 87.053 225.433 87.0924 226.75H85.6748Z" fill="#FAFAFA"/>
    <path d="M134.345 227.567C134.568 227.579 134.765 227.579 134.962 227.579C136.17 227.579 137.22 226.982 137.22 225.786C137.22 224.591 136.314 224.018 135.12 224.018C133.571 224.018 132.901 225.116 132.875 226.396H131.457C131.536 224.311 132.744 222.859 135.12 222.859C137.18 222.859 138.729 223.774 138.729 225.799C138.729 226.762 137.994 227.591 137.088 227.982V228.018C138.519 228.311 139.228 229.36 139.228 230.677C139.228 232.872 137.377 234.019 135.159 234.019C132.757 234.019 131.169 232.702 131.221 230.445H132.639C132.691 231.872 133.544 232.86 135.159 232.86C136.55 232.86 137.732 232.067 137.732 230.738C137.732 229.409 136.616 228.628 135.211 228.628C134.936 228.628 134.634 228.64 134.358 228.677V227.567H134.345Z" fill="#FAFAFA"/>
    <path d="M44.801 272.547H46.4024V273.705H44.801V276.279H43.4622V273.705H38.2644V272.437L43.6591 265.314H44.801V272.547ZM43.4622 272.547V267.18H43.4228L39.4851 272.547H43.4622Z" fill="#FAFAFA"/>
    <path d="M92.3558 266.656H87.578L86.948 269.815L86.9873 269.852C87.4993 269.315 88.3918 269.059 89.1925 269.059C91.2926 269.059 93.0121 270.315 93.0121 272.815C93.0121 274.669 91.6207 276.462 88.8775 276.462C86.8167 276.462 85.1497 275.303 85.0972 273.328H86.5148C86.5936 274.462 87.578 275.303 89.0087 275.303C90.4394 275.303 91.5157 274.45 91.5157 272.706C91.5157 271.254 90.4263 270.217 88.8381 270.217C87.9324 270.217 87.1842 270.632 86.6329 271.254L85.4122 271.193L86.5148 265.51H92.3558V266.668V266.656Z" fill="#FAFAFA"/>
    <path d="M138.112 268.12C137.981 267.132 137.246 266.486 136.13 266.486C133.715 266.486 133.321 268.962 133.256 270.645L133.295 270.681C133.965 269.681 134.962 269.242 136.248 269.242C138.519 269.242 139.871 270.767 139.871 272.791C139.871 274.389 138.9 276.474 135.92 276.474C132.416 276.474 131.851 273.511 131.851 271.206C131.851 268.193 132.836 265.327 136.209 265.327C138.165 265.327 139.386 266.352 139.543 268.12H138.125H138.112ZM133.531 272.864C133.531 274.23 134.437 275.304 135.986 275.304C137.535 275.304 138.375 274.169 138.375 272.877C138.375 271.584 137.6 270.389 135.986 270.389C134.371 270.389 133.531 271.486 133.531 272.864Z" fill="#FAFAFA"/>
    <path d="M46.7961 310.014C44.4072 312.209 42.4646 316.234 42.2546 319.661H40.6664C40.9289 315.953 42.8584 312.563 45.3392 310.123H39.1307V308.892H46.7961V310.014Z" fill="#FAFAFA"/>
    <path d="M89.56 308.697C92.1458 308.697 93.1564 310.1 93.1564 311.49C93.1564 312.466 92.487 313.356 91.5157 313.759C92.9333 314.173 93.6158 315.137 93.6158 316.491C93.6158 318.613 91.8832 319.832 89.6912 319.832C87.4992 319.832 85.6616 318.735 85.6616 316.491C85.6616 315.198 86.4098 314.186 87.7355 313.759C86.7511 313.393 86.0816 312.478 86.0816 311.49C86.0816 309.685 87.7355 308.697 89.56 308.697ZM89.6912 318.686C91.1088 318.686 92.1064 317.771 92.1064 316.552C92.1064 315.332 91.0038 314.466 89.665 314.466C88.2605 314.466 87.158 315.295 87.158 316.564C87.158 317.832 88.208 318.686 89.6781 318.686M89.6912 313.307C90.8069 313.307 91.647 312.661 91.647 311.551C91.647 310.441 90.8069 309.868 89.665 309.868C88.523 309.868 87.5911 310.454 87.5911 311.551C87.5911 312.759 88.523 313.307 89.6912 313.307Z" fill="#FAFAFA"/>
    <path d="M133.006 317.015C133.111 318.076 134.043 318.686 135.172 318.686C136.905 318.686 137.758 317.283 137.85 314.454L137.81 314.417C137.272 315.344 136.222 315.93 135.067 315.93C132.665 315.93 131.326 314.429 131.326 312.271C131.326 310.112 132.928 308.697 135.211 308.697C137.495 308.697 139.267 309.795 139.267 313.942C139.267 317.735 138.033 319.845 135.159 319.845C133.177 319.845 131.746 318.905 131.562 317.015H132.98H133.006ZM135.159 309.856C133.466 309.856 132.836 311.112 132.836 312.454C132.836 313.661 133.807 314.771 135.172 314.771C136.655 314.771 137.587 313.661 137.587 312.356C137.587 311.051 136.734 309.856 135.146 309.856" fill="#FAFAFA"/>
    <path d="M89.0087 351.14C92.7102 351.14 92.9465 354.298 92.9465 356.725C92.9465 359.153 92.7102 362.287 89.0087 362.287C85.3072 362.287 85.071 359.128 85.071 356.725C85.071 354.323 85.3072 351.14 89.0087 351.14ZM89.0087 361.128C91.4239 361.128 91.4501 358.348 91.4501 356.713C91.4501 355.079 91.437 352.31 89.0087 352.31C86.5804 352.31 86.5673 355.091 86.5673 356.713C86.5673 358.335 86.5804 361.128 89.0087 361.128Z" fill="#FAFAFA"/>
    <path d="M187.623 275.059C187.373 275.059 187.137 274.974 186.953 274.803L182.267 270.376C182.176 270.279 182.005 270.279 181.9 270.376L177.135 274.523C176.755 274.852 176.164 274.84 175.81 274.486C175.455 274.133 175.468 273.584 175.849 273.254L180.614 269.108C181.454 268.376 182.792 268.4 183.606 269.169L188.292 273.596C188.647 273.937 188.647 274.486 188.279 274.828C188.095 274.998 187.859 275.072 187.623 275.072" fill="#FAFAFA"/>
    <path d="M182.215 317.807C181.664 317.807 181.099 317.612 180.692 317.222L176.006 312.794C175.639 312.453 175.652 311.904 176.02 311.563C176.387 311.221 176.978 311.233 177.345 311.575L182.031 316.002C182.136 316.1 182.294 316.1 182.399 316.002L187.163 311.855C187.544 311.526 188.135 311.538 188.489 311.892C188.843 312.246 188.83 312.794 188.45 313.112L183.685 317.258C183.278 317.612 182.753 317.795 182.228 317.795" fill="#FAFAFA"/>
    <path d="M179.826 362.286C179.577 362.286 179.34 362.201 179.17 362.03L175.626 358.75C175.258 358.408 175.258 357.859 175.626 357.53C175.993 357.188 176.584 357.188 176.952 357.53L179.826 360.189L187.505 353.078C187.872 352.737 188.463 352.737 188.83 353.078C189.198 353.42 189.198 353.969 188.83 354.298L180.495 362.018C180.325 362.177 180.075 362.274 179.839 362.274" fill="#00003F"/>
    <path d="M46.2711 362.213C46.0348 362.213 45.7854 362.128 45.6148 361.957L37.4374 354.383C37.0699 354.041 37.0699 353.493 37.4374 353.163C37.805 352.822 38.3956 352.822 38.7632 353.163L46.9405 360.725C47.308 361.066 47.308 361.615 46.9405 361.957C46.7568 362.128 46.5205 362.213 46.2842 362.213" fill="#00003F"/>
    <path d="M38.2644 361.982C38.0281 361.982 37.7787 361.896 37.6081 361.725C37.2406 361.384 37.2406 360.835 37.6081 360.494L45.6148 353.078C45.9824 352.737 46.573 352.737 46.9405 353.078C47.3081 353.42 47.3081 353.969 46.9405 354.31L38.9338 361.725C38.75 361.896 38.5138 361.982 38.2775 361.982" fill="#00003F"/>
    <path d="M142.798 358.383H135.382C134.87 358.383 134.45 357.993 134.45 357.517C134.45 357.042 134.87 356.651 135.382 356.651H142.798C143.31 356.651 143.73 357.042 143.73 357.517C143.73 357.993 143.31 358.383 142.798 358.383Z" fill="#00003F"/>
    <path d="M135.54 360.835V354.359C135.54 353.968 135.12 353.712 134.752 353.871L127.612 357.03C127.192 357.213 127.178 357.798 127.612 357.993L134.752 361.311C135.12 361.481 135.553 361.225 135.553 360.835" fill="#00003F"/>
    <path d="M182.162 233.337C179.052 233.337 176.531 230.995 176.531 228.117C176.531 226.3 177.529 224.653 179.183 223.69C179.406 223.568 179.695 223.629 179.826 223.824C179.957 224.031 179.892 224.287 179.682 224.422C178.29 225.227 177.463 226.605 177.463 228.117C177.463 230.52 179.577 232.471 182.162 232.471C184.748 232.471 186.862 230.52 186.862 228.117C186.862 226.605 186.035 225.214 184.63 224.422C184.407 224.3 184.341 224.031 184.486 223.824C184.617 223.617 184.906 223.556 185.129 223.678C186.796 224.641 187.793 226.3 187.793 228.117C187.793 230.995 185.26 233.337 182.162 233.337Z" fill="#FAFAFA"/>
    <path d="M182.057 226.177C181.795 226.177 181.585 225.982 181.585 225.75V223.018C181.585 222.774 181.795 222.579 182.057 222.579C182.32 222.579 182.53 222.774 182.53 223.018V225.75C182.53 225.994 182.32 226.177 182.057 226.177Z" fill="#FAFAFA"/>
    <path d="M188.161 192.284H36.0986C27.4356 192.284 20.3477 185.698 20.3477 177.648V144.292C20.3477 136.242 27.4356 129.656 36.0986 129.656H188.161C196.824 129.656 203.912 136.242 203.912 144.292V177.648C203.912 185.698 196.824 192.284 188.161 192.284Z" fill="#000427"/>
    <path d="M191.26 185.027H32.7791C30.2721 185.027 28.2114 183.112 28.2114 180.783V141.828C28.2114 139.499 30.2721 137.584 32.7791 137.584H191.26C193.767 137.584 195.828 139.499 195.828 141.828V180.783C195.828 183.112 193.767 185.027 191.26 185.027Z" fill="#EBF3F5"/>
    <path d="M81.6319 94.9575L88.4442 86.4202C88.6936 86.1031 88.4442 85.6518 88.0242 85.6518H80.6606C80.49 85.6518 80.3456 85.725 80.2406 85.8469L72.2995 95.8722V78.9439C72.2995 78.6756 72.0632 78.4561 71.7744 78.4561H64.5159C64.2271 78.4561 63.9908 78.6756 63.9908 78.9439V107.898C63.9908 108.166 64.2271 108.385 64.5159 108.385H71.7744C72.0632 108.385 72.2995 108.166 72.2995 107.898V97.4333H74.439L81.7369 108.154C81.8288 108.288 81.9994 108.373 82.1701 108.373H90.1768C90.5837 108.373 90.8331 107.946 90.6099 107.629L81.6319 94.9575Z" fill="#00003F"/>
    <path d="M96.7659 85.0546C98.2491 85.0546 99.3517 84.6887 100.047 83.9692C100.743 83.2374 101.097 82.3105 101.097 81.1762C101.097 80.042 100.743 79.1029 100.047 78.3833C99.3517 77.6515 98.236 77.2979 96.7265 77.2979C95.2171 77.2979 94.1408 77.6637 93.4188 78.3833C92.7101 79.1151 92.3425 80.042 92.3425 81.1762C92.3425 82.3105 92.6969 83.2496 93.4188 83.9692C94.1276 84.7009 95.2433 85.0546 96.7659 85.0546Z" fill="#FAFAFA"/>
    <path d="M92.2637 91.5799H93.3401V107.898C93.3401 108.167 93.5763 108.386 93.8651 108.386H101.124C101.412 108.386 101.649 108.167 101.649 107.898V86.7868C101.649 86.4209 101.229 86.1892 100.887 86.3599L92.0275 90.6652C91.5418 90.8969 91.7256 91.5799 92.2637 91.5799Z" fill="#00003F"/>
    <path d="M105.114 91.5799H106.19V107.898C106.19 108.167 106.427 108.386 106.715 108.386H113.974C114.263 108.386 114.499 108.167 114.499 107.898V86.7868C114.499 86.4209 114.079 86.1892 113.738 86.3599L104.878 90.6652C104.392 90.8969 104.576 91.5799 105.114 91.5799Z" fill="#00003F"/>
    <path d="M109.603 85.0546C111.086 85.0546 112.189 84.6887 112.884 83.9692C113.58 83.2374 113.934 82.3105 113.934 81.1762C113.934 80.042 113.58 79.1029 112.884 78.3833C112.189 77.6515 111.073 77.2979 109.564 77.2979C108.054 77.2979 106.978 77.6637 106.256 78.3833C105.547 79.1151 105.18 80.042 105.18 81.1762C105.18 82.3105 105.534 83.2496 106.256 83.9692C106.965 84.7009 108.08 85.0546 109.603 85.0546Z" fill="#FAFAFA"/>
    <path d="M133.558 85.0542C130.788 85.0542 128.675 85.9811 127.205 87.8471C126.023 89.335 125.328 91.2742 125.091 93.6647V86.1275C125.091 85.8591 124.855 85.6396 124.566 85.6396H119.04C118.752 85.6396 118.515 85.8591 118.515 86.1275V107.898C118.515 108.166 118.752 108.385 119.04 108.385H126.299C126.588 108.385 126.824 108.166 126.824 107.898V97.0796C126.824 95.3356 127.336 93.994 128.347 93.0549C129.37 92.128 130.801 91.6523 132.652 91.6523H134.043C134.332 91.6523 134.568 91.4328 134.568 91.1645V85.5298C134.568 85.2615 134.332 85.042 134.043 85.042H133.558V85.0542Z" fill="#00003F"/>
    <path d="M160.242 96.3849C160.242 94.2628 159.757 92.2992 158.772 90.5064C157.801 88.7013 156.383 87.25 154.546 86.1523C152.708 85.0547 150.477 84.5059 147.838 84.5059C145.856 84.5059 144.071 84.8352 142.509 85.4816C140.934 86.1279 139.609 87.0061 138.532 88.1037C137.456 89.2014 136.616 90.4698 136.038 91.8845C135.461 93.2993 135.172 94.7872 135.172 96.324V97.1533C135.172 98.6412 135.461 100.08 136.038 101.483C136.616 102.885 137.456 104.154 138.545 105.276C139.635 106.41 140.987 107.301 142.588 107.959C144.189 108.618 146.027 108.947 148.101 108.947C150.175 108.947 152.065 108.605 153.679 107.91C155.294 107.227 156.633 106.276 157.683 105.056C158.602 104.008 159.245 102.825 159.638 101.52C159.73 101.215 159.481 100.922 159.153 100.922H152.734C152.564 100.922 152.393 101.007 152.301 101.154C151.999 101.654 151.527 102.056 150.897 102.373C150.175 102.727 149.243 102.91 148.114 102.91C146.841 102.91 145.804 102.666 145.003 102.166C144.203 101.666 143.612 100.958 143.231 100.044C143.074 99.6535 142.942 99.2388 142.851 98.7876H159.743C160.019 98.7876 160.255 98.5802 160.255 98.3119V96.3849H160.242ZM145.056 91.2016C145.843 90.7503 146.762 90.5186 147.838 90.5186C148.915 90.5186 149.847 90.7503 150.569 91.226C151.29 91.6894 151.842 92.3724 152.209 93.2749C152.393 93.714 152.524 94.2018 152.616 94.7384H142.798C142.903 94.2018 143.047 93.7018 143.244 93.2749C143.664 92.348 144.255 91.665 145.043 91.2138" fill="#00003F"/>
    <defs>
        <radialGradient id="paint0_radial_0_1" cx="0" cy="0" r="1" gradientUnits="userSpaceOnUse" gradientTransform="translate(318.993 68.0898) rotate(60.7194) scale(242.214 206.654)">
            <stop stop-color="#E4FF92"/>
            <stop offset="1" stop-color="#FF5900"/>
        </radialGradient>
        <linearGradient id="paint1_linear_0_1" x1="279.75" y1="259.947" x2="482.75" y2="259.947" gradientUnits="userSpaceOnUse">
            <stop stop-color="#756D6D"/>
            <stop offset="0.3" stop-color="#A59393"/>
            <stop offset="0.945" stop-color="#756D6D"/>
        </linearGradient>
        <radialGradient id="paint2_radial_0_1" cx="0" cy="0" r="1" gradientUnits="userSpaceOnUse" gradientTransform="translate(38.8626 108.531) rotate(47.8361) scale(497.781 455.048)">
            <stop stop-color="#E4FF92"/>
            <stop offset="0.5" stop-color="#9AE200"/>
            <stop offset="1" stop-color="#598902"/>
        </radialGradient>
    </defs>
</svg>
