<svg width="200" height="900" viewBox="0 0 200 900" fill="none" xmlns="http://www.w3.org/2000/svg">
    <path d="M187.207 47.5H13.7167C10.3924 47.5 7.69922 50.2001 7.69922 53.5286V396.938C7.69922 400.267 10.3924 402.967 13.7167 402.967H187.207C190.531 402.967 193.224 400.267 193.224 396.938V53.5286C193.224 50.2001 190.531 47.5 187.207 47.5Z" fill="#FF6B00" stroke="#171B5B"/>
    <path d="M22.6734 75.0371H178.363C181.576 75.0371 184.182 77.6475 184.182 80.8697V377.916C184.182 381.139 181.576 383.749 178.363 383.749H22.6734C19.4601 383.749 16.8535 381.139 16.8535 377.916V80.8697C16.8535 77.6475 19.4601 75.0371 22.6734 75.0371Z" fill="#C1B4B4" stroke="#171B5B"/>
    <path d="M47.8317 90.3622C48.5812 90.3622 49.1888 89.7534 49.1888 89.0024C49.1888 88.2514 48.5812 87.6426 47.8317 87.6426C47.0822 87.6426 46.4746 88.2514 46.4746 89.0024C46.4746 89.7534 47.0822 90.3622 47.8317 90.3622Z" fill="#171B5B"/>
    <path d="M53.736 90.3622C54.4855 90.3622 55.0931 89.7534 55.0931 89.0024C55.0931 88.2514 54.4855 87.6426 53.736 87.6426C52.9865 87.6426 52.3789 88.2514 52.3789 89.0024C52.3789 89.7534 52.9865 90.3622 53.736 90.3622Z" fill="#171B5B"/>
    <path d="M59.6501 90.3525C60.3996 90.3525 61.0072 89.7436 61.0072 88.9926C61.0072 88.2416 60.3996 87.6328 59.6501 87.6328C58.9006 87.6328 58.293 88.2416 58.293 88.9926C58.293 89.7436 58.9006 90.3525 59.6501 90.3525Z" fill="#171B5B"/>
    <path d="M65.5534 90.3525C66.3029 90.3525 66.9105 89.7436 66.9105 88.9926C66.9105 88.2416 66.3029 87.6328 65.5534 87.6328C64.8039 87.6328 64.1963 88.2416 64.1963 88.9926C64.1963 89.7436 64.8039 90.3525 65.5534 90.3525Z" fill="#171B5B"/>
    <path d="M71.4674 90.3427C72.2169 90.3427 72.8245 89.7339 72.8245 88.9829C72.8245 88.2319 72.2169 87.623 71.4674 87.623C70.7179 87.623 70.1104 88.2319 70.1104 88.9829C70.1104 89.7339 70.7179 90.3427 71.4674 90.3427Z" fill="#171B5B"/>
    <path d="M156.171 93.7373C158.825 93.7373 160.976 91.582 160.976 88.9233C160.976 86.2647 158.825 84.1094 156.171 84.1094C153.518 84.1094 151.367 86.2647 151.367 88.9233C151.367 91.582 153.518 93.7373 156.171 93.7373Z" fill="#171B5B"/>
    <path d="M156.171 90.6696C157.134 90.6696 157.915 89.8875 157.915 88.9227C157.915 87.9579 157.134 87.1758 156.171 87.1758C155.208 87.1758 154.428 87.9579 154.428 88.9227C154.428 89.8875 155.208 90.6696 156.171 90.6696Z" fill="#606261"/>
    <path opacity="0.49" d="M156.172 89.7554C156.631 89.7554 157.004 89.3821 157.004 88.9217C157.004 88.4612 156.631 88.0879 156.172 88.0879C155.712 88.0879 155.34 88.4612 155.34 88.9217C155.34 89.3821 155.712 89.7554 156.172 89.7554Z" fill="#171B5B"/>
    <path d="M93.0518 358.465L96.7961 355.309L100.55 352.143L104.305 355.299L108.059 358.456" stroke="#171B5B" stroke-width="0.34" stroke-linecap="round" stroke-linejoin="round"/>
    <path d="M105.434 356.272L105.444 361.661H95.7168V356.282" stroke="#171B5B" stroke-width="0.37" stroke-linecap="round" stroke-linejoin="round"/>
    <path d="M152.407 361.066H160.738C162.501 361.066 163.928 359.627 163.928 357.86C163.928 356.093 162.501 354.664 160.738 354.664H154.953" stroke="#171B5B" stroke-width="0.34" stroke-linecap="round" stroke-linejoin="round"/>
    <path d="M154.834 356.907L152.605 354.684L154.824 352.461" stroke="#171B5B" stroke-width="0.34" stroke-linecap="round" stroke-linejoin="round"/>
    <path d="M49.2982 353.533H38.6693C37.8542 353.533 37.1934 354.195 37.1934 355.012V359.915C37.1934 360.732 37.8542 361.394 38.6693 361.394H49.2982C50.1134 361.394 50.7742 360.732 50.7742 359.915V355.012C50.7742 354.195 50.1134 353.533 49.2982 353.533Z" stroke="#171B5B" stroke-width="0.34" stroke-linecap="round" stroke-linejoin="round"/>
    <path d="M37.2725 357.473L50.6849 357.463" stroke="#171B5B" stroke-width="0.38" stroke-linecap="round" stroke-linejoin="round"/>
    <path d="M36.8721 104.121H164.04C168.182 104.121 171.54 107.479 171.54 111.621V327.357C171.54 331.499 168.182 334.857 164.04 334.857H36.8721C32.7299 334.857 29.3721 331.499 29.3721 327.357V111.621C29.3721 107.479 32.7299 104.121 36.8721 104.121Z" fill="#FAFAFA" stroke="#171B5B"/>
    <path d="M194.488 112.01H193.676C193.15 112.01 192.725 112.436 192.725 112.963V128.804C192.725 129.33 193.15 129.757 193.676 129.757H194.488C195.013 129.757 195.439 129.33 195.439 128.804V112.963C195.439 112.436 195.013 112.01 194.488 112.01Z" fill="#171B5B"/>
    <path d="M194.517 139.365H193.705C193.18 139.365 192.754 139.792 192.754 140.318V165.936C192.754 166.463 193.18 166.889 193.705 166.889H194.517C195.042 166.889 195.468 166.463 195.468 165.936V140.318C195.468 139.792 195.042 139.365 194.517 139.365Z" fill="#171B5B"/>
    <path d="M194.537 176.707H193.724C193.199 176.707 192.773 177.133 192.773 177.66V198.166C192.773 198.692 193.199 199.119 193.724 199.119H194.537C195.062 199.119 195.488 198.692 195.488 198.166V177.66C195.488 177.133 195.062 176.707 194.537 176.707Z" fill="#171B5B"/>
    <path d="M59.6101 220.677L63.6813 215.169C63.8299 214.96 63.6813 214.672 63.4337 214.672H59.0256C58.9266 214.672 58.8374 214.722 58.778 214.801L54.0331 221.273V210.355C54.0331 210.186 53.8845 210.047 53.7161 210.047H49.3774C49.209 210.047 49.0703 210.186 49.0703 210.365V229.035C49.0802 229.203 49.2189 229.342 49.3972 229.342H53.7359C53.9043 229.342 54.043 229.204 54.043 229.025V222.275H55.3209L59.6893 229.184C59.7487 229.273 59.8478 229.333 59.9469 229.333H64.7313C64.979 229.333 65.1276 229.055 64.9889 228.846L59.6101 220.677Z" fill="#171B5B"/>
    <path d="M68.6546 214.284C69.5461 214.284 70.1999 214.046 70.616 213.579C71.032 213.113 71.24 212.507 71.24 211.773C71.24 211.038 71.032 210.433 70.616 209.966C70.1999 209.5 69.5362 209.262 68.6249 209.262C67.7334 209.262 67.0796 209.5 66.6536 209.966C66.2277 210.433 66.0098 211.038 66.0098 211.773C66.0098 212.507 66.2277 213.113 66.6536 213.579C67.0796 214.046 67.7532 214.284 68.6546 214.284Z" fill="#171B5B"/>
    <path d="M65.969 218.493H66.6128V229.014C66.6128 229.183 66.7515 229.322 66.9199 229.322H71.2587C71.4271 229.322 71.5657 229.183 71.5657 229.005V218.483L71.5558 215.396C71.5558 215.158 71.3082 215.009 71.1002 215.118L65.8105 217.898C65.5232 218.047 65.6322 218.483 65.9591 218.483" fill="#171B5B"/>
    <path d="M73.6467 218.483H74.2906V229.004C74.2906 229.173 74.4293 229.312 74.5977 229.312H78.9364C79.1048 229.312 79.2435 229.173 79.2435 228.995V218.473L79.2336 215.386C79.2336 215.148 78.9859 214.999 78.7779 215.108L73.4882 217.888C73.2009 218.037 73.3099 218.473 73.6368 218.473" fill="#171B5B"/>
    <path d="M76.3316 214.274C77.2231 214.274 77.8769 214.036 78.2929 213.57C78.7089 213.103 78.917 212.498 78.917 211.763C78.917 211.029 78.7089 210.423 78.2929 209.957C77.8769 209.49 77.2132 209.252 76.3018 209.252C75.4103 209.252 74.7565 209.49 74.3306 209.957C73.9046 210.423 73.6867 211.029 73.6966 211.763C73.6966 212.498 73.9145 213.103 74.3405 213.57C74.7664 214.036 75.44 214.274 76.3415 214.274" fill="#171B5B"/>
    <path d="M90.6546 214.264C89.0003 214.264 87.7324 214.869 86.8508 216.07C86.1475 217.033 85.7314 218.284 85.5828 219.822V214.968C85.5828 214.8 85.4442 214.661 85.2659 214.661H81.9672C81.7988 214.661 81.6602 214.8 81.6602 214.978V229.013C81.6701 229.182 81.8087 229.321 81.9771 229.321H86.3159C86.4843 229.321 86.623 229.182 86.623 229.003V222.026C86.623 220.894 86.9201 220.031 87.5244 219.435C88.1286 218.83 88.9904 218.532 90.0999 218.532H90.932C91.1004 218.532 91.239 218.393 91.239 218.224V214.591C91.239 214.422 91.1004 214.284 90.9221 214.284H90.6348L90.6546 214.264Z" fill="#171B5B"/>
    <path d="M106.623 221.561C106.623 220.191 106.326 218.931 105.742 217.769C105.157 216.608 104.315 215.675 103.216 214.96C102.116 214.256 100.779 213.898 99.2038 213.898C98.0151 213.898 96.9551 214.107 96.0141 214.524C95.073 214.94 94.2806 215.506 93.6367 216.221C92.9928 216.935 92.4975 217.739 92.1508 218.663C91.8041 219.576 91.6357 220.529 91.6357 221.521V222.057C91.6357 223.02 91.814 223.943 92.1607 224.856C92.5074 225.759 93.0126 226.573 93.6664 227.308C94.3202 228.032 95.1325 228.608 96.0834 229.035C97.0443 229.462 98.1438 229.67 99.3821 229.67C100.62 229.67 101.75 229.442 102.72 229.005C103.681 228.558 104.484 227.943 105.108 227.169C105.643 226.504 106.019 225.769 106.257 224.955C106.316 224.737 106.158 224.509 105.93 224.509H102.136C102.037 224.509 101.918 224.588 101.868 224.678C101.69 224.995 101.413 225.253 101.036 225.442C100.6 225.67 100.046 225.789 99.3722 225.789C98.6094 225.789 97.9853 225.63 97.5099 225.313C97.0344 224.995 96.6778 224.539 96.45 223.943C96.3509 223.695 96.2815 223.417 96.2221 223.129H106.326C106.494 223.129 106.633 222.99 106.633 222.821V221.581L106.623 221.561ZM97.5297 218.226C97.9953 217.928 98.55 217.789 99.1938 217.789C99.8476 217.789 100.392 217.938 100.828 218.236C101.264 218.533 101.591 218.98 101.809 219.556C101.918 219.844 101.997 220.151 102.057 220.499H96.1924C96.2518 220.151 96.341 219.834 96.4599 219.556C96.7075 218.96 97.0641 218.514 97.5396 218.226" fill="#171B5B"/>
    <path d="M108.347 229.232V210.115H113.151V229.232H108.347ZM112.656 224.19V220.031H115.766C116.351 220.031 116.866 219.912 117.292 219.684C117.727 219.446 118.064 219.118 118.302 218.681C118.54 218.245 118.668 217.738 118.668 217.143C118.668 216.537 118.55 216.021 118.302 215.584C118.064 215.148 117.718 214.82 117.292 214.602C116.856 214.374 116.351 214.264 115.756 214.264H112.646V210.105H115.627C117.252 210.105 118.659 210.373 119.837 210.919C121.016 211.465 121.937 212.249 122.571 213.272C123.215 214.294 123.532 215.515 123.532 216.934V217.351C123.532 218.751 123.215 219.962 122.581 220.984C121.937 222.006 121.026 222.791 119.847 223.346C118.659 223.902 117.262 224.18 115.637 224.18H112.656V224.19Z" fill="#171B5B"/>
    <path d="M125.82 229.211V214.869H129.545V221.102H129.495C129.495 219.097 129.911 217.519 130.753 216.377C131.595 215.236 132.794 214.66 134.369 214.66H134.944V218.71H133.854C132.804 218.71 131.982 218.998 131.407 219.573C130.833 220.149 130.535 220.973 130.535 222.045V229.211H125.82Z" fill="#171B5B"/>
    <path d="M143.898 229.719C142.64 229.719 141.511 229.53 140.53 229.153C139.549 228.776 138.707 228.24 138.024 227.575C137.34 226.9 136.825 226.115 136.469 225.242C136.112 224.359 135.934 223.416 135.934 222.413V221.788C135.934 220.746 136.122 219.783 136.488 218.88C136.855 217.976 137.39 217.192 138.083 216.517C138.777 215.842 139.609 215.316 140.599 214.929C141.59 214.552 142.679 214.354 143.888 214.354C145.116 214.354 146.216 214.542 147.196 214.919C148.177 215.296 149.009 215.832 149.703 216.507C150.396 217.182 150.931 217.966 151.297 218.87C151.664 219.773 151.852 220.736 151.852 221.778V222.403C151.852 223.406 151.674 224.349 151.317 225.232C150.961 226.115 150.446 226.9 149.762 227.575C149.079 228.25 148.246 228.776 147.266 229.163C146.285 229.55 145.156 229.738 143.898 229.738V229.719ZM143.888 225.768C144.611 225.768 145.215 225.609 145.691 225.302C146.166 224.994 146.523 224.557 146.761 223.991C146.998 223.426 147.127 222.79 147.127 222.086C147.127 221.341 146.998 220.686 146.751 220.12C146.503 219.555 146.137 219.108 145.651 218.78C145.166 218.453 144.581 218.284 143.888 218.284C143.195 218.284 142.61 218.453 142.125 218.78C141.639 219.108 141.273 219.555 141.025 220.12C140.778 220.686 140.649 221.341 140.649 222.086C140.649 222.79 140.768 223.436 141.015 223.991C141.253 224.557 141.62 224.994 142.105 225.302C142.59 225.609 143.185 225.768 143.898 225.768H143.888Z" fill="#171B5B"/>
    <path d="M7.04059 164.865H6.08964C5.48785 164.865 5 165.354 5 165.957V192.508C5 193.111 5.48785 193.6 6.08964 193.6H7.04059C7.64238 193.6 8.13023 193.111 8.13023 192.508V165.957C8.13023 165.354 7.64238 164.865 7.04059 164.865Z" fill="#171B5B"/>
    <mask id="path-32-outside-1_2020_1565" maskUnits="userSpaceOnUse" x="14" y="533" width="173" height="284" fill="black">
        <rect fill="white" x="14" y="533" width="173" height="284"/>
        <path d="M150.821 815.77H49.9189C30.6277 815.77 15 800.119 15 780.822L15 568.949C15 549.651 30.6377 534 49.9189 534H150.811C170.093 534 185.73 549.651 185.73 568.949V780.822C185.73 800.119 170.093 815.77 150.811 815.77"/>
    </mask>
    <path d="M150.821 815.77H49.9189C30.6277 815.77 15 800.119 15 780.822L15 568.949C15 549.651 30.6377 534 49.9189 534H150.811C170.093 534 185.73 549.651 185.73 568.949V780.822C185.73 800.119 170.093 815.77 150.811 815.77" fill="#A2EE00"/>
    <path d="M150.821 814.77H49.9189V816.77H150.821V814.77ZM49.9189 814.77C31.181 814.77 16 799.568 16 780.822H14C14 800.67 30.0744 816.77 49.9189 816.77V814.77ZM16 780.822L16 568.949H14L14 780.822H16ZM16 568.949C16 550.203 31.1908 535 49.9189 535V533C30.0846 533 14 549.1 14 568.949H16ZM49.9189 535H150.811V533H49.9189V535ZM150.811 535C169.539 535 184.73 550.203 184.73 568.949H186.73C186.73 549.1 170.646 533 150.811 533V535ZM184.73 568.949V780.822H186.73V568.949H184.73ZM184.73 780.822C184.73 799.568 169.539 814.77 150.811 814.77V816.77C170.646 816.77 186.73 800.671 186.73 780.822H184.73Z" fill="#171B5B" mask="url(#path-32-outside-1_2020_1565)"/>
    <path d="M59.9963 681.203C59.9963 688.395 54.1447 694.232 46.9381 694.232C39.7315 694.232 33.8799 688.405 33.8799 681.203C33.8799 674 39.7315 668.184 46.9381 668.184C54.1447 668.184 59.9963 674.01 59.9963 681.203Z" fill="#171B5B"/>
    <path d="M95.8986 681.031C95.8986 688.224 90.0571 694.06 82.8404 694.06C75.6238 694.06 69.7822 688.224 69.7822 681.031C69.7822 673.838 75.6338 668.012 82.8404 668.012C90.047 668.012 95.8986 673.838 95.8986 681.031Z" fill="#171B5B"/>
    <path d="M130.778 681.203C130.778 688.395 124.926 694.232 117.719 694.232C110.513 694.232 104.661 688.405 104.661 681.203C104.661 674 110.503 668.184 117.719 668.184C124.936 668.184 130.778 674.01 130.778 681.203Z" fill="#171B5B"/>
    <path d="M166.861 681.375C166.861 688.567 161.009 694.404 153.802 694.404C146.596 694.404 140.744 688.577 140.744 681.375C140.744 674.172 146.586 668.355 153.802 668.355C161.019 668.355 166.861 674.192 166.861 681.375Z" fill="#171B5B"/>
    <path d="M59.9963 751.984C59.9963 759.177 54.1447 765.013 46.9381 765.013C39.7315 765.013 33.8799 759.177 33.8799 751.984C33.8799 744.791 39.7315 738.965 46.9381 738.965C54.1447 738.965 59.9963 744.791 59.9963 751.984Z" fill="#171B5B"/>
    <path d="M95.8986 751.812C95.8986 759.005 90.0571 764.841 82.8404 764.841C75.6238 764.841 69.7822 759.015 69.7822 751.812C69.7822 744.609 75.6338 738.793 82.8404 738.793C90.047 738.793 95.8986 744.629 95.8986 751.812Z" fill="#171B5B"/>
    <path d="M130.778 751.984C130.778 759.177 124.926 765.013 117.719 765.013C110.513 765.013 104.661 759.177 104.661 751.984C104.661 744.791 110.503 738.965 117.719 738.965C124.936 738.965 130.778 744.791 130.778 751.984Z" fill="#171B5B"/>
    <path d="M166.861 752.152C166.861 759.345 161.009 765.181 153.802 765.181C146.596 765.181 140.744 759.355 140.744 752.152C140.744 744.949 146.586 739.133 153.802 739.133C161.019 739.133 166.861 744.959 166.861 752.152Z" fill="#171B5B"/>
    <path d="M59.9963 787.455C59.9963 794.648 54.1447 800.484 46.9381 800.484C39.7315 800.484 33.8799 794.648 33.8799 787.455C33.8799 780.262 39.7315 774.426 46.9381 774.426C54.1447 774.426 59.9963 780.252 59.9963 787.455Z" fill="#FF4D54"/>
    <path d="M95.8986 787.285C95.8986 794.477 90.0571 800.314 82.8404 800.314C75.6238 800.314 69.7822 794.488 69.7822 787.285C69.7822 780.082 75.6338 774.266 82.8404 774.266C90.047 774.266 95.8986 780.102 95.8986 787.285Z" fill="#171B5B"/>
    <path d="M130.778 787.455C130.778 794.648 124.926 800.484 117.719 800.484C110.513 800.484 104.661 794.648 104.661 787.455C104.661 780.262 110.503 774.426 117.719 774.426C124.936 774.426 130.778 780.252 130.778 787.455Z" fill="#DDCE08"/>
    <path d="M166.861 787.625C166.861 794.817 161.009 800.654 153.802 800.654C146.596 800.654 140.744 794.827 140.744 787.625C140.744 780.422 146.586 774.605 153.802 774.605C161.019 774.605 166.861 780.442 166.861 787.625Z" fill="#0DCE6A"/>
    <path d="M166.861 716.851C166.861 724.044 161.009 729.88 153.802 729.88C146.596 729.88 140.744 724.054 140.744 716.851C140.744 709.648 146.586 703.832 153.802 703.832C161.019 703.832 166.861 709.669 166.861 716.851Z" fill="#171B5B"/>
    <path d="M131.641 716.504C131.641 723.696 125.799 729.533 118.583 729.533C111.366 729.533 105.524 723.696 105.524 716.504C105.524 709.311 111.376 703.484 118.583 703.484C125.789 703.484 131.641 709.311 131.641 716.504Z" fill="#171B5B"/>
    <path d="M95.7278 716.671C95.7278 723.864 89.8761 729.701 82.6695 729.701C75.4629 729.701 69.6113 723.874 69.6113 716.671C69.6113 709.469 75.4629 703.652 82.6695 703.652C89.8761 703.652 95.7278 709.479 95.7278 716.671Z" fill="#171B5B"/>
    <path d="M60.3371 716.671C60.3371 723.864 54.4855 729.701 47.2789 729.701C40.0723 729.701 34.2207 723.874 34.2207 716.671C34.2207 709.469 40.0723 703.652 47.2789 703.652C54.4855 703.652 60.3371 709.479 60.3371 716.671Z" fill="#171B5B"/>
    <path d="M47.7012 686.164H46.6172V679.694H44.2686V678.83C45.5031 678.83 46.6273 678.499 46.8782 677.133H47.7113V686.164H47.7012Z" fill="white"/>
    <path d="M80.1406 680.327C80.0502 678.499 81.1342 677.133 83.0513 677.133C84.6372 677.133 85.8918 678.047 85.8918 679.734C85.8918 681.322 84.8178 682.125 83.6937 682.828C82.5595 683.522 81.3651 684.094 81.1543 685.209H85.8015V686.164H79.8896C80.0703 684.024 81.1543 683.26 82.429 682.467C83.9647 681.523 84.7375 680.96 84.7375 679.714C84.7375 678.73 83.9446 678.087 82.9911 678.087C81.7264 678.087 81.1945 679.242 81.2246 680.327H80.1406Z" fill="white"/>
    <path d="M117.359 681.003C117.529 681.013 117.68 681.013 117.83 681.013C118.754 681.013 119.557 680.52 119.557 679.536C119.557 678.551 118.864 678.079 117.951 678.079C116.766 678.079 116.254 678.983 116.234 680.038H115.15C115.211 678.32 116.134 677.125 117.951 677.125C119.527 677.125 120.711 677.878 120.711 679.546C120.711 680.34 120.149 681.023 119.456 681.344V681.374C120.55 681.615 121.092 682.479 121.092 683.564C121.092 685.372 119.677 686.317 117.981 686.317C116.144 686.317 114.93 685.232 114.97 683.373H116.054C116.094 684.549 116.746 685.362 117.981 685.362C119.045 685.362 119.948 684.709 119.948 683.614C119.948 682.52 119.095 681.877 118.021 681.877C117.81 681.877 117.579 681.887 117.369 681.917V681.003H117.359Z" fill="white"/>
    <path d="M48.8852 718.047H50.1097V719.001H48.8852V721.121H47.8614V719.001H43.8867V717.956L48.0119 712.09H48.8852V718.047ZM47.8614 718.047V713.627H47.8313L44.8202 718.047H47.8614Z" fill="white"/>
    <path d="M85.2497 713.198H81.5962L81.1144 715.8L81.1446 715.83C81.536 715.388 82.2185 715.177 82.8308 715.177C84.4367 715.177 85.7516 716.212 85.7516 718.271C85.7516 719.798 84.6876 721.275 82.5899 721.275C81.0141 721.275 79.7394 720.321 79.6992 718.693H80.7832C80.8434 719.627 81.5962 720.321 82.6903 720.321C83.7843 720.321 84.6073 719.617 84.6073 718.181C84.6073 716.985 83.7743 716.132 82.5598 716.132C81.8672 716.132 81.2951 716.473 80.8736 716.985L79.9401 716.935L80.7832 712.254H85.2497V713.208V713.198Z" fill="white"/>
    <path d="M120.239 714.402C120.138 713.588 119.576 713.056 118.723 713.056C116.876 713.056 116.575 715.095 116.525 716.481L116.555 716.512C117.067 715.688 117.83 715.326 118.814 715.326C120.55 715.326 121.584 716.582 121.584 718.25C121.584 719.565 120.841 721.283 118.563 721.283C115.883 721.283 115.451 718.842 115.451 716.944C115.451 714.462 116.204 712.102 118.783 712.102C120.279 712.102 121.212 712.945 121.333 714.402H120.249H120.239ZM116.736 718.31C116.736 719.435 117.428 720.319 118.613 720.319C119.797 720.319 120.44 719.385 120.44 718.32C120.44 717.255 119.847 716.271 118.613 716.271C117.378 716.271 116.736 717.175 116.736 718.31Z" fill="white"/>
    <path d="M50.4105 748.909C48.5837 750.717 47.0982 754.032 46.9376 756.855H45.7232C45.9239 753.801 47.3994 751.008 49.2964 748.999H44.5488V747.984H50.4105V748.909Z" fill="white"/>
    <path d="M83.1119 747.824C85.0892 747.824 85.862 748.979 85.862 750.125C85.862 750.928 85.3501 751.662 84.6074 751.993C85.6914 752.335 86.2133 753.128 86.2133 754.243C86.2133 755.991 84.8884 756.996 83.2122 756.996C81.536 756.996 80.1309 756.092 80.1309 754.243C80.1309 753.179 80.703 752.345 81.7167 751.993C80.9639 751.692 80.452 750.938 80.452 750.125C80.452 748.638 81.7167 747.824 83.1119 747.824ZM83.2122 756.052C84.2962 756.052 85.0591 755.298 85.0591 754.294C85.0591 753.289 84.2159 752.576 83.1922 752.576C82.1182 752.576 81.2751 753.259 81.2751 754.304C81.2751 755.348 82.078 756.052 83.2022 756.052M83.2122 751.621C84.0654 751.621 84.7078 751.089 84.7078 750.175C84.7078 749.261 84.0654 748.789 83.1922 748.789C82.3189 748.789 81.6063 749.271 81.6063 750.175C81.6063 751.169 82.3189 751.621 83.2122 751.621Z" fill="white"/>
    <path d="M116.334 754.675C116.414 755.549 117.126 756.052 117.99 756.052C119.315 756.052 119.967 754.896 120.037 752.566L120.007 752.536C119.596 753.299 118.793 753.781 117.909 753.781C116.073 753.781 115.049 752.546 115.049 750.768C115.049 748.99 116.273 747.824 118.02 747.824C119.766 747.824 121.121 748.728 121.121 752.144C121.121 755.268 120.178 757.006 117.98 757.006C116.464 757.006 115.37 756.232 115.229 754.675H116.313H116.334ZM117.98 748.779C116.685 748.779 116.203 749.813 116.203 750.918C116.203 751.913 116.946 752.827 117.99 752.827C119.124 752.827 119.837 751.913 119.837 750.838C119.837 749.763 119.184 748.779 117.97 748.779" fill="white"/>
    <path d="M82.6908 782.781C85.5213 782.781 85.7019 785.383 85.7019 787.382C85.7019 789.381 85.5213 791.963 82.6908 791.963C79.8604 791.963 79.6797 789.361 79.6797 787.382C79.6797 785.403 79.8604 782.781 82.6908 782.781ZM82.6908 791.009C84.5376 791.009 84.5577 788.718 84.5577 787.372C84.5577 786.026 84.5477 783.746 82.6908 783.746C80.8339 783.746 80.8239 786.036 80.8239 787.372C80.8239 788.708 80.8339 791.009 82.6908 791.009Z" fill="white"/>
    <path d="M158.098 720.118C157.908 720.118 157.727 720.048 157.587 719.907L154.003 716.261C153.933 716.18 153.803 716.18 153.722 716.261L150.079 719.676C149.788 719.947 149.336 719.937 149.065 719.646C148.794 719.355 148.804 718.903 149.095 718.631L152.739 715.216C153.381 714.613 154.405 714.633 155.027 715.266L158.61 718.913C158.881 719.194 158.881 719.646 158.6 719.927C158.46 720.068 158.279 720.128 158.098 720.128" fill="white"/>
    <path d="M153.963 755.33C153.542 755.33 153.11 755.169 152.799 754.848L149.216 751.201C148.935 750.92 148.945 750.468 149.226 750.186C149.507 749.905 149.958 749.915 150.239 750.197L153.823 753.843C153.903 753.923 154.023 753.923 154.104 753.843L157.747 750.428C158.038 750.156 158.49 750.166 158.761 750.458C159.032 750.749 159.022 751.201 158.731 751.462L155.087 754.878C154.776 755.169 154.375 755.32 153.973 755.32" fill="white"/>
    <path d="M152.137 791.967C151.946 791.967 151.765 791.897 151.635 791.756L148.925 789.054C148.644 788.773 148.644 788.321 148.925 788.049C149.206 787.768 149.657 787.768 149.938 788.049L152.137 790.239L158.008 784.383C158.289 784.102 158.741 784.102 159.022 784.383C159.303 784.664 159.303 785.116 159.022 785.387L152.648 791.746C152.518 791.877 152.327 791.957 152.147 791.957" fill="#171B5B"/>
    <path d="M50.0097 791.907C49.829 791.907 49.6383 791.837 49.5078 791.696L43.2547 785.458C42.9737 785.176 42.9737 784.724 43.2547 784.453C43.5358 784.172 43.9874 784.172 44.2685 784.453L50.5216 790.681C50.8026 790.963 50.8026 791.415 50.5216 791.696C50.381 791.837 50.2004 791.907 50.0197 791.907" fill="#171B5B"/>
    <path d="M43.8865 791.716C43.7058 791.716 43.5151 791.646 43.3846 791.505C43.1036 791.224 43.1036 790.772 43.3846 790.491L49.5072 784.383C49.7882 784.102 50.2399 784.102 50.521 784.383C50.802 784.664 50.802 785.116 50.521 785.397L44.3983 791.505C44.2578 791.646 44.0772 791.716 43.8965 791.716" fill="#171B5B"/>
    <path d="M123.822 788.751H118.151C117.76 788.751 117.438 788.429 117.438 788.037C117.438 787.646 117.76 787.324 118.151 787.324H123.822C124.213 787.324 124.535 787.646 124.535 788.037C124.535 788.429 124.213 788.751 123.822 788.751Z" fill="#171B5B"/>
    <path d="M118.272 790.771V785.437C118.272 785.116 117.951 784.905 117.67 785.035L112.21 787.637C111.888 787.788 111.878 788.27 112.21 788.431L117.67 791.163C117.951 791.304 118.282 791.093 118.282 790.771" fill="#171B5B"/>
    <path d="M153.923 685.754C151.544 685.754 149.617 683.825 149.617 681.454C149.617 679.957 150.38 678.601 151.645 677.808C151.815 677.707 152.036 677.757 152.136 677.918C152.237 678.089 152.187 678.3 152.026 678.41C150.962 679.073 150.33 680.208 150.33 681.454C150.33 683.433 151.946 685.04 153.923 685.04C155.9 685.04 157.516 683.433 157.516 681.454C157.516 680.208 156.884 679.063 155.81 678.41C155.639 678.31 155.589 678.089 155.7 677.918C155.8 677.747 156.021 677.697 156.191 677.797C157.466 678.591 158.229 679.957 158.229 681.454C158.229 683.825 156.292 685.754 153.923 685.754Z" fill="white"/>
    <path d="M153.843 679.854C153.642 679.854 153.481 679.693 153.481 679.502V677.252C153.481 677.051 153.642 676.891 153.843 676.891C154.044 676.891 154.204 677.051 154.204 677.252V679.502C154.204 679.703 154.044 679.854 153.843 679.854Z" fill="white"/>
    <path d="M158.509 651.436H42.23C35.8821 651.436 30.6855 646.236 30.6855 639.881L30.6855 612.406C30.6855 606.052 35.8821 600.852 42.23 600.852H158.509C164.857 600.852 170.054 606.052 170.054 612.406V639.881C170.054 646.236 164.857 651.436 158.509 651.436Z" fill="#A2EE00" stroke="#171B5B"/>
    <path d="M160.88 645.96H39.6921C37.775 645.96 36.1992 644.383 36.1992 642.464V610.379C36.1992 608.46 37.775 606.883 39.6921 606.883H160.88C162.797 606.883 164.372 608.46 164.372 610.379V642.464C164.372 644.383 162.797 645.96 160.88 645.96Z" fill="#FAFAFA"/>
    <path d="M77.0494 571.773L82.2586 564.741C82.4493 564.48 82.2586 564.108 81.9374 564.108H76.3066C76.1762 564.108 76.0657 564.169 75.9854 564.269L69.913 572.527V558.583C69.913 558.362 69.7324 558.181 69.5115 558.181H63.9611C63.7402 558.181 63.5596 558.362 63.5596 558.583V582.432C63.5596 582.653 63.7402 582.833 63.9611 582.833H69.5115C69.7324 582.833 69.913 582.653 69.913 582.432V573.812H71.5491L77.1297 582.643C77.1999 582.753 77.3304 582.823 77.4609 582.823H83.5835C83.8946 582.823 84.0854 582.472 83.9147 582.211L77.0494 571.773Z" fill="#171B5B"/>
    <path d="M88.6217 563.615C89.7559 563.615 90.599 563.314 91.131 562.721C91.663 562.119 91.934 561.355 91.934 560.421C91.934 559.487 91.663 558.713 91.131 558.12C90.599 557.518 89.7459 557.226 88.5916 557.226C87.4374 557.226 86.6143 557.528 86.0623 558.12C85.5203 558.723 85.2393 559.487 85.2393 560.421C85.2393 561.355 85.5103 562.129 86.0623 562.721C86.6043 563.324 87.4574 563.615 88.6217 563.615Z" fill="white"/>
    <path d="M85.1792 568.989H86.0023V582.43C86.0023 582.651 86.1829 582.832 86.4037 582.832H91.9542C92.1751 582.832 92.3557 582.651 92.3557 582.43V565.041C92.3557 564.74 92.0345 564.549 91.7736 564.689L84.9986 568.236C84.6272 568.426 84.7677 568.989 85.1792 568.989Z" fill="#171B5B"/>
    <path d="M95.0054 568.989H95.8284V582.43C95.8284 582.651 96.0091 582.832 96.2299 582.832H101.78C102.001 582.832 102.182 582.651 102.182 582.43V565.041C102.182 564.74 101.861 564.549 101.6 564.689L94.8247 568.236C94.4534 568.426 94.5939 568.989 95.0054 568.989Z" fill="#171B5B"/>
    <path d="M98.4381 563.615C99.5723 563.615 100.415 563.314 100.947 562.721C101.479 562.119 101.75 561.355 101.75 560.421C101.75 559.487 101.479 558.713 100.947 558.12C100.415 557.518 99.5623 557.226 98.408 557.226C97.2538 557.226 96.4307 557.528 95.8787 558.12C95.3367 558.723 95.0557 559.487 95.0557 560.421C95.0557 561.355 95.3267 562.129 95.8787 562.721C96.4207 563.324 97.2738 563.615 98.4381 563.615Z" fill="white"/>
    <path d="M116.755 563.615C114.638 563.615 113.022 564.379 111.897 565.916C110.994 567.141 110.462 568.739 110.281 570.707V564.499C110.281 564.278 110.101 564.097 109.88 564.097H105.654C105.434 564.097 105.253 564.278 105.253 564.499V582.431C105.253 582.652 105.434 582.833 105.654 582.833H111.205C111.426 582.833 111.606 582.652 111.606 582.431V573.52C111.606 572.084 111.998 570.979 112.771 570.205C113.554 569.442 114.648 569.05 116.063 569.05H117.127C117.348 569.05 117.528 568.869 117.528 568.648V564.007C117.528 563.786 117.348 563.605 117.127 563.605H116.755V563.615Z" fill="#171B5B"/>
    <path d="M137.161 572.948C137.161 571.2 136.79 569.583 136.037 568.106C135.294 566.62 134.21 565.424 132.805 564.52C131.4 563.616 129.693 563.164 127.676 563.164C126.16 563.164 124.795 563.435 123.601 563.967C122.396 564.5 121.383 565.223 120.56 566.127C119.737 567.031 119.094 568.076 118.653 569.241C118.211 570.407 117.99 571.632 117.99 572.898V573.581C117.99 574.807 118.211 575.992 118.653 577.147C119.094 578.303 119.737 579.347 120.57 580.272C121.403 581.206 122.437 581.939 123.661 582.482C124.886 583.024 126.291 583.295 127.877 583.295C129.463 583.295 130.908 583.014 132.142 582.441C133.377 581.879 134.401 581.095 135.204 580.091C135.906 579.227 136.398 578.252 136.699 577.177C136.77 576.926 136.579 576.685 136.328 576.685H131.42C131.289 576.685 131.159 576.756 131.089 576.876C130.858 577.288 130.496 577.62 130.015 577.881C129.463 578.172 128.75 578.323 127.887 578.323C126.913 578.323 126.12 578.122 125.508 577.71C124.896 577.298 124.444 576.715 124.153 575.962C124.033 575.641 123.932 575.299 123.862 574.927H136.78C136.99 574.927 137.171 574.756 137.171 574.535V572.948H137.161ZM125.548 568.679C126.15 568.307 126.853 568.116 127.676 568.116C128.499 568.116 129.212 568.307 129.764 568.699C130.316 569.081 130.737 569.643 131.018 570.387C131.159 570.748 131.259 571.15 131.329 571.592H123.822C123.902 571.15 124.012 570.738 124.163 570.387C124.484 569.623 124.936 569.061 125.538 568.689" fill="#171B5B"/>
</svg>