<svg width="191" height="357" viewBox="0 0 191 357" fill="none" xmlns="http://www.w3.org/2000/svg">
    <path d="M182.207 0.5H8.71674C5.39241 0.5 2.69922 3.20005 2.69922 6.52862V349.938C2.69922 353.267 5.39241 355.967 8.71674 355.967H182.207C185.531 355.967 188.224 353.267 188.224 349.938V6.52862C188.224 3.20006 185.531 0.5 182.207 0.5Z" fill="#FF6B00" stroke="#171B5B"/>
    <path d="M17.6734 28.0371H173.363C176.576 28.0371 179.182 30.6475 179.182 33.8697V330.916C179.182 334.139 176.576 336.749 173.363 336.749H17.6734C14.4601 336.749 11.8535 334.139 11.8535 330.916V33.8697C11.8535 30.6475 14.4601 28.0371 17.6734 28.0371Z" fill="#C1B4B4" stroke="#171B5B"/>
    <path d="M42.8317 43.3622C43.5812 43.3622 44.1888 42.7534 44.1888 42.0024C44.1888 41.2514 43.5812 40.6426 42.8317 40.6426C42.0822 40.6426 41.4746 41.2514 41.4746 42.0024C41.4746 42.7534 42.0822 43.3622 42.8317 43.3622Z" fill="#171B5B"/>
    <path d="M48.736 43.3622C49.4855 43.3622 50.0931 42.7534 50.0931 42.0024C50.0931 41.2514 49.4855 40.6426 48.736 40.6426C47.9865 40.6426 47.3789 41.2514 47.3789 42.0024C47.3789 42.7534 47.9865 43.3622 48.736 43.3622Z" fill="#171B5B"/>
    <path d="M54.6501 43.3525C55.3996 43.3525 56.0072 42.7436 56.0072 41.9926C56.0072 41.2416 55.3996 40.6328 54.6501 40.6328C53.9006 40.6328 53.293 41.2416 53.293 41.9926C53.293 42.7436 53.9006 43.3525 54.6501 43.3525Z" fill="#171B5B"/>
    <path d="M60.5534 43.3525C61.3029 43.3525 61.9105 42.7436 61.9105 41.9926C61.9105 41.2416 61.3029 40.6328 60.5534 40.6328C59.8039 40.6328 59.1963 41.2416 59.1963 41.9926C59.1963 42.7436 59.8039 43.3525 60.5534 43.3525Z" fill="#171B5B"/>
    <path d="M66.4674 43.3427C67.2169 43.3427 67.8245 42.7339 67.8245 41.9829C67.8245 41.2319 67.2169 40.623 66.4674 40.623C65.7179 40.623 65.1104 41.2319 65.1104 41.9829C65.1104 42.7339 65.7179 43.3427 66.4674 43.3427Z" fill="#171B5B"/>
    <path d="M151.171 46.7373C153.825 46.7373 155.976 44.582 155.976 41.9233C155.976 39.2647 153.825 37.1094 151.171 37.1094C148.518 37.1094 146.367 39.2647 146.367 41.9233C146.367 44.582 148.518 46.7373 151.171 46.7373Z" fill="#171B5B"/>
    <path d="M151.171 43.6696C152.134 43.6696 152.915 42.8875 152.915 41.9227C152.915 40.9579 152.134 40.1758 151.171 40.1758C150.208 40.1758 149.428 40.9579 149.428 41.9227C149.428 42.8875 150.208 43.6696 151.171 43.6696Z" fill="#606261"/>
    <path opacity="0.49" d="M151.172 42.7554C151.631 42.7554 152.004 42.3821 152.004 41.9217C152.004 41.4612 151.631 41.0879 151.172 41.0879C150.712 41.0879 150.34 41.4612 150.34 41.9217C150.34 42.3821 150.712 42.7554 151.172 42.7554Z" fill="#171B5B"/>
    <path d="M88.0518 311.465L91.7961 308.309L95.5504 305.143L99.3047 308.299L103.059 311.456" stroke="#171B5B" stroke-width="0.34" stroke-linecap="round" stroke-linejoin="round"/>
    <path d="M100.434 309.272L100.444 314.661H90.7168V309.282" stroke="#171B5B" stroke-width="0.37" stroke-linecap="round" stroke-linejoin="round"/>
    <path d="M147.407 314.066H155.738C157.501 314.066 158.928 312.627 158.928 310.86C158.928 309.093 157.501 307.664 155.738 307.664H149.953" stroke="#171B5B" stroke-width="0.34" stroke-linecap="round" stroke-linejoin="round"/>
    <path d="M149.834 309.907L147.605 307.684L149.824 305.461" stroke="#171B5B" stroke-width="0.34" stroke-linecap="round" stroke-linejoin="round"/>
    <path d="M44.2982 306.533H33.6693C32.8542 306.533 32.1934 307.195 32.1934 308.012V312.915C32.1934 313.732 32.8542 314.394 33.6693 314.394H44.2982C45.1134 314.394 45.7742 313.732 45.7742 312.915V308.012C45.7742 307.195 45.1134 306.533 44.2982 306.533Z" stroke="#171B5B" stroke-width="0.34" stroke-linecap="round" stroke-linejoin="round"/>
    <path d="M32.2725 310.473L45.6849 310.463" stroke="#171B5B" stroke-width="0.38" stroke-linecap="round" stroke-linejoin="round"/>
    <path d="M31.8721 57.1211H159.04C163.182 57.1211 166.54 60.479 166.54 64.6211V280.357C166.54 284.499 163.182 287.857 159.04 287.857H31.8721C27.7299 287.857 24.3721 284.499 24.3721 280.357V64.6211C24.3721 60.479 27.7299 57.1211 31.8721 57.1211Z" fill="#FAFAFA" stroke="#171B5B"/>
    <path d="M189.488 65.0098H188.676C188.15 65.0098 187.725 65.4364 187.725 65.9626V81.8041C187.725 82.3303 188.15 82.7569 188.676 82.7569H189.488C190.013 82.7569 190.439 82.3303 190.439 81.8041V65.9626C190.439 65.4364 190.013 65.0098 189.488 65.0098Z" fill="#171B5B"/>
    <path d="M189.517 92.3652H188.705C188.18 92.3652 187.754 92.7918 187.754 93.3181V118.936C187.754 119.463 188.18 119.889 188.705 119.889H189.517C190.042 119.889 190.468 119.463 190.468 118.936V93.3181C190.468 92.7918 190.042 92.3652 189.517 92.3652Z" fill="#171B5B"/>
    <path d="M189.537 129.707H188.724C188.199 129.707 187.773 130.133 187.773 130.66V151.166C187.773 151.692 188.199 152.119 188.724 152.119H189.537C190.062 152.119 190.488 151.692 190.488 151.166V130.66C190.488 130.133 190.062 129.707 189.537 129.707Z" fill="#171B5B"/>
    <path d="M54.6101 173.677L58.6813 168.169C58.8299 167.96 58.6813 167.672 58.4337 167.672H54.0256C53.9266 167.672 53.8374 167.722 53.778 167.801L49.0331 174.273V163.355C49.0331 163.186 48.8845 163.047 48.7161 163.047H44.3774C44.209 163.047 44.0703 163.186 44.0703 163.365V182.035C44.0802 182.203 44.2189 182.342 44.3972 182.342H48.7359C48.9043 182.342 49.043 182.204 49.043 182.025V175.275H50.3209L54.6893 182.184C54.7487 182.273 54.8478 182.333 54.9469 182.333H59.7313C59.979 182.333 60.1276 182.055 59.9889 181.846L54.6101 173.677Z" fill="#171B5B"/>
    <path d="M63.6546 167.284C64.5461 167.284 65.1999 167.046 65.616 166.579C66.032 166.113 66.24 165.507 66.24 164.773C66.24 164.038 66.032 163.433 65.616 162.966C65.1999 162.5 64.5362 162.262 63.6249 162.262C62.7334 162.262 62.0796 162.5 61.6536 162.966C61.2277 163.433 61.0098 164.038 61.0098 164.773C61.0098 165.507 61.2277 166.113 61.6536 166.579C62.0796 167.046 62.7532 167.284 63.6546 167.284Z" fill="#171B5B"/>
    <path d="M60.969 171.493H61.6128V182.014C61.6128 182.183 61.7515 182.322 61.9199 182.322H66.2587C66.4271 182.322 66.5657 182.183 66.5657 182.005V171.483L66.5558 168.396C66.5558 168.158 66.3082 168.009 66.1002 168.118L60.8105 170.898C60.5232 171.047 60.6322 171.483 60.9591 171.483" fill="#171B5B"/>
    <path d="M68.6467 171.483H69.2906V182.004C69.2906 182.173 69.4293 182.312 69.5977 182.312H73.9364C74.1048 182.312 74.2435 182.173 74.2435 181.995V171.473L74.2336 168.386C74.2336 168.148 73.9859 167.999 73.7779 168.108L68.4882 170.888C68.2009 171.037 68.3099 171.473 68.6368 171.473" fill="#171B5B"/>
    <path d="M71.3316 167.274C72.2231 167.274 72.8769 167.036 73.2929 166.57C73.7089 166.103 73.917 165.498 73.917 164.763C73.917 164.029 73.7089 163.423 73.2929 162.957C72.8769 162.49 72.2132 162.252 71.3018 162.252C70.4103 162.252 69.7565 162.49 69.3306 162.957C68.9046 163.423 68.6867 164.029 68.6966 164.763C68.6966 165.498 68.9145 166.103 69.3405 166.57C69.7664 167.036 70.44 167.274 71.3415 167.274" fill="#171B5B"/>
    <path d="M85.6546 167.264C84.0003 167.264 82.7324 167.869 81.8508 169.07C81.1475 170.033 80.7314 171.284 80.5828 172.822V167.968C80.5828 167.8 80.4442 167.661 80.2659 167.661H76.9672C76.7988 167.661 76.6602 167.8 76.6602 167.978V182.013C76.6701 182.182 76.8087 182.321 76.9771 182.321H81.3159C81.4843 182.321 81.623 182.182 81.623 182.003V175.026C81.623 173.894 81.9201 173.031 82.5244 172.435C83.1286 171.83 83.9904 171.532 85.0999 171.532H85.932C86.1004 171.532 86.239 171.393 86.239 171.224V167.591C86.239 167.422 86.1004 167.284 85.9221 167.284H85.6348L85.6546 167.264Z" fill="#171B5B"/>
    <path d="M101.623 174.561C101.623 173.191 101.326 171.931 100.742 170.769C100.157 169.608 99.3151 168.675 98.2156 167.96C97.1161 167.256 95.7788 166.898 94.2038 166.898C93.0151 166.898 91.9551 167.107 91.0141 167.524C90.073 167.94 89.2806 168.506 88.6367 169.221C87.9928 169.935 87.4975 170.739 87.1508 171.663C86.8041 172.576 86.6357 173.529 86.6357 174.521V175.057C86.6357 176.02 86.814 176.943 87.1607 177.856C87.5074 178.759 88.0126 179.573 88.6664 180.308C89.3202 181.032 90.1325 181.608 91.0834 182.035C92.0443 182.462 93.1438 182.67 94.3821 182.67C95.6203 182.67 96.7495 182.442 97.7203 182.005C98.6812 181.558 99.4835 180.943 100.108 180.169C100.643 179.504 101.019 178.769 101.257 177.955C101.316 177.737 101.158 177.509 100.93 177.509H97.1359C97.0368 177.509 96.9179 177.588 96.8684 177.678C96.6901 177.995 96.4127 178.253 96.0363 178.442C95.6005 178.67 95.0457 178.789 94.3722 178.789C93.6094 178.789 92.9853 178.63 92.5099 178.313C92.0344 177.995 91.6778 177.539 91.45 176.943C91.3509 176.695 91.2815 176.417 91.2221 176.129H101.326C101.494 176.129 101.633 175.99 101.633 175.821V174.581L101.623 174.561ZM92.5297 171.226C92.9953 170.928 93.55 170.789 94.1938 170.789C94.8476 170.789 95.3924 170.938 95.8283 171.236C96.2642 171.533 96.5911 171.98 96.809 172.556C96.9179 172.844 96.9972 173.151 97.0566 173.499H91.1924C91.2518 173.151 91.341 172.834 91.4599 172.556C91.7075 171.96 92.0641 171.514 92.5396 171.226" fill="#171B5B"/>
    <path d="M103.347 182.232V163.115H108.151V182.232H103.347ZM107.656 177.19V173.031H110.766C111.351 173.031 111.866 172.912 112.292 172.684C112.727 172.446 113.064 172.118 113.302 171.681C113.54 171.245 113.668 170.738 113.668 170.143C113.668 169.537 113.55 169.021 113.302 168.584C113.064 168.148 112.718 167.82 112.292 167.602C111.856 167.374 111.351 167.264 110.756 167.264H107.646V163.105H110.627C112.252 163.105 113.659 163.373 114.837 163.919C116.016 164.465 116.937 165.249 117.571 166.272C118.215 167.294 118.532 168.515 118.532 169.934V170.351C118.532 171.751 118.215 172.962 117.581 173.984C116.937 175.006 116.026 175.791 114.847 176.346C113.659 176.902 112.262 177.18 110.637 177.18H107.656V177.19Z" fill="#171B5B"/>
    <path d="M120.82 182.211V167.869H124.545V174.102H124.495C124.495 172.097 124.911 170.519 125.753 169.377C126.595 168.236 127.794 167.66 129.369 167.66H129.944V171.71H128.854C127.804 171.71 126.982 171.998 126.407 172.573C125.833 173.149 125.535 173.973 125.535 175.045V182.211H120.82Z" fill="#171B5B"/>
    <path d="M138.898 182.719C137.64 182.719 136.511 182.53 135.53 182.153C134.549 181.776 133.707 181.24 133.024 180.575C132.34 179.9 131.825 179.115 131.469 178.242C131.112 177.359 130.934 176.416 130.934 175.413V174.788C130.934 173.746 131.122 172.783 131.488 171.88C131.855 170.976 132.39 170.192 133.083 169.517C133.777 168.842 134.609 168.316 135.599 167.929C136.59 167.552 137.679 167.354 138.888 167.354C140.116 167.354 141.216 167.542 142.196 167.919C143.177 168.296 144.009 168.832 144.703 169.507C145.396 170.182 145.931 170.966 146.297 171.87C146.664 172.773 146.852 173.736 146.852 174.778V175.403C146.852 176.406 146.674 177.349 146.317 178.232C145.961 179.115 145.446 179.9 144.762 180.575C144.079 181.25 143.246 181.776 142.266 182.163C141.285 182.55 140.156 182.738 138.898 182.738V182.719ZM138.888 178.768C139.611 178.768 140.215 178.609 140.691 178.302C141.166 177.994 141.523 177.557 141.761 176.991C141.998 176.426 142.127 175.79 142.127 175.086C142.127 174.341 141.998 173.686 141.751 173.12C141.503 172.555 141.137 172.108 140.651 171.78C140.166 171.453 139.581 171.284 138.888 171.284C138.195 171.284 137.61 171.453 137.125 171.78C136.639 172.108 136.273 172.555 136.025 173.12C135.778 173.686 135.649 174.341 135.649 175.086C135.649 175.79 135.768 176.436 136.015 176.991C136.253 177.557 136.62 177.994 137.105 178.302C137.59 178.609 138.185 178.768 138.898 178.768H138.888Z" fill="#171B5B"/>
    <path d="M2.04059 117.865H1.08964C0.487846 117.865 0 118.354 0 118.957V145.508C0 146.111 0.487846 146.6 1.08964 146.6H2.04059C2.64238 146.6 3.13023 146.111 3.13023 145.508V118.957C3.13023 118.354 2.64238 117.865 2.04059 117.865Z" fill="#171B5B"/>
</svg>
