<svg width="95" height="34" viewBox="0 0 95 34" fill="none" xmlns="http://www.w3.org/2000/svg">
    <path d="M17.3964 18.4698L24.1168 9.54673C24.3685 9.2136 24.1264 8.74247 23.7052 8.74247H16.4329C16.2683 8.74247 16.1182 8.82337 16.0214 8.95186L8.19224 19.4311V1.75152C8.1874 1.4755 7.955 1.24707 7.67418 1.24707H0.513226C0.227562 1.25183 0 1.48026 0 1.75628L0.0096835 31.9853C0.0096835 32.2613 0.237246 32.4898 0.522909 32.4898H7.68386C7.96468 32.4898 8.19709 32.2613 8.19709 31.9853V21.0587H10.3081L17.5126 32.2518C17.6046 32.3994 17.7692 32.485 17.9435 32.485H25.8404C26.2471 32.485 26.4941 32.0377 26.2665 31.7045L17.3916 18.4746L17.3964 18.4698Z" fill="#171B5B"/>
    <path d="M33.0893 8.12358C34.5563 8.12358 35.636 7.74286 36.3284 6.98618C37.0159 6.2295 37.3645 5.25391 37.3597 4.06417C37.3597 2.87442 37.0159 1.89883 36.3236 1.14216C35.636 0.380718 34.5418 0 33.0457 0C31.5786 0 30.4892 0.380718 29.7872 1.1374C29.0803 1.89407 28.7317 2.86966 28.7317 4.05941C28.7317 5.24915 29.0851 6.22475 29.792 6.98142C30.4989 7.7381 31.598 8.11882 33.0989 8.11882" fill="#171B5B"/>
    <path d="M27.8885 14.9384H28.9537L28.9585 31.9756C28.9585 32.2516 29.1861 32.48 29.4717 32.48H36.6327C36.9135 32.48 37.1459 32.2516 37.1459 31.9756V14.9337L37.1362 9.93199C37.1362 9.55603 36.7295 9.30857 36.3857 9.48465L27.6464 13.9866C27.1719 14.2294 27.351 14.9337 27.8836 14.9337" fill="#171B5B"/>
    <path d="M40.569 14.9336H41.6342L41.6391 31.9707C41.6391 32.2467 41.8666 32.4752 42.1523 32.4752H49.3132C49.5941 32.4752 49.8265 32.2467 49.8265 31.9707V14.9288L49.8168 9.92711C49.8168 9.55115 49.4101 9.30368 49.0663 9.47977L40.327 13.9818C39.8525 14.2245 40.0316 14.9288 40.5642 14.9288" fill="#171B5B"/>
    <path d="M45.7989 8.11882C47.266 8.11882 48.3457 7.7381 49.0381 6.98142C49.7256 6.22475 50.0742 5.24916 50.0694 4.05941C50.0694 2.86966 49.7256 1.89407 49.0332 1.1374C48.3457 0.380718 47.2515 0 45.7505 0C44.2835 0 43.1941 0.380718 42.492 1.1374C41.7851 1.89407 41.4365 2.86966 41.4365 4.05941C41.4365 5.24916 41.79 6.22475 42.492 6.98142C43.1989 7.7381 44.298 8.11882 45.7989 8.11882Z" fill="#171B5B"/>
    <path d="M68.6512 8.10925C65.9204 8.10925 63.8336 9.08484 62.3763 11.0313C61.2143 12.5827 60.5219 14.61 60.2895 17.1037V9.23713C60.2895 8.96111 60.0571 8.73268 59.7763 8.73268H54.3244C54.0436 8.73268 53.8112 8.96111 53.8112 9.23713L53.8209 31.966C53.8209 32.242 54.0485 32.4705 54.3341 32.4705H61.4951C61.7759 32.4705 62.0083 32.242 62.0083 31.966V20.6682C62.0083 18.8407 62.507 17.4416 63.5092 16.466C64.5115 15.4952 65.9301 15.005 67.7603 15.005H69.1354C69.4162 15.005 69.6486 14.7813 69.6486 14.5006V8.60894C69.6486 8.33292 69.4162 8.10449 69.1354 8.10449H68.656L68.6512 8.10925Z" fill="#171B5B"/>
    <path d="M94.9952 19.9357C94.9952 17.7228 94.511 15.6764 93.5475 13.7919C92.584 11.9121 91.1896 10.394 89.3787 9.24228C87.5631 8.09537 85.3552 7.51953 82.7552 7.51953C80.7943 7.51953 79.0416 7.85742 77.4922 8.53319C75.9429 9.20897 74.6356 10.1227 73.5656 11.2744C72.4956 12.426 71.6821 13.7395 71.1108 15.2196C70.5395 16.6996 70.2587 18.2463 70.2587 19.8548V20.7162C70.2587 22.2676 70.5443 23.7762 71.1157 25.242C71.687 26.7077 72.5149 28.0307 73.5946 29.2062C74.6743 30.3864 76.0058 31.3192 77.5891 32.0092C79.1675 32.6993 80.9832 33.0419 83.0312 33.0419C85.1083 33.0419 86.9433 32.6803 88.5363 31.9617C90.1292 31.243 91.4462 30.2532 92.4823 28.9873C93.3829 27.888 94.0268 26.6554 94.4093 25.2943C94.4965 24.9802 94.2544 24.6709 93.9252 24.6709H87.5825C87.4082 24.6709 87.2435 24.7613 87.1564 24.9088C86.8562 25.4323 86.3914 25.8559 85.7668 26.1795C85.0502 26.5555 84.1351 26.7411 83.0264 26.7411C81.7675 26.7411 80.7459 26.4841 79.9567 25.9653C79.1675 25.4466 78.5816 24.709 78.1991 23.7477C78.0394 23.3431 77.9135 22.9006 77.8215 22.4342H94.5013C94.7773 22.4294 95 22.2105 95 21.9392V19.931L94.9952 19.9357ZM79.9954 14.5295C80.7701 14.0536 81.6852 13.8157 82.7359 13.8157C83.8156 13.8157 84.7161 14.0584 85.4327 14.5485C86.1493 15.0387 86.6916 15.7478 87.0547 16.6806C87.2339 17.1422 87.3694 17.6514 87.4614 18.213H77.7731C77.8747 17.6514 78.02 17.1374 78.2137 16.6853C78.6204 15.724 79.2159 15.0054 79.9906 14.5295" fill="#171B5B"/>
</svg>