<svg width="173" height="284" viewBox="0 0 173 284" fill="none" xmlns="http://www.w3.org/2000/svg">
    <mask id="path-1-outside-1_26_803" maskUnits="userSpaceOnUse" x="0" y="0" width="173" height="284" fill="black">
        <rect fill="white" width="173" height="284"/>
        <path d="M136.821 282.77H35.9189C16.6277 282.77 1 267.119 1 247.822L1 35.9488C1 16.6511 16.6377 1 35.9189 1L136.811 1C156.093 1 171.73 16.6511 171.73 35.9488V247.822C171.73 267.119 156.093 282.77 136.811 282.77"/>
    </mask>
    <path d="M136.821 282.77H35.9189C16.6277 282.77 1 267.119 1 247.822L1 35.9488C1 16.6511 16.6377 1 35.9189 1L136.811 1C156.093 1 171.73 16.6511 171.73 35.9488V247.822C171.73 267.119 156.093 282.77 136.811 282.77" fill="#A2EE00"/>
    <path d="M136.821 281.77H35.9189V283.77H136.821V281.77ZM35.9189 281.77C17.181 281.77 2 266.568 2 247.822H0C0 267.67 16.0744 283.77 35.9189 283.77V281.77ZM2 247.822L2 35.9488H0L0 247.822H2ZM2 35.9488C2 17.2026 17.1908 2 35.9189 2V0C16.0846 0 0 16.0996 0 35.9488H2ZM35.9189 2L136.811 2V0L35.9189 0V2ZM136.811 2C155.54 2 170.73 17.2026 170.73 35.9488H172.73C172.73 16.0996 156.646 0 136.811 0V2ZM170.73 35.9488V247.822H172.73V35.9488H170.73ZM170.73 247.822C170.73 266.568 155.54 281.77 136.811 281.77V283.77C156.646 283.77 172.73 267.671 172.73 247.822H170.73Z" fill="#171B5B" mask="url(#path-1-outside-1_26_803)"/>
    <path d="M45.9963 148.203C45.9963 155.395 40.1447 161.232 32.9381 161.232C25.7315 161.232 19.8799 155.405 19.8799 148.203C19.8799 141 25.7315 135.184 32.9381 135.184C40.1447 135.184 45.9963 141.01 45.9963 148.203Z" fill="#171B5B"/>
    <path d="M81.8986 148.031C81.8986 155.224 76.0571 161.06 68.8404 161.06C61.6238 161.06 55.7822 155.224 55.7822 148.031C55.7822 140.838 61.6338 135.012 68.8404 135.012C76.047 135.012 81.8986 140.838 81.8986 148.031Z" fill="#171B5B"/>
    <path d="M116.778 148.203C116.778 155.395 110.926 161.232 103.719 161.232C96.5127 161.232 90.6611 155.405 90.6611 148.203C90.6611 141 96.5027 135.184 103.719 135.184C110.936 135.184 116.778 141.01 116.778 148.203Z" fill="#171B5B"/>
    <path d="M152.861 148.375C152.861 155.567 147.009 161.404 139.802 161.404C132.596 161.404 126.744 155.577 126.744 148.375C126.744 141.172 132.586 135.355 139.802 135.355C147.019 135.355 152.861 141.192 152.861 148.375Z" fill="#171B5B"/>
    <path d="M45.9963 218.984C45.9963 226.177 40.1447 232.013 32.9381 232.013C25.7315 232.013 19.8799 226.177 19.8799 218.984C19.8799 211.791 25.7315 205.965 32.9381 205.965C40.1447 205.965 45.9963 211.791 45.9963 218.984Z" fill="#171B5B"/>
    <path d="M81.8986 218.812C81.8986 226.005 76.0571 231.841 68.8404 231.841C61.6238 231.841 55.7822 226.015 55.7822 218.812C55.7822 211.609 61.6338 205.793 68.8404 205.793C76.047 205.793 81.8986 211.629 81.8986 218.812Z" fill="#171B5B"/>
    <path d="M116.778 218.984C116.778 226.177 110.926 232.013 103.719 232.013C96.5127 232.013 90.6611 226.177 90.6611 218.984C90.6611 211.791 96.5027 205.965 103.719 205.965C110.936 205.965 116.778 211.791 116.778 218.984Z" fill="#171B5B"/>
    <path d="M152.861 219.152C152.861 226.345 147.009 232.181 139.802 232.181C132.596 232.181 126.744 226.355 126.744 219.152C126.744 211.949 132.586 206.133 139.802 206.133C147.019 206.133 152.861 211.959 152.861 219.152Z" fill="#171B5B"/>
    <path d="M45.9963 254.455C45.9963 261.648 40.1447 267.484 32.9381 267.484C25.7315 267.484 19.8799 261.648 19.8799 254.455C19.8799 247.262 25.7315 241.426 32.9381 241.426C40.1447 241.426 45.9963 247.252 45.9963 254.455Z" fill="#FF4D54"/>
    <path d="M81.8986 254.285C81.8986 261.477 76.0571 267.314 68.8404 267.314C61.6238 267.314 55.7822 261.488 55.7822 254.285C55.7822 247.082 61.6338 241.266 68.8404 241.266C76.047 241.266 81.8986 247.102 81.8986 254.285Z" fill="#171B5B"/>
    <path d="M116.778 254.455C116.778 261.648 110.926 267.484 103.719 267.484C96.5127 267.484 90.6611 261.648 90.6611 254.455C90.6611 247.262 96.5027 241.426 103.719 241.426C110.936 241.426 116.778 247.252 116.778 254.455Z" fill="#DDCE08"/>
    <path d="M152.861 254.625C152.861 261.817 147.009 267.654 139.802 267.654C132.596 267.654 126.744 261.827 126.744 254.625C126.744 247.422 132.586 241.605 139.802 241.605C147.019 241.605 152.861 247.442 152.861 254.625Z" fill="#0DCE6A"/>
    <path d="M152.861 183.851C152.861 191.044 147.009 196.88 139.802 196.88C132.596 196.88 126.744 191.054 126.744 183.851C126.744 176.648 132.586 170.832 139.802 170.832C147.019 170.832 152.861 176.669 152.861 183.851Z" fill="#171B5B"/>
    <path d="M117.641 183.504C117.641 190.696 111.799 196.533 104.583 196.533C97.366 196.533 91.5244 190.696 91.5244 183.504C91.5244 176.311 97.376 170.484 104.583 170.484C111.789 170.484 117.641 176.311 117.641 183.504Z" fill="#171B5B"/>
    <path d="M81.7278 183.671C81.7278 190.864 75.8761 196.701 68.6695 196.701C61.4629 196.701 55.6113 190.874 55.6113 183.671C55.6113 176.469 61.4629 170.652 68.6695 170.652C75.8761 170.652 81.7278 176.479 81.7278 183.671Z" fill="#171B5B"/>
    <path d="M46.3371 183.671C46.3371 190.864 40.4855 196.701 33.2789 196.701C26.0723 196.701 20.2207 190.874 20.2207 183.671C20.2207 176.469 26.0723 170.652 33.2789 170.652C40.4855 170.652 46.3371 176.479 46.3371 183.671Z" fill="#171B5B"/>
    <path d="M33.7012 153.164H32.6172V146.694H30.2686V145.831C31.5031 145.831 32.6273 145.499 32.8782 144.133H33.7113V153.164H33.7012Z" fill="white"/>
    <path d="M66.1406 147.327C66.0502 145.499 67.1342 144.133 69.0513 144.133C70.6372 144.133 71.8918 145.047 71.8918 146.735C71.8918 148.322 70.8178 149.125 69.6937 149.829C68.5595 150.522 67.3651 151.094 67.1543 152.21H71.8015V153.164H65.8896C66.0703 151.024 67.1543 150.261 68.429 149.467C69.9647 148.523 70.7375 147.96 70.7375 146.715C70.7375 145.73 69.9446 145.087 68.9911 145.087C67.7264 145.087 67.1945 146.242 67.2246 147.327H66.1406Z" fill="white"/>
    <path d="M103.359 148.003C103.529 148.013 103.68 148.013 103.83 148.013C104.754 148.013 105.557 147.52 105.557 146.536C105.557 145.551 104.864 145.079 103.951 145.079C102.766 145.079 102.254 145.983 102.234 147.038H101.15C101.211 145.32 102.134 144.125 103.951 144.125C105.527 144.125 106.711 144.878 106.711 146.546C106.711 147.34 106.149 148.023 105.456 148.344V148.374C106.55 148.615 107.092 149.479 107.092 150.564C107.092 152.372 105.677 153.317 103.981 153.317C102.144 153.317 100.93 152.232 100.97 150.373H102.054C102.094 151.549 102.746 152.362 103.981 152.362C105.045 152.362 105.948 151.709 105.948 150.614C105.948 149.52 105.095 148.877 104.021 148.877C103.81 148.877 103.579 148.887 103.369 148.917V148.003H103.359Z" fill="white"/>
    <path d="M34.8852 185.047H36.1097V186.001H34.8852V188.121H33.8614V186.001H29.8867V184.956L34.0119 179.09H34.8852V185.047ZM33.8614 185.047V180.627H33.8313L30.8202 185.047H33.8614Z" fill="white"/>
    <path d="M71.2497 180.198H67.5962L67.1144 182.8L67.1446 182.83C67.536 182.388 68.2185 182.177 68.8308 182.177C70.4367 182.177 71.7516 183.212 71.7516 185.271C71.7516 186.798 70.6876 188.275 68.5899 188.275C67.0141 188.275 65.7394 187.321 65.6992 185.693H66.7832C66.8434 186.627 67.5962 187.321 68.6903 187.321C69.7843 187.321 70.6073 186.617 70.6073 185.181C70.6073 183.985 69.7743 183.132 68.5598 183.132C67.8672 183.132 67.2951 183.473 66.8736 183.985L65.9401 183.935L66.7832 179.254H71.2497V180.208V180.198Z" fill="white"/>
    <path d="M106.239 181.402C106.138 180.588 105.576 180.056 104.723 180.056C102.876 180.056 102.575 182.095 102.525 183.481L102.555 183.512C103.067 182.688 103.83 182.326 104.814 182.326C106.55 182.326 107.584 183.582 107.584 185.25C107.584 186.565 106.841 188.283 104.563 188.283C101.883 188.283 101.451 185.842 101.451 183.944C101.451 181.462 102.204 179.102 104.783 179.102C106.279 179.102 107.212 179.945 107.333 181.402H106.249H106.239ZM102.736 185.31C102.736 186.435 103.428 187.319 104.613 187.319C105.797 187.319 106.44 186.385 106.44 185.32C106.44 184.255 105.847 183.271 104.613 183.271C103.378 183.271 102.736 184.175 102.736 185.31Z" fill="white"/>
    <path d="M36.4105 215.909C34.5837 217.717 33.0982 221.032 32.9376 223.855H31.7232C31.9239 220.801 33.3994 218.008 35.2964 215.999H30.5488V214.984H36.4105V215.909Z" fill="white"/>
    <path d="M69.1119 214.824C71.0892 214.824 71.862 215.979 71.862 217.125C71.862 217.928 71.3501 218.662 70.6074 218.993C71.6914 219.335 72.2133 220.128 72.2133 221.243C72.2133 222.991 70.8884 223.996 69.2122 223.996C67.536 223.996 66.1309 223.092 66.1309 221.243C66.1309 220.179 66.703 219.345 67.7167 218.993C66.9639 218.692 66.452 217.938 66.452 217.125C66.452 215.638 67.7167 214.824 69.1119 214.824ZM69.2122 223.052C70.2962 223.052 71.0591 222.298 71.0591 221.294C71.0591 220.289 70.2159 219.576 69.1922 219.576C68.1182 219.576 67.2751 220.259 67.2751 221.304C67.2751 222.348 68.078 223.052 69.2022 223.052M69.2122 218.621C70.0654 218.621 70.7078 218.089 70.7078 217.175C70.7078 216.261 70.0654 215.789 69.1922 215.789C68.3189 215.789 67.6063 216.271 67.6063 217.175C67.6063 218.169 68.3189 218.621 69.2122 218.621Z" fill="white"/>
    <path d="M102.334 221.675C102.414 222.549 103.126 223.052 103.99 223.052C105.315 223.052 105.967 221.896 106.037 219.566L106.007 219.536C105.596 220.299 104.793 220.781 103.909 220.781C102.073 220.781 101.049 219.546 101.049 217.768C101.049 215.99 102.273 214.824 104.02 214.824C105.766 214.824 107.121 215.728 107.121 219.144C107.121 222.268 106.178 224.006 103.98 224.006C102.464 224.006 101.37 223.232 101.229 221.675H102.313H102.334ZM103.98 215.779C102.685 215.779 102.203 216.813 102.203 217.918C102.203 218.913 102.946 219.827 103.99 219.827C105.124 219.827 105.837 218.913 105.837 217.838C105.837 216.763 105.184 215.779 103.97 215.779" fill="white"/>
    <path d="M68.6908 249.781C71.5213 249.781 71.7019 252.383 71.7019 254.382C71.7019 256.381 71.5213 258.963 68.6908 258.963C65.8604 258.963 65.6797 256.361 65.6797 254.382C65.6797 252.403 65.8604 249.781 68.6908 249.781ZM68.6908 258.009C70.5376 258.009 70.5577 255.718 70.5577 254.372C70.5577 253.026 70.5477 250.746 68.6908 250.746C66.8339 250.746 66.8239 253.036 66.8239 254.372C66.8239 255.708 66.8339 258.009 68.6908 258.009Z" fill="white"/>
    <path d="M144.098 187.118C143.908 187.118 143.727 187.048 143.587 186.907L140.003 183.261C139.933 183.18 139.803 183.18 139.722 183.261L136.079 186.676C135.788 186.947 135.336 186.937 135.065 186.646C134.794 186.355 134.804 185.903 135.095 185.631L138.739 182.216C139.381 181.613 140.405 181.633 141.027 182.266L144.61 185.913C144.881 186.194 144.881 186.646 144.6 186.927C144.46 187.068 144.279 187.128 144.098 187.128" fill="white"/>
    <path d="M139.963 222.33C139.542 222.33 139.11 222.169 138.799 221.848L135.216 218.201C134.935 217.92 134.945 217.468 135.226 217.186C135.507 216.905 135.958 216.915 136.239 217.197L139.823 220.843C139.903 220.923 140.023 220.923 140.104 220.843L143.747 217.428C144.038 217.156 144.49 217.166 144.761 217.458C145.032 217.749 145.022 218.201 144.731 218.462L141.087 221.878C140.776 222.169 140.375 222.32 139.973 222.32" fill="white"/>
    <path d="M138.137 258.967C137.946 258.967 137.765 258.897 137.635 258.756L134.925 256.054C134.644 255.773 134.644 255.321 134.925 255.049C135.206 254.768 135.657 254.768 135.938 255.049L138.137 257.239L144.008 251.383C144.289 251.102 144.741 251.102 145.022 251.383C145.303 251.664 145.303 252.116 145.022 252.387L138.648 258.746C138.518 258.877 138.327 258.957 138.147 258.957" fill="#171B5B"/>
    <path d="M36.0097 258.907C35.829 258.907 35.6383 258.837 35.5078 258.696L29.2547 252.458C28.9737 252.176 28.9737 251.724 29.2547 251.453C29.5358 251.172 29.9874 251.172 30.2685 251.453L36.5216 257.681C36.8026 257.963 36.8026 258.415 36.5216 258.696C36.381 258.837 36.2004 258.907 36.0197 258.907" fill="#171B5B"/>
    <path d="M29.8865 258.716C29.7058 258.716 29.5151 258.646 29.3846 258.505C29.1036 258.224 29.1036 257.772 29.3846 257.491L35.5072 251.383C35.7882 251.102 36.2399 251.102 36.521 251.383C36.802 251.664 36.802 252.116 36.521 252.397L30.3983 258.505C30.2578 258.646 30.0772 258.716 29.8965 258.716" fill="#171B5B"/>
    <path d="M109.822 255.751H104.151C103.76 255.751 103.438 255.429 103.438 255.037C103.438 254.646 103.76 254.324 104.151 254.324H109.822C110.213 254.324 110.535 254.646 110.535 255.037C110.535 255.429 110.213 255.751 109.822 255.751Z" fill="#171B5B"/>
    <path d="M104.272 257.771V252.437C104.272 252.116 103.951 251.905 103.67 252.035L98.2095 254.637C97.8883 254.788 97.8783 255.27 98.2095 255.431L103.67 258.163C103.951 258.304 104.282 258.093 104.282 257.771" fill="#171B5B"/>
    <path d="M139.923 152.754C137.544 152.754 135.617 150.825 135.617 148.454C135.617 146.957 136.38 145.601 137.645 144.808C137.815 144.707 138.036 144.757 138.136 144.918C138.237 145.089 138.187 145.3 138.026 145.41C136.962 146.073 136.33 147.208 136.33 148.454C136.33 150.433 137.946 152.04 139.923 152.04C141.9 152.04 143.516 150.433 143.516 148.454C143.516 147.208 142.884 146.063 141.81 145.41C141.639 145.31 141.589 145.089 141.7 144.918C141.8 144.747 142.021 144.697 142.191 144.797C143.466 145.591 144.229 146.957 144.229 148.454C144.229 150.825 142.292 152.754 139.923 152.754Z" fill="white"/>
    <path d="M139.843 146.854C139.642 146.854 139.481 146.693 139.481 146.502V144.252C139.481 144.051 139.642 143.891 139.843 143.891C140.044 143.891 140.204 144.051 140.204 144.252V146.502C140.204 146.703 140.044 146.854 139.843 146.854Z" fill="white"/>
    <path d="M144.509 118.436H28.23C21.8821 118.436 16.6855 113.236 16.6855 106.881L16.6855 79.4063C16.6855 73.052 21.8821 67.8516 28.23 67.8516H144.509C150.857 67.8516 156.054 73.052 156.054 79.4063V106.881C156.054 113.236 150.857 118.436 144.509 118.436Z" fill="#A2EE00" stroke="#171B5B"/>
    <path d="M146.88 112.96H25.6921C23.775 112.96 22.1992 111.383 22.1992 109.464L22.1992 77.3787C22.1992 75.46 23.775 73.8828 25.6921 73.8828H146.88C148.797 73.8828 150.372 75.46 150.372 77.3787V109.464C150.372 111.383 148.797 112.96 146.88 112.96Z" fill="#FAFAFA"/>
    <path d="M63.0494 38.7734L68.2586 31.7414C68.4493 31.4803 68.2586 31.1086 67.9374 31.1086H62.3066C62.1762 31.1086 62.0657 31.1688 61.9854 31.2693L55.913 39.5268V25.5835C55.913 25.3625 55.7324 25.1816 55.5115 25.1816H49.9611C49.7402 25.1816 49.5596 25.3625 49.5596 25.5835V49.4318C49.5596 49.6528 49.7402 49.8337 49.9611 49.8337H55.5115C55.7324 49.8337 55.913 49.6528 55.913 49.4318V40.8127H57.5491L63.1297 49.6428C63.1999 49.7533 63.3304 49.8236 63.4609 49.8236H69.5835C69.8946 49.8236 70.0854 49.472 69.9147 49.2108L63.0494 38.7734Z" fill="#171B5B"/>
    <path d="M74.6217 30.6156C75.7559 30.6156 76.599 30.3142 77.131 29.7215C77.663 29.1188 77.934 28.3553 77.934 27.4211C77.934 26.4868 77.663 25.7133 77.131 25.1206C76.599 24.5179 75.7459 24.2266 74.5916 24.2266C73.4374 24.2266 72.6143 24.5279 72.0623 25.1206C71.5203 25.7234 71.2393 26.4868 71.2393 27.4211C71.2393 28.3553 71.5103 29.1288 72.0623 29.7215C72.6043 30.3243 73.4574 30.6156 74.6217 30.6156Z" fill="white"/>
    <path d="M71.1792 35.9892H72.0023V49.4303C72.0023 49.6513 72.1829 49.8321 72.4037 49.8321H77.9542C78.1751 49.8321 78.3557 49.6513 78.3557 49.4303V32.0413C78.3557 31.7399 78.0345 31.5491 77.7736 31.6897L70.9986 35.2358C70.6272 35.4267 70.7677 35.9892 71.1792 35.9892Z" fill="#171B5B"/>
    <path d="M81.0054 35.9892H81.8284V49.4303C81.8284 49.6513 82.0091 49.8321 82.2299 49.8321H87.7804C88.0012 49.8321 88.1819 49.6513 88.1819 49.4303V32.0413C88.1819 31.7399 87.8607 31.5491 87.5997 31.6897L80.8247 35.2358C80.4534 35.4267 80.5939 35.9892 81.0054 35.9892Z" fill="#171B5B"/>
    <path d="M84.4381 30.6156C85.5723 30.6156 86.4154 30.3142 86.9474 29.7215C87.4794 29.1188 87.7504 28.3553 87.7504 27.4211C87.7504 26.4868 87.4794 25.7133 86.9474 25.1206C86.4154 24.5179 85.5623 24.2266 84.408 24.2266C83.2538 24.2266 82.4307 24.5279 81.8787 25.1206C81.3367 25.7234 81.0557 26.4868 81.0557 27.4211C81.0557 28.3553 81.3267 29.1288 81.8787 29.7215C82.4207 30.3243 83.2738 30.6156 84.4381 30.6156Z" fill="white"/>
    <path d="M102.755 30.6155C100.638 30.6155 99.0216 31.379 97.8975 32.916C96.9941 34.1415 96.4622 35.7388 96.2815 37.7077V31.4995C96.2815 31.2785 96.1008 31.0977 95.88 31.0977H91.6544C91.4336 31.0977 91.2529 31.2785 91.2529 31.4995V49.431C91.2529 49.652 91.4336 49.8328 91.6544 49.8328H97.2049C97.4257 49.8328 97.6064 49.652 97.6064 49.431V40.5205C97.6064 39.084 97.9978 37.979 98.7707 37.2055C99.5536 36.442 100.648 36.0502 102.063 36.0502H103.127C103.348 36.0502 103.528 35.8694 103.528 35.6484V31.0073C103.528 30.7863 103.348 30.6055 103.127 30.6055H102.755V30.6155Z" fill="#171B5B"/>
    <path d="M123.161 39.9485C123.161 38.2006 122.79 36.5832 122.037 35.1065C121.294 33.6198 120.21 32.4243 118.805 31.5202C117.4 30.6161 115.693 30.1641 113.676 30.1641C112.16 30.1641 110.795 30.4353 109.601 30.9677C108.396 31.5001 107.383 32.2234 106.56 33.1275C105.737 34.0316 105.094 35.0764 104.653 36.2417C104.211 37.407 103.99 38.6325 103.99 39.8983V40.5814C103.99 41.807 104.211 42.9924 104.653 44.1476C105.094 45.3029 105.737 46.3476 106.57 47.2718C107.403 48.206 108.437 48.9394 109.661 49.4818C110.886 50.0243 112.291 50.2955 113.877 50.2955C115.463 50.2955 116.908 50.0143 118.142 49.4417C119.377 48.8791 120.401 48.0955 121.204 47.091C121.906 46.2271 122.398 45.2526 122.699 44.1777C122.77 43.9266 122.579 43.6855 122.328 43.6855H117.42C117.289 43.6855 117.159 43.7558 117.089 43.8764C116.858 44.2882 116.496 44.6197 116.015 44.8809C115.463 45.1723 114.75 45.3229 113.887 45.3229C112.913 45.3229 112.12 45.122 111.508 44.7102C110.896 44.2983 110.444 43.7156 110.153 42.9622C110.033 42.6408 109.932 42.2992 109.862 41.9275H122.78C122.99 41.9275 123.171 41.7567 123.171 41.5357V39.9485H123.161ZM111.548 35.6791C112.15 35.3074 112.853 35.1166 113.676 35.1166C114.499 35.1166 115.212 35.3074 115.764 35.6992C116.316 36.0809 116.737 36.6435 117.018 37.3869C117.159 37.7485 117.259 38.1503 117.329 38.5924H109.822C109.902 38.1503 110.012 37.7385 110.163 37.3869C110.484 36.6234 110.936 36.0609 111.538 35.6892" fill="#171B5B"/>
</svg>
