<svg width="155" height="57" viewBox="0 0 155 57" fill="none" xmlns="http://www.w3.org/2000/svg">
    <g clip-path="url(#clip0_199_579)">
        <mask id="mask0_199_579" style="mask-type:luminance" maskUnits="userSpaceOnUse" x="0" y="0" width="155" height="57">
            <path d="M0 0L154.779 -4.31533e-07L154.779 57L1.58919e-07 57L0 0Z" fill="white"/>
        </mask>
        <g mask="url(#mask0_199_579)">
            <mask id="mask1_199_579" style="mask-type:luminance" maskUnits="userSpaceOnUse" x="0" y="0" width="155" height="57">
                <path d="M0 0L154.779 -4.31533e-07L154.779 57L1.58919e-07 57L0 0Z" fill="white"/>
            </mask>
            <g mask="url(#mask1_199_579)">
                <path d="M24.2044 0.00438082C11.0207 -0.248557 0.233371 10.4835 0.00522479 23.8518L6.65002e-08 23.8518L1.54944e-07 55.574C1.57139e-07 56.3613 0.625225 57.0008 1.395 57.0008L12.9956 57.0008C13.1789 57.001 13.3604 56.9643 13.5297 56.8927C13.6991 56.8211 13.853 56.716 13.9825 56.5834C14.1121 56.4509 14.2149 56.2935 14.2849 56.1203C14.3549 55.9471 14.3908 55.7615 14.3906 55.574L14.3906 47.5727C14.3906 47.1167 14.8382 46.8067 15.2562 46.967C17.9649 48.027 20.8409 48.5692 23.7411 48.5666C36.9684 48.5666 47.6703 37.505 47.4823 23.9319C47.3011 10.9021 36.9388 0.251975 24.2044 0.00438082Z" fill="#5E00CC"/>
                <path d="M15.7004 33.4769C13.6175 31.1916 12.5847 28.126 12.5847 24.2821C12.5847 20.4382 13.6523 17.3904 15.784 15.0891C17.9168 12.8031 20.8119 11.6602 24.4692 11.6602C27.3306 11.6602 29.7009 12.492 31.5975 14.1539C33.4766 15.8336 34.5756 18.0157 34.8978 20.7338L29.6347 20.7338C29.0078 17.9106 27.0276 16.1614 24.201 16.1614C22.2522 16.1614 20.7283 16.9059 19.5945 18.3951C18.459 19.902 17.8843 21.8578 17.8843 24.2821C17.8843 26.7064 18.4416 28.6462 19.5597 30.1513C20.6778 31.6583 22.2017 32.4028 24.1313 32.4028C27.0258 32.4028 29.0077 30.6714 29.633 27.8321L34.8647 27.8321C34.5773 30.5503 33.4592 32.7306 31.5121 34.396C29.5668 36.0758 27.1112 36.9058 24.1662 36.9058C20.5925 36.9058 17.7659 35.764 15.7004 33.4769Z" fill="white"/>
                <path d="M56.3555 45.5236C55.4185 44.4845 54.9494 43.097 54.9483 41.3608C54.9483 39.6241 55.4324 38.249 56.3938 37.2052C57.3528 36.1602 58.6427 35.6365 60.2636 35.6341C61.5175 35.6341 62.5665 35.9904 63.4106 36.7029C64.2558 37.4165 64.7684 38.3701 64.9484 39.5635L63.0797 39.5635C62.7105 38.1261 61.6586 37.2604 60.1834 37.2604C59.1466 37.2604 58.3252 37.6374 57.7191 38.3915C57.1049 39.1539 56.7978 40.1436 56.7978 41.3608C56.7967 42.5756 57.0985 43.563 57.7034 44.323C58.3037 45.0842 59.1153 45.4642 60.1382 45.463C61.6498 45.463 62.7174 44.6134 63.064 43.1688L64.9292 43.1688C64.7551 44.3551 64.2355 45.3051 63.3705 46.0188C62.5032 46.7331 61.4356 47.0875 60.1521 47.0875C58.5545 47.0899 57.2872 46.5692 56.3502 45.5254L56.3555 45.5236ZM69.8962 47.0858C68.6678 47.087 67.6769 46.6998 66.9233 45.9244C66.1721 45.1549 65.796 44.1384 65.7948 42.8749C65.7948 41.6102 66.171 40.5984 66.932 39.82C67.6844 39.0434 68.6725 38.6557 69.8962 38.6569C71.1176 38.6593 72.108 39.0494 72.8673 39.8272C73.6284 40.6038 74.0046 41.6262 74.0046 42.8749C74.0046 44.1235 73.6284 45.1531 72.8743 45.9244C72.1161 46.6998 71.1234 47.087 69.8962 47.0858ZM69.8962 45.6091C70.6044 45.6091 71.1774 45.3526 71.6151 44.8396C72.0528 44.3314 72.2705 43.677 72.2682 42.8767C72.2682 42.0739 72.0505 41.4166 71.6151 40.9048C71.1763 40.3942 70.6033 40.1401 69.8962 40.1425C69.1903 40.1401 68.6219 40.3942 68.1912 40.9048C67.7541 41.4143 67.5398 42.0662 67.5398 42.8767C67.5398 43.6871 67.7541 44.3373 68.1912 44.8485C68.6219 45.3568 69.1903 45.6109 69.8962 45.6109M75.2132 46.9896L75.2132 35.7285L76.9095 35.7285L76.9095 46.9914L75.2132 46.9896ZM82.2196 47.0858C80.9912 47.087 80.0008 46.6998 79.2484 45.9244C78.4961 45.1549 78.1199 44.1384 78.1199 42.8749C78.1199 41.6102 78.4943 40.5984 79.2554 39.82C80.0101 39.0434 80.9981 38.6557 82.2196 38.6569C83.4398 38.6593 84.4308 39.0494 85.1924 39.8272C85.9518 40.6038 86.3279 41.6262 86.3279 42.8749C86.3279 44.1235 85.9518 45.1531 85.1994 45.9244C84.4401 46.6998 83.4468 47.087 82.2196 47.0858ZM82.2196 45.6091C82.9278 45.6091 83.5014 45.3526 83.9402 44.8396C84.3756 44.3314 84.5928 43.677 84.5916 42.8767C84.5928 42.0739 84.3756 41.4166 83.9402 40.9048C83.5002 40.3942 82.9266 40.1401 82.2196 40.1425C81.5137 40.1401 80.9459 40.3942 80.5163 40.9048C80.0774 41.4143 79.8632 42.0662 79.8632 42.8767C79.8632 43.6871 80.0792 44.3373 80.5163 44.8485C80.9459 45.3568 81.5137 45.6109 82.2196 45.6109M99.8182 42.2479L99.8182 46.9914L98.1201 46.9914L98.1201 42.3565C98.1201 40.9119 97.5367 40.1567 96.4378 40.1567C95.8561 40.1567 95.3928 40.3693 95.048 40.7944C94.7032 41.2183 94.5319 41.799 94.5342 42.5364L94.5342 46.9896L92.8223 46.9896L92.8223 42.3583C92.8223 40.912 92.2301 40.1585 91.1173 40.1585C90.8531 40.1479 90.5904 40.2023 90.351 40.3169C90.1116 40.4316 89.9026 40.6033 89.7414 40.8175C89.4047 41.2569 89.2364 41.8459 89.2364 42.5845L89.2364 46.9914L87.5383 46.9914L87.5383 38.7531L89.0134 38.7531L89.205 39.8361C89.7786 39.0583 90.5646 38.6652 91.5631 38.6569C92.6673 38.6569 93.5833 39.145 94.0431 40.1567C94.5882 39.2144 95.5165 38.6569 96.7983 38.6569C98.465 38.6569 99.8182 39.6401 99.8182 42.2461L99.8182 42.2479ZM108.26 39.788C108.96 40.542 109.31 41.571 109.311 42.8749C109.311 44.1788 108.958 45.146 108.244 45.9244C107.53 46.701 106.624 47.0858 105.51 47.0858C104.397 47.0858 103.475 46.6547 102.883 45.7979L102.676 46.9914L101.203 46.9914L101.203 35.7285L102.899 35.7285L102.899 39.9786C103.536 39.0986 104.412 38.6587 105.511 38.6587C106.609 38.6587 107.552 39.0345 108.26 39.788ZM106.939 44.8645C107.369 44.3551 107.584 43.6925 107.584 42.8767C107.584 42.0609 107.368 41.416 106.932 40.9048C106.494 40.3954 105.925 40.1413 105.226 40.1425C104.527 40.1425 103.961 40.3942 103.529 40.8977C103.1 41.4059 102.885 42.0603 102.885 42.8606C102.885 43.6622 103.101 44.3444 103.529 44.8556C103.961 45.3663 104.527 45.6228 105.227 45.6251C105.926 45.6251 106.502 45.3758 106.939 44.8645ZM111.38 37.597C111.244 37.6018 111.109 37.5779 110.982 37.5267C110.855 37.4755 110.74 37.3982 110.644 37.2996C110.545 37.2039 110.467 37.0876 110.415 36.9586C110.363 36.8296 110.339 36.6908 110.344 36.5515C110.34 36.4119 110.364 36.273 110.415 36.1435C110.466 36.0139 110.543 35.8965 110.64 35.7986C110.737 35.7006 110.853 35.6242 110.981 35.5742C111.108 35.5241 111.244 35.5015 111.38 35.5076C111.678 35.5065 111.926 35.6038 112.126 35.7998C112.319 35.9957 112.416 36.2469 112.417 36.5532C112.421 36.6915 112.398 36.8292 112.348 36.9577C112.298 37.0862 112.222 37.2026 112.126 37.2996C112.027 37.3968 111.91 37.4731 111.782 37.5242C111.654 37.5752 111.518 37.6 111.38 37.597ZM110.52 46.9914L110.52 38.7513L112.216 38.7513L112.216 46.9914L110.52 46.9914ZM121.429 45.4755L121.429 46.9896L120.531 46.9896C119.479 46.9896 119.056 46.5265 119.056 45.6715C118.45 46.6137 117.558 47.084 116.398 47.084C115.499 47.0864 114.778 46.872 114.233 46.441C113.687 46.017 113.413 45.428 113.411 44.674C113.411 42.9764 114.609 42.0341 116.852 42.0341L118.878 42.0341L118.878 41.539C118.878 40.6198 118.227 40.0552 117.119 40.0552C116.13 40.0552 115.43 40.5361 115.308 41.2664L113.641 41.2664C113.726 40.4565 114.087 39.82 114.724 39.3569C115.361 38.8914 116.185 38.6581 117.197 38.6569C119.348 38.6569 120.56 39.7096 120.56 41.6494L120.56 44.9483C120.56 45.349 120.714 45.4737 121.083 45.4737L121.429 45.4755ZM118.88 43.3238L116.776 43.3238C115.684 43.3238 115.139 43.737 115.139 44.5635C115.139 45.2618 115.708 45.7338 116.631 45.7338C117.328 45.7326 117.875 45.539 118.274 45.1531C118.665 44.7684 118.873 44.2571 118.881 43.6141L118.88 43.3238ZM85.1106 23.1386C85.1106 25.9833 84.1405 27.3727 81.8782 27.3727C79.6142 27.3727 78.6459 25.9833 78.6459 23.1386L78.6459 14.0471L74.0864 14.0471L74.0864 23.1386C74.0864 29.1575 77.2561 31.2077 81.8782 31.2077C86.5004 31.2077 89.6683 29.1575 89.6683 23.1386L89.6683 14.0471L85.1106 14.0471L85.1106 23.1386ZM63.5151 7.89648L54.9465 7.89648L54.9465 31.042L59.7968 31.042L59.7968 23.9331L63.5151 23.9331C68.6231 23.9331 71.9861 20.7927 71.9861 15.9317C71.9861 11.0707 68.6249 7.89648 63.5151 7.89648ZM63.0623 19.7988L59.7968 19.7988L59.7968 12.029L63.0623 12.029C65.5196 12.029 67.1045 13.5163 67.1045 15.9299C67.1045 18.3435 65.5179 19.7988 63.0623 19.7988ZM101.372 13.8476C98.8185 13.8476 97.2911 14.8487 96.234 16.1793L95.8125 14.0471L91.8331 14.0471L91.8331 31.0438L96.3925 31.0438L96.3925 22.3478C96.3925 19.4051 97.7509 17.6845 100.111 17.6845C102.471 17.6845 103.472 19.2056 103.472 22.0824L103.472 31.042L108.031 31.042L108.031 21.6192C108.031 15.7999 104.961 13.8476 101.372 13.8476ZM116.179 25.4204L116.179 17.9819L119.993 17.9819L119.993 14.0471L116.179 14.0471L116.179 9.28586L111.617 9.28586L111.617 14.0471L108.869 14.0471L108.869 17.9819L111.617 17.9819L111.617 26.181C111.617 29.4217 113.202 31.042 116.37 31.042L120.088 31.042L120.088 27.1073L117.824 27.1073C116.63 27.1073 116.179 26.6103 116.179 25.4204ZM147.795 20.5915C145.402 20.2958 143.981 20.164 143.981 18.8743C143.981 17.7824 145.143 17.1216 146.922 17.1216C148.699 17.1216 150.026 17.9481 150.155 19.3036L154.517 19.3036C154.291 15.832 151.221 13.8156 146.761 13.8156C142.494 13.7817 139.615 15.9976 139.615 19.3713C139.615 22.7432 142.623 23.7692 146.501 24.2305C149.183 24.5957 150.315 24.6937 150.315 26.083C150.315 27.2729 149.153 27.8999 147.245 27.8999C145.015 27.8999 143.755 26.8757 143.593 25.3884L139.26 25.3884C139.455 29.0257 142.589 31.2415 147.213 31.2415C151.837 31.2415 154.779 29.0916 154.779 25.7197C154.779 21.8846 151.609 20.9922 147.795 20.595L147.795 20.5915ZM129.583 31.3609C126.919 31.3609 124.794 30.5647 123.192 28.9598C121.591 27.3709 120.783 25.2637 120.783 22.6363C120.783 20.0072 121.591 17.9 123.194 16.2951C124.796 14.6902 126.921 13.894 129.583 13.894C132.248 13.894 134.387 14.6884 135.989 16.2933C137.591 17.9 138.384 20.0072 138.384 22.6345C138.384 25.2619 137.589 27.3887 135.989 28.9758C134.387 30.5647 132.246 31.3591 129.583 31.3591M129.583 27.5472C130.851 27.5472 131.866 27.093 132.628 26.1846C133.373 25.2761 133.754 24.0934 133.754 22.6328C133.754 21.1721 133.373 19.9894 132.628 19.081C131.866 18.1725 130.851 17.7183 129.583 17.7183C128.314 17.7183 127.316 18.1725 126.57 19.081C125.825 19.9894 125.461 21.1739 125.461 22.6328C125.461 24.0934 125.825 25.2761 126.57 26.1846C127.316 27.093 128.314 27.5472 129.583 27.5472Z" fill="black"/>
            </g>
        </g>
    </g>
    <defs>
        <clipPath id="clip0_199_579">
            <rect width="155" height="57" fill="white"/>
        </clipPath>
    </defs>
</svg>
