<svg width="757" height="721" viewBox="0 0 757 721" fill="none" xmlns="http://www.w3.org/2000/svg">
    <path d="M502.249 716.334L515.417 539.921L184.674 632.959L580.132 320.353L107.888 475.335L603.518 92.4103L135.04 179.532L328.098 44.9882" stroke="#ECE4FF" stroke-width="108.016" stroke-linejoin="bevel"/>
    <path d="M383.498 456.315C382.458 441.242 386.424 420.075 395.351 397.999C402.926 379.242 412.682 363.25 422.41 352.444C432.679 341.015 442.93 335.316 450.6 338.156C457.581 340.744 461.193 349.909 461.451 362.894C461.779 377.677 457.757 397.435 449.457 417.982C441.875 436.762 432.124 452.751 422.391 463.56C412.126 474.966 401.882 480.642 394.221 477.814C387.843 475.454 384.264 467.584 383.498 456.315Z" fill="#171B5B"/>
    <path d="M249.505 455.874L302.444 466.322C312.266 468.269 322.776 466.343 332.069 460.931L343.527 454.258C352.89 448.805 363.475 446.921 373.33 448.909L402.575 458.403L441.68 471.092C452.95 461.122 464.857 445.751 474.858 427.194C485.807 406.886 492.267 386.839 493.673 371.391L454.797 355.338L350.035 312.082C338.158 307.742 295.367 288.731 283.558 295.608L243.757 319.669L307.152 398.95C308.603 402.137 309.169 405.59 308.951 409.014C308.46 416.596 304.156 424.044 297.15 428.123L249.502 455.868L249.505 455.874Z" fill="white" stroke="#171B5B" stroke-miterlimit="10"/>
    <path d="M428.671 471.098C438.893 459.834 449.136 443.161 457.1 423.582C465.818 402.161 470.04 381.568 469.697 366.151C469.428 352.609 465.629 343.057 458.3 340.361L793.743 420.584L781.467 669.843L399.085 485.954C407.132 488.902 417.895 482.985 428.673 471.093L428.671 471.098Z" fill="#E5FCA6" stroke="#171B5B" stroke-miterlimit="10"/>
    <mask id="path-5-outside-1_2001_4" maskUnits="userSpaceOnUse" x="106.481" y="259.411" width="237.153" height="268.425" fill="black">
        <rect fill="white" x="106.481" y="259.411" width="237.153" height="268.425"/>
        <path d="M316.029 467.116L242.514 511.207C228.459 519.637 211.006 515.878 203.525 502.824L121.397 359.501C113.917 346.447 119.244 329.026 133.291 320.601L206.799 276.514C220.847 268.089 238.307 271.843 245.787 284.897L327.915 428.22C335.396 441.274 330.069 458.695 316.021 467.12"/>
    </mask>
    <path d="M316.029 467.116L242.514 511.207C228.459 519.637 211.006 515.878 203.525 502.824L121.397 359.501C113.917 346.447 119.244 329.026 133.291 320.601L206.799 276.514C220.847 268.089 238.307 271.843 245.787 284.897L327.915 428.22C335.396 441.274 330.069 458.695 316.021 467.12" fill="#A2EE00"/>
    <path d="M315.554 466.287L242.039 510.379L242.989 512.036L316.504 467.945L315.554 466.287ZM242.039 510.379C228.48 518.511 211.639 514.887 204.42 502.288L202.631 503.361C210.373 516.87 228.437 520.763 242.989 512.036L242.039 510.379ZM204.42 502.288L122.292 358.965L120.503 360.037L202.631 503.361L204.42 502.288ZM122.292 358.965C115.072 346.366 120.215 329.558 133.766 321.43L132.816 319.772C118.273 328.495 112.762 346.528 120.503 360.037L122.292 358.965ZM133.766 321.43L207.274 277.343L206.324 275.685L132.816 319.772L133.766 321.43ZM207.274 277.343C220.826 269.215 237.674 272.835 244.893 285.433L246.682 284.361C238.94 270.851 220.868 266.963 206.324 275.685L207.274 277.343ZM244.893 285.433L327.021 428.757L328.81 427.684L246.682 284.361L244.893 285.433ZM327.021 428.757C334.24 441.355 329.098 458.164 315.547 466.291L316.496 467.949C331.04 459.226 336.551 441.194 328.81 427.684L327.021 428.757Z" fill="#171B5B" mask="url(#path-5-outside-1_2001_4)"/>
    <path d="M199.349 414.683C202.233 419.635 200.468 426.075 195.414 429.058C190.359 432.041 183.919 430.452 181.031 425.493C178.143 420.534 179.915 414.108 184.97 411.125C190.024 408.142 196.465 409.731 199.349 414.683Z" fill="#171B5B"/>
    <path d="M224.176 399.884C227.059 404.835 225.302 411.271 220.241 414.258C215.179 417.245 208.742 415.645 205.858 410.693C202.974 405.741 204.742 399.308 209.797 396.325C214.851 393.342 221.292 394.932 224.176 399.884Z" fill="#171B5B"/>
    <path d="M248.433 385.741C251.317 390.693 249.553 397.133 244.498 400.116C239.444 403.098 233.003 401.509 230.115 396.55C227.227 391.592 228.992 385.169 234.054 382.182C239.116 379.195 245.549 380.789 248.433 385.741Z" fill="#171B5B"/>
    <path d="M273.526 371.105C276.41 376.057 274.646 382.498 269.591 385.48C264.536 388.463 258.096 386.874 255.208 381.915C252.32 376.956 254.085 370.534 259.147 367.547C264.208 364.56 270.646 366.161 273.526 371.105Z" fill="#171B5B"/>
    <path d="M228.291 463.768C231.175 468.72 229.411 475.16 224.357 478.143C219.302 481.125 212.857 479.529 209.973 474.577C207.09 469.626 208.858 463.192 213.912 460.209C218.967 457.227 225.407 458.816 228.291 463.768Z" fill="#171B5B"/>
    <path d="M253.118 448.968C256.002 453.92 254.245 460.356 249.183 463.343C244.122 466.33 237.688 464.736 234.8 459.778C231.912 454.819 233.684 448.393 238.739 445.41C243.794 442.427 250.238 444.023 253.118 448.968Z" fill="#171B5B"/>
    <path d="M277.376 434.825C280.26 439.777 278.495 446.217 273.441 449.2C268.386 452.183 261.942 450.587 259.058 445.635C256.174 440.683 257.935 434.254 262.997 431.267C268.058 428.28 274.492 429.873 277.376 434.825Z" fill="#171B5B"/>
    <path d="M302.467 420.187C305.351 425.139 303.587 431.579 298.532 434.562C293.477 437.545 287.037 435.956 284.149 430.997C281.261 426.038 283.026 419.616 288.088 416.629C293.149 413.642 299.583 415.235 302.467 420.187Z" fill="#171B5B"/>
    <path d="M242.795 488.366C245.679 493.318 243.915 499.758 238.861 502.741C233.806 505.723 227.362 504.127 224.478 499.175C221.594 494.223 223.358 487.783 228.412 484.8C233.467 481.818 239.908 483.407 242.795 488.366Z" fill="#FF4D54"/>
    <path d="M267.623 473.567C270.507 478.519 268.75 484.955 263.688 487.942C258.626 490.929 252.193 489.335 249.305 484.377C246.417 479.418 248.189 472.992 253.244 470.009C258.298 467.026 264.743 468.622 267.623 473.567Z" fill="#171B5B"/>
    <path d="M291.88 459.423C294.764 464.375 293 470.815 287.945 473.798C282.89 476.781 276.446 475.185 273.562 470.233C270.678 465.281 272.435 458.845 277.497 455.858C282.559 452.871 288.992 454.464 291.88 459.423Z" fill="#DDCE08"/>
    <path d="M316.972 444.786C319.856 449.738 318.092 456.178 313.037 459.161C307.982 462.144 301.542 460.555 298.654 455.596C295.766 450.637 297.531 444.215 302.593 441.228C307.654 438.241 314.092 439.841 316.972 444.786Z" fill="#0DCE6A"/>
    <path d="M288.032 395.707C290.916 400.659 289.152 407.099 284.097 410.082C279.043 413.065 272.602 411.476 269.714 406.517C266.826 401.558 268.592 395.136 273.653 392.149C278.715 389.162 285.152 390.762 288.032 395.707Z" fill="#171B5B"/>
    <path d="M263.466 409.868C266.35 414.819 264.593 421.256 259.532 424.242C254.47 427.229 248.032 425.629 245.149 420.677C242.265 415.725 244.033 409.292 249.087 406.309C254.142 403.327 260.582 404.916 263.466 409.868Z" fill="#171B5B"/>
    <path d="M238.63 424.669C241.514 429.621 239.75 436.061 234.696 439.044C229.641 442.027 223.201 440.437 220.313 435.479C217.425 430.52 219.197 424.093 224.251 421.111C229.306 418.128 235.746 419.717 238.63 424.669Z" fill="#171B5B"/>
    <path d="M214.088 439.14C216.972 444.092 215.208 450.532 210.153 453.515C205.099 456.498 198.658 454.909 195.77 449.95C192.882 444.991 194.655 438.565 199.709 435.582C204.764 432.599 211.204 434.188 214.088 439.14Z" fill="#171B5B"/>
    <path d="M192.747 423.194L191.981 423.644L189.368 419.174L187.709 420.15L187.36 419.553C188.232 419.04 188.893 418.344 188.518 417.296L189.107 416.95L192.754 423.19L192.747 423.194Z" fill="white"/>
    <path d="M212.838 405.925C212.039 404.702 212.252 403.31 213.601 402.515C214.716 401.858 215.967 401.968 216.646 403.132C217.284 404.227 216.852 405.226 216.344 406.177C215.824 407.125 215.214 408.016 215.514 408.872L218.784 406.945L219.168 407.603L215.009 410.055C214.275 408.504 214.731 407.528 215.308 406.452C216.009 405.164 216.326 404.456 215.825 403.597C215.429 402.918 214.613 402.803 213.942 403.198C213.052 403.723 213.143 404.74 213.6 405.476L212.838 405.925Z" fill="white"/>
    <path d="M238.94 391.161C239.064 391.097 239.17 391.035 239.276 390.972C239.926 390.589 240.293 389.917 239.897 389.238C239.501 388.559 238.824 388.521 238.181 388.899C237.348 389.39 237.351 390.226 237.761 390.962L236.999 391.411C236.35 390.202 236.519 388.994 237.797 388.241C238.906 387.588 240.042 387.616 240.713 388.766C241.032 389.314 240.911 390.018 240.553 390.527L240.565 390.547C241.432 390.26 242.161 390.631 242.597 391.379C243.325 392.626 242.709 393.864 241.515 394.568C240.223 395.329 238.932 395.085 238.213 393.786L238.976 393.337C239.477 394.131 240.263 394.421 241.131 393.91C241.88 393.468 242.253 392.644 241.812 391.888C241.372 391.133 240.513 391.044 239.758 391.489C239.609 391.576 239.451 391.679 239.315 391.787L238.947 391.157L238.94 391.161Z" fill="white"/>
    <path d="M206.615 444.826L207.476 444.318L207.86 444.976L206.998 445.484L207.851 446.946L207.13 447.37L206.278 445.908L203.483 447.556L203.062 446.836L203.605 441.08L204.219 440.718L206.615 444.826ZM205.894 445.25L204.117 442.202L204.096 442.215L203.755 446.511L205.894 445.25Z" fill="white"/>
    <path d="M229.89 426.609L227.32 428.124L228.027 430.118L228.06 430.127C228.158 429.659 228.553 429.231 228.984 428.977C230.114 428.311 231.455 428.48 232.283 429.9C232.897 430.953 232.743 432.412 231.267 433.282C230.158 433.936 228.878 433.806 228.195 432.7L228.958 432.251C229.376 432.87 230.184 433.036 230.954 432.582C231.723 432.129 232.02 431.303 231.442 430.312C230.961 429.488 230.032 429.244 229.177 429.748C228.69 430.035 228.425 430.508 228.334 431.036L227.657 431.388L226.368 427.81L229.51 425.958L229.894 426.616L229.89 426.609Z" fill="white"/>
    <path d="M254.629 413.137C254.231 412.617 253.622 412.483 253.022 412.837C251.722 413.603 252.331 415.134 252.853 416.111L252.886 416.119C252.915 415.339 253.306 414.773 253.998 414.365C255.22 413.645 256.452 414.082 257.123 415.233C257.652 416.14 257.821 417.633 256.218 418.577C254.332 419.689 253.047 418.184 252.283 416.875C251.285 415.163 250.865 413.223 252.68 412.154C253.732 411.534 254.728 411.729 255.399 412.683L254.636 413.133L254.629 413.137ZM253.737 417.284C254.189 418.06 255.032 418.383 255.865 417.891C256.698 417.4 256.774 416.49 256.346 415.755C255.918 415.021 255.105 414.588 254.237 415.1C253.368 415.611 253.28 416.501 253.737 417.284Z" fill="white"/>
    <path d="M220.336 465.616C219.778 467.621 220.066 470.523 221.089 472.537L220.234 473.04C219.147 470.851 219.062 468.313 219.588 466.141L216.248 468.109L215.84 467.409L219.964 464.979L220.336 465.616Z" fill="white"/>
    <path d="M242.547 451.514C243.938 450.694 244.946 451.171 245.407 451.96C245.73 452.515 245.665 453.233 245.276 453.769C246.176 453.555 246.862 453.886 247.311 454.655C248.014 455.861 247.486 457.103 246.306 457.798C245.127 458.493 243.775 458.452 243.031 457.177C242.603 456.443 242.67 455.631 243.242 454.968C242.591 455.072 241.928 454.765 241.601 454.203C241.003 453.178 241.565 452.093 242.547 451.514ZM245.926 457.147C246.689 456.697 246.923 455.861 246.519 455.168C246.115 454.476 245.235 454.333 244.514 454.758C243.759 455.203 243.44 456.024 243.861 456.744C244.281 457.465 245.129 457.617 245.919 457.151M244.145 454.091C244.745 453.738 244.983 453.104 244.615 452.474C244.247 451.843 243.606 451.784 242.991 452.146C242.377 452.508 242.069 453.136 242.433 453.76C242.833 454.445 243.516 454.462 244.145 454.091Z" fill="white"/>
    <path d="M268.323 442.664C268.731 443.234 269.435 443.285 270.042 442.927C270.974 442.378 270.969 441.31 270.081 439.674L270.048 439.666C270.065 440.363 269.694 441.028 269.073 441.394C267.78 442.156 266.563 441.728 265.848 440.502C265.133 439.276 265.525 437.964 266.754 437.24C267.983 436.516 269.3 436.578 270.674 438.933C271.93 441.088 271.966 442.678 270.419 443.589C269.353 444.218 268.272 444.138 267.547 443.122L268.309 442.673L268.323 442.664ZM267.11 437.915C266.199 438.452 266.276 439.365 266.721 440.127C267.121 440.813 268.011 441.136 268.745 440.703C269.543 440.233 269.677 439.307 269.245 438.565C268.812 437.824 267.957 437.416 267.103 437.919" fill="white"/>
    <path d="M256.549 475.927C258.541 474.754 259.715 476.473 260.519 477.852C261.323 479.231 262.234 481.086 260.243 482.26C258.251 483.434 257.077 481.714 256.281 480.349C255.485 478.984 254.558 477.101 256.549 475.927ZM259.859 481.602C261.158 480.836 260.251 479.248 259.71 478.32C259.168 477.391 258.244 475.823 256.937 476.593C255.631 477.362 256.545 478.946 257.082 479.868C257.62 480.789 258.552 482.372 259.859 481.602Z" fill="white"/>
    <path d="M283.185 401.586C283.051 401.665 282.897 401.691 282.743 401.653L278.783 400.628C278.702 400.602 278.611 400.656 278.587 400.744L277.406 404.592C277.311 404.899 276.991 405.078 276.685 404.99C276.38 404.902 276.206 404.587 276.301 404.281L277.483 400.433C277.691 399.754 278.414 399.345 279.101 399.523L283.061 400.547C283.363 400.629 283.543 400.939 283.459 401.248C283.417 401.402 283.315 401.518 283.189 401.593" fill="white"/>
    <path d="M294.693 427.711C294.399 427.885 294.033 427.953 293.687 427.861L289.728 426.836C289.419 426.759 289.245 426.445 289.329 426.136C289.413 425.827 289.733 425.647 290.042 425.724L294.001 426.749C294.089 426.771 294.173 426.721 294.197 426.633L295.379 422.785C295.474 422.478 295.793 422.299 296.099 422.387C296.405 422.475 296.578 422.79 296.479 423.089L295.298 426.937C295.197 427.265 294.977 427.535 294.696 427.7" fill="white"/>
    <path d="M308.387 453.869C308.254 453.947 308.099 453.974 307.951 453.931L304.973 453.193C304.664 453.116 304.483 452.805 304.571 452.503C304.655 452.193 304.972 452.006 305.281 452.084L307.696 452.681L309.462 446.227C309.546 445.918 309.863 445.731 310.172 445.808C310.481 445.886 310.662 446.196 310.574 446.499L308.657 453.505C308.618 453.649 308.517 453.783 308.39 453.858" fill="#171B5B"/>
    <path d="M237.581 495.567C237.455 495.642 237.293 495.672 237.145 495.63L230.258 493.923C229.948 493.846 229.766 493.534 229.855 493.231C229.939 492.921 230.256 492.734 230.566 492.812L237.449 494.511C237.759 494.589 237.94 494.9 237.856 495.21C237.814 495.365 237.715 495.488 237.588 495.563" fill="#171B5B"/>
    <path d="M233.208 497.97C233.082 498.045 232.92 498.075 232.772 498.032C232.462 497.955 232.281 497.644 232.365 497.334L234.211 490.595C234.295 490.285 234.612 490.098 234.922 490.175C235.231 490.252 235.413 490.564 235.328 490.874L233.483 497.613C233.441 497.768 233.342 497.891 233.216 497.966" fill="#171B5B"/>
    <path d="M287.481 463.218L283.536 465.548C283.264 465.709 282.912 465.621 282.756 465.354C282.601 465.086 282.696 464.734 282.969 464.573L286.914 462.243C287.186 462.082 287.538 462.17 287.693 462.438C287.849 462.706 287.754 463.057 287.481 463.218Z" fill="#171B5B"/>
    <path d="M284.464 466.873L282.325 463.2C282.196 462.979 281.886 462.967 281.742 463.173L278.955 467.224C278.79 467.461 278.977 467.797 279.273 467.77L284.198 467.392C284.452 467.372 284.599 467.09 284.471 466.868" fill="#171B5B"/>
    <path d="M266.209 379.477C264.541 380.461 262.417 379.931 261.467 378.299C260.867 377.269 260.858 376.02 261.427 374.951C261.506 374.811 261.681 374.754 261.816 374.823C261.955 374.899 262.004 375.065 261.936 375.208C261.456 376.104 261.467 377.147 261.966 378.004C262.76 379.366 264.537 379.804 265.923 378.986C267.309 378.168 267.798 376.393 267.004 375.031C266.505 374.173 265.603 373.647 264.588 373.642C264.429 373.643 264.305 373.512 264.314 373.349C264.316 373.19 264.45 373.064 264.61 373.062C265.822 373.081 266.904 373.706 267.504 374.736C268.454 376.368 267.869 378.497 266.209 379.477Z" fill="white"/>
    <path d="M263.768 375.437C263.625 375.52 263.446 375.476 263.369 375.344L262.457 373.787C262.376 373.648 262.425 373.47 262.567 373.387C262.709 373.303 262.888 373.348 262.97 373.487L263.881 375.043C263.963 375.182 263.91 375.353 263.768 375.437Z" fill="white"/>
    <path d="M255.312 353.401L174.256 401.274C169.912 403.84 164.262 402.46 161.733 398.112L150.768 379.269C148.239 374.922 149.803 369.281 154.147 366.716L235.202 318.842C239.546 316.277 245.196 317.657 247.725 322.004L258.69 340.847C261.22 345.194 259.656 350.835 255.312 353.401Z" fill="#A2EE00" stroke="#171B5B"/>
    <path d="M254.783 348.747L170.37 398.603C169.034 399.391 167.308 398.959 166.542 397.644L153.747 375.656C152.982 374.341 153.451 372.612 154.786 371.823L239.2 321.967C240.535 321.179 242.262 321.611 243.027 322.926L255.822 344.914C256.587 346.229 256.118 347.958 254.783 348.747Z" fill="#FAFAFA"/>
    <path d="M166.344 331.869L167.174 324.865C167.203 324.606 166.92 324.429 166.695 324.562L162.742 326.892C162.651 326.946 162.597 327.033 162.581 327.135L161.638 335.341L156.034 325.728C155.945 325.576 155.746 325.526 155.591 325.618L151.695 327.914C151.54 328.006 151.485 328.205 151.574 328.358L161.159 344.799C161.248 344.951 161.447 345.001 161.602 344.91L165.498 342.613C165.653 342.521 165.707 342.322 165.619 342.17L162.155 336.227L163.303 335.55L170.769 339.329C170.863 339.376 170.982 339.37 171.074 339.316L175.372 336.783C175.59 336.654 175.583 336.333 175.358 336.223L166.344 331.869Z" fill="#171B5B"/>
    <path d="M170.99 321.485C171.785 321.017 172.255 320.46 172.39 319.832C172.521 319.197 172.404 318.559 172.03 317.916C171.655 317.272 171.154 316.852 170.544 316.663C169.929 316.468 169.214 316.62 168.406 317.097C167.597 317.575 167.141 318.122 166.992 318.759C166.854 319.398 166.963 320.04 167.338 320.684C167.713 321.327 168.213 321.748 168.838 321.928C169.46 322.119 170.174 321.967 170.99 321.485Z" fill="white"/>
    <path d="M170.808 326.666L171.388 326.325L176.817 335.613C176.907 335.766 177.107 335.816 177.263 335.724L181.178 333.422C181.334 333.33 181.389 333.13 181.299 332.978L174.276 320.962C174.154 320.753 173.85 320.755 173.723 320.96L170.376 326.221C170.191 326.507 170.517 326.837 170.808 326.666Z" fill="#171B5B"/>
    <path d="M177.622 322.648L178.202 322.307L183.631 331.595C183.721 331.748 183.921 331.798 184.077 331.706L187.992 329.404C188.148 329.312 188.203 329.113 188.113 328.96L181.09 316.944C180.968 316.735 180.664 316.737 180.537 316.942L177.19 322.203C177.005 322.489 177.331 322.819 177.622 322.648Z" fill="#171B5B"/>
    <path d="M177.798 317.472C178.592 317.003 179.062 316.447 179.197 315.818C179.328 315.183 179.212 314.545 178.837 313.902C178.462 313.259 177.962 312.838 177.351 312.65C176.736 312.454 176.022 312.606 175.213 313.084C174.404 313.561 173.948 314.109 173.799 314.745C173.661 315.384 173.771 316.026 174.145 316.67C174.52 317.313 175.021 317.734 175.645 317.914C176.267 318.105 176.982 317.953 177.798 317.472Z" fill="white"/>
    <path d="M190.637 310.001C189.147 310.878 188.318 312.074 188.147 313.6C188.005 314.82 188.274 316.143 188.94 317.576L186.44 313.292C186.351 313.14 186.151 313.09 185.996 313.181L183.024 314.932C182.869 315.023 182.815 315.223 182.904 315.375L190.124 327.749C190.213 327.902 190.413 327.952 190.568 327.86L194.471 325.561C194.627 325.47 194.681 325.27 194.592 325.118L191.004 318.969C190.426 317.977 190.256 317.053 190.488 316.199C190.731 315.348 191.343 314.624 192.338 314.038L193.086 313.597C193.241 313.506 193.296 313.306 193.207 313.154L191.338 309.951C191.249 309.798 191.049 309.749 190.894 309.84L190.633 309.994L190.637 310.001Z" fill="#171B5B"/>
    <path d="M208.568 308.081C207.866 306.877 206.956 305.916 205.835 305.21C204.717 304.493 203.477 304.118 202.129 304.076C200.781 304.034 199.403 304.428 197.988 305.263C196.925 305.889 196.077 306.641 195.453 307.502C194.822 308.367 194.402 309.284 194.188 310.248C193.973 311.211 193.943 312.196 194.101 313.182C194.259 314.167 194.596 315.103 195.104 315.975L195.379 316.446C195.871 317.29 196.501 318.016 197.275 318.629C198.048 319.243 198.918 319.697 199.874 319.989C200.833 320.288 201.852 320.366 202.929 320.233C204.005 320.101 205.1 319.706 206.212 319.05C207.324 318.395 208.224 317.603 208.86 316.698C209.5 315.8 209.903 314.836 210.063 313.812C210.209 312.926 210.162 312.052 209.942 311.186C209.89 310.984 209.66 310.897 209.484 311.001L206.042 313.031C205.951 313.085 205.887 313.187 205.887 313.299C205.89 313.678 205.77 314.056 205.537 314.436C205.267 314.865 204.827 315.263 204.222 315.62C203.539 316.023 202.903 316.212 202.308 316.182C201.713 316.151 201.163 315.936 200.656 315.538C200.442 315.366 200.235 315.172 200.036 314.945L209.095 309.603C209.243 309.516 209.301 309.323 209.212 309.171L208.575 308.077L208.568 308.081ZM198.71 309.943C198.983 309.437 199.399 309.015 199.976 308.675C200.554 308.335 201.13 308.171 201.674 308.213C202.215 308.248 202.736 308.461 203.232 308.857C203.475 309.048 203.707 309.283 203.934 309.559L198.669 312.664C198.548 312.326 198.46 311.997 198.425 311.692C198.343 311.033 198.434 310.459 198.707 309.954" fill="#171B5B"/>
    <path d="M306.634 334.486C287.645 347.876 268.651 361.264 249.661 374.659C245.633 377.498 241.217 380.927 240.378 385.793C239.442 391.206 243.671 396.039 248.614 397.488C253.556 398.938 258.991 397.864 264.192 396.785C289.366 391.557 314.544 386.331 339.717 381.103" fill="white"/>
    <path d="M306.634 334.486C287.645 347.876 268.651 361.264 249.661 374.659C245.633 377.498 241.217 380.927 240.378 385.793C239.442 391.206 243.671 396.039 248.614 397.488C253.556 398.938 258.991 397.864 264.192 396.785C289.366 391.557 314.544 386.331 339.717 381.103" stroke="#171B5B" stroke-miterlimit="10"/>
    <g clip-path="url(#clip0_2001_4)">
        <path d="M98.5017 116.084C59.5679 124.967 35.2022 163.737 44.0838 202.666C52.9654 241.595 91.7355 265.96 130.669 257.078C169.603 248.195 193.97 209.43 185.087 170.496C176.205 131.562 137.431 107.202 98.5017 116.084Z" fill="#212912"/>
        <path d="M148.731 172.245L157.697 212.17L86.3701 228.443L83.5272 215.782L142.197 202.458L136.087 175.099L148.732 172.25L148.731 172.245Z" fill="#E5F8A4"/>
        <path d="M82.5089 152.669L91.4756 192.594L78.8485 195.475L69.8644 155.519L82.5089 152.669Z" fill="#E5F8A4"/>
        <path d="M109.577 136.561L97.0659 139.415L119.258 236.687L131.77 233.833L109.577 136.561Z" fill="#E5F8A4"/>
        <path d="M144.015 151.911L72.6012 168.204L69.7582 155.543L141.277 139.287L144.016 151.916L144.015 151.911Z" fill="#E5F8A4"/>
        <path d="M150.91 182.132L79.4961 198.425L76.6532 185.764L148.172 169.508L150.911 182.137L150.91 182.132Z" fill="#E5F8A4"/>
    </g>
    <g clip-path="url(#clip1_2001_4)">
        <path d="M393.862 558.898C378.362 540.731 351.064 538.568 332.898 554.066C314.733 569.564 312.57 596.862 328.07 615.029C343.57 633.197 370.865 635.362 389.033 619.862C407.201 604.362 409.36 577.064 393.862 558.898Z" fill="#212912"/>
        <path d="M378.027 601.082L359.358 616.901L330.962 583.618L336.882 578.602L360.207 605.996L373.01 595.174L378.025 601.084L378.027 601.082Z" fill="#E5F8A4"/>
        <path d="M370.042 560.566L351.373 576.385L346.346 570.493L365.027 554.656L370.042 560.566Z" fill="#E5F8A4"/>
        <path d="M386.082 570.443L381.101 564.605L335.711 603.33L340.692 609.168L386.082 570.443Z" fill="#E5F8A4"/>
        <path d="M387.495 592.947L359.064 559.623L364.985 554.606L393.425 587.996L387.493 592.949L387.495 592.947Z" fill="#E5F8A4"/>
        <path d="M373.393 604.978L344.962 571.654L350.883 566.638L379.323 600.028L373.39 604.98L373.393 604.978Z" fill="#E5F8A4"/>
    </g>
    <g clip-path="url(#clip2_2001_4)">
        <path d="M508.289 272.343C494.15 267.736 478.95 275.464 474.343 289.602C469.736 303.74 477.465 318.94 491.604 323.547C505.744 328.155 520.943 320.428 525.551 306.288C530.158 292.149 522.427 276.95 508.289 272.343Z" fill="#212912"/>
        <path d="M513.599 299.894L508.829 314.367L482.925 305.926L484.438 301.337L505.733 308.299L509.013 298.388L513.598 299.896L513.599 299.894Z" fill="#E5F8A4"/>
        <path d="M496.182 280.975L491.412 295.447L486.827 293.953L491.597 279.467L496.182 280.975Z" fill="#E5F8A4"/>
        <path d="M507.912 281.004L503.369 279.524L491.858 314.85L496.401 316.33L507.912 281.004Z" fill="#E5F8A4"/>
        <path d="M515.981 292.495L490.046 284.044L491.559 279.455L517.52 287.938L515.98 292.497L515.981 292.495Z" fill="#E5F8A4"/>
        <path d="M512.405 303.47L486.469 295.019L487.982 290.43L513.944 298.913L512.404 303.472L512.405 303.47Z" fill="#E5F8A4"/>
    </g>
    <path d="M149.237 471.363C123.627 469.509 101.356 488.761 99.4773 514.366C101.331 488.756 82.0789 466.485 56.4997 464.612C82.1098 466.466 104.38 447.214 106.228 421.629C104.374 447.239 123.627 469.509 149.237 471.363Z" stroke="#212912" stroke-miterlimit="10"/>
    <path d="M38.6143 412.707C29.8851 409.451 20.1636 413.885 16.9076 422.614C20.1636 413.885 15.7292 404.164 7 400.908C15.7292 404.164 25.4507 399.729 28.7068 391C25.4507 399.729 29.8851 409.451 38.6143 412.707Z" stroke="#212912" stroke-miterlimit="10"/>
    <path d="M29.1561 501.948C22.4574 503.368 18.1736 509.95 19.5934 516.649C18.1736 509.95 11.5917 505.666 4.8931 507.086C11.5917 505.666 15.8756 499.084 14.4558 492.385C15.8756 499.084 22.4574 503.368 29.1561 501.948Z" stroke="#212912" stroke-miterlimit="10"/>
    <path d="M314.584 239.176C304.54 240.403 297.387 249.531 298.602 259.584C297.375 249.54 288.247 242.387 278.194 243.602C288.238 242.375 295.391 233.247 294.176 223.194C295.403 233.238 304.531 240.391 314.584 239.176Z" stroke="#212912" stroke-miterlimit="10"/>
    <defs>
        <clipPath id="clip0_2001_4">
            <rect width="144.622" height="144.622" fill="white" transform="translate(28 132.169) rotate(-12.852)"/>
        </clipPath>
        <clipPath id="clip1_2001_4">
            <rect width="86.4857" height="86.4857" fill="white" transform="translate(365.794 526) rotate(49.5304)"/>
        </clipPath>
        <clipPath id="clip2_2001_4">
            <rect width="53.856" height="53.856" fill="white" transform="translate(482.685 264) rotate(18.0482)"/>
        </clipPath>
    </defs>
</svg>
