<svg width="105" height="253" viewBox="0 0 105 253" fill="none" xmlns="http://www.w3.org/2000/svg">
<g clip-path="url(#clip0_279_523)">
<path d="M104.791 0.220215C70.7286 31.6756 49.4043 76.6031 49.4043 126.494C49.4043 176.385 70.7286 221.313 104.791 252.768" stroke="#DEFA90" stroke-width="0.5" stroke-miterlimit="10"/>
<path d="M8.41425 127.349L9.99883 136.799L11.5957 127.349L20.0099 125.552L11.5957 123.767L9.99883 114.305L8.41425 123.767L0 125.552L8.41425 127.349Z" fill="#DEFA90"/>
<path d="M30.254 193.047C31.0003 193.047 31.6052 192.445 31.6052 191.703C31.6052 190.96 31.0003 190.358 30.254 190.358C29.5078 190.358 28.9028 190.96 28.9028 191.703C28.9028 192.445 29.5078 193.047 30.254 193.047Z" stroke="#DEFA90" stroke-width="0.5" stroke-miterlimit="10"/>
<path d="M23.8666 180.737C25.2844 180.737 26.4339 179.593 26.4339 178.182C26.4339 176.77 25.2844 175.626 23.8666 175.626C22.4487 175.626 21.2993 176.77 21.2993 178.182C21.2993 179.593 22.4487 180.737 23.8666 180.737Z" stroke="#DEFA90" stroke-width="0.5" stroke-miterlimit="10"/>
<path d="M17.8724 165.59C20.3689 165.59 22.3928 163.575 22.3928 161.091C22.3928 158.606 20.3689 156.592 17.8724 156.592C15.3759 156.592 13.3521 158.606 13.3521 161.091C13.3521 163.575 15.3759 165.59 17.8724 165.59Z" stroke="#DEFA90" stroke-width="0.5" stroke-miterlimit="10"/>
<path d="M30.254 60.7467C31.0003 60.7467 31.6052 60.1446 31.6052 59.4019C31.6052 58.6592 31.0003 58.0571 30.254 58.0571C29.5078 58.0571 28.9028 58.6592 28.9028 59.4019C28.9028 60.1446 29.5078 60.7467 30.254 60.7467Z" stroke="#DEFA90" stroke-width="0.5" stroke-miterlimit="10"/>
<path d="M23.8666 75.4778C25.2844 75.4778 26.4339 74.3339 26.4339 72.9227C26.4339 71.5116 25.2844 70.3677 23.8666 70.3677C22.4487 70.3677 21.2993 71.5116 21.2993 72.9227C21.2993 74.3339 22.4487 75.4778 23.8666 75.4778Z" stroke="#DEFA90" stroke-width="0.5" stroke-miterlimit="10"/>
<path d="M17.8724 94.5246C20.3689 94.5246 22.3928 92.5104 22.3928 90.0257C22.3928 87.5411 20.3689 85.5269 17.8724 85.5269C15.3759 85.5269 13.3521 87.5411 13.3521 90.0257C13.3521 92.5104 15.3759 94.5246 17.8724 94.5246Z" stroke="#DEFA90" stroke-width="0.5" stroke-miterlimit="10"/>
</g>
<defs>
<clipPath id="clip0_279_523">
<rect width="105" height="253" fill="white"/>
</clipPath>
</defs>
</svg>
