<svg width="105" height="253" viewBox="0 0 105 253" fill="none" xmlns="http://www.w3.org/2000/svg">
<g clip-path="url(#clip0_279_536)">
<path d="M0.209071 252.78C34.2714 221.324 55.5957 176.397 55.5957 126.506C55.5957 76.615 34.2714 31.6875 0.209093 0.232124" stroke="#DEFA90" stroke-width="0.5" stroke-miterlimit="10"/>
<path d="M96.5858 125.651L95.0012 116.201L93.4043 125.651L84.9901 127.448L93.4043 129.233L95.0012 138.695L96.5858 129.233L105 127.448L96.5858 125.651Z" fill="#DEFA90"/>
<path d="M74.746 59.9526C73.9997 59.9526 73.3948 60.5546 73.3948 61.2973C73.3948 62.04 73.9997 62.6421 74.746 62.6421C75.4922 62.6421 76.0972 62.04 76.0972 61.2973C76.0972 60.5546 75.4922 59.9526 74.746 59.9526Z" stroke="#DEFA90" stroke-width="0.5" stroke-miterlimit="10"/>
<path d="M81.1334 72.2634C79.7156 72.2634 78.5661 73.4074 78.5661 74.8185C78.5661 76.2296 79.7156 77.3735 81.1334 77.3735C82.5513 77.3735 83.7007 76.2296 83.7007 74.8185C83.7007 73.4074 82.5513 72.2634 81.1334 72.2634Z" stroke="#DEFA90" stroke-width="0.5" stroke-miterlimit="10"/>
<path d="M87.1276 87.4105C84.6311 87.4105 82.6072 89.4247 82.6072 91.9093C82.6072 94.394 84.6311 96.4082 87.1276 96.4082C89.6241 96.4082 91.6479 94.394 91.6479 91.9093C91.6479 89.4247 89.6241 87.4105 87.1276 87.4105Z" stroke="#DEFA90" stroke-width="0.5" stroke-miterlimit="10"/>
<path d="M74.746 192.253C73.9997 192.253 73.3948 192.855 73.3948 193.598C73.3948 194.341 73.9997 194.943 74.746 194.943C75.4922 194.943 76.0972 194.341 76.0972 193.598C76.0972 192.855 75.4922 192.253 74.746 192.253Z" stroke="#DEFA90" stroke-width="0.5" stroke-miterlimit="10"/>
<path d="M81.1334 177.522C79.7156 177.522 78.5661 178.666 78.5661 180.077C78.5661 181.488 79.7156 182.632 81.1334 182.632C82.5513 182.632 83.7007 181.488 83.7007 180.077C83.7007 178.666 82.5513 177.522 81.1334 177.522Z" stroke="#DEFA90" stroke-width="0.5" stroke-miterlimit="10"/>
<path d="M87.1276 158.475C84.6311 158.475 82.6072 160.49 82.6072 162.974C82.6072 165.459 84.6311 167.473 87.1276 167.473C89.6241 167.473 91.6479 165.459 91.6479 162.974C91.6479 160.49 89.6241 158.475 87.1276 158.475Z" stroke="#DEFA90" stroke-width="0.5" stroke-miterlimit="10"/>
</g>
<defs>
<clipPath id="clip0_279_536">
<rect width="105" height="253" fill="white" transform="translate(105 253) rotate(-180)"/>
</clipPath>
</defs>
</svg>
